<svg version="1.1" xmlns="http://www.w3.org/2000/svg" xmlns:xlink="http://www.w3.org/1999/xlink" x="0px" y="0px"
	 viewBox="0 0 731.9 858.1" style="enable-background:new 0 0 731.9 858.1;" xml:space="preserve">
<style type="text/css">
	.st0{fill:#DADADA;}
	.st1{fill:#727272;}
	.st2{fill:#686868;}
	.st3{fill:#B2B2B2;}
	.st4{fill:#CBBBA0;}
	.st5{fill:#B2DB86;}
</style>
<path d="M594.8,136.3c-15.9,9.1-35.5,8.6-53.1,11.8c-17.5,3.2-36.6,9.7-54.4,4.8c-10.9-3-15.5,13.9-4.6,16.9
	c20.5,5.7,41.8-0.6,62-4.5c19.9-3.8,40.8-3.6,58.9-13.9C613.4,145.8,604.6,130.7,594.8,136.3z"/>
<path d="M731.6,255.9c-6.3-26.2-24.5-45.6-47.2-58.3c2.9-1.8,5.5-4.1,7.5-7.2c12.7-19.4-10.2-43.6-29.3-48.6
	c-0.6-3.5-1.1-7-1.2-10.6c-0.1-8.7,0.2-17.2-3.8-25.1c0.2-3.8-0.3-7.9-1.8-12c-6.3-17.6-23.1-29.8-39.7-37
	C597,48.9,576,44.2,555.7,39.5c-22.7-5.3-45.6-9.3-68.7-11.9c-12.7-1.4-25.4-2.4-38.2-2c-10.4,0.4-20.8,1.4-31.2,1.9
	c-7.9-8.5-15-17.8-24-25.1c-0.9-0.7-1.9-1.3-3-1.8c-1.6-0.7-3.4-1-5.6-0.5c-25.8,5.7-52.6,3-78.6,6.8c-0.3,0-0.7,0.1-1,0.1
	c-0.1,0-0.3,0-0.4,0.1c-1.1,0.2-2.1,0.6-2.9,1.3c-1,0.7-1.8,1.6-2.3,2.7c-0.1,0.2-0.2,0.4-0.2,0.5c-0.1,0.2-0.1,0.3-0.2,0.5
	c-2.1,5-4.5,9.9-6.8,14.8c-35.1,8.2-71.2,8.6-106.8,13.3C149.4,45.1,114.2,55,84.7,77.9c-10.2,7.9-22.2,19-23.3,32.4
	c0,0,0,0-0.1,0.1c-9.6,12.8-8.4,29.2-4.9,44.9c-15.2,10.1-27,28.1-18.4,46.4c0.4,0.8,0.8,1.6,1.3,2.4c-1.8-3.2-29.8,19.1-33.7,20.4
	c-14.3,4.5,2.7,24.5,6.4,31.1c9.2,16.3,16.4,25.3,35.2,31.1c10.4,3.2,20.8,6.7,31.1,10.3c0.6,28.8,6.4,56.9,11,85.3
	c5.1,31.2,3.3,62.9,7.4,94.2c4.1,30.6,6,61.2,8.7,91.9c2.7,31.7-1.3,63.5,3.3,95.1c2.2,14.9,5.3,29.7,4.1,44.9
	c-0.8,10.1-2.3,20.8-0.2,30.7c-0.6,0.8-1.1,1.8-1.5,2.9c-0.9,2.9-3,4.5-5.3,6.5c-3,2.7-5.5,5.7-7.1,9.4c-4.6,10.8-0.6,22.9-0.7,34.1
	c0,0.8,0.1,1.5,0.2,2.2c0.5,2.9,2.4,5.4,6.2,6.2c16,3.4,29.6,13.5,44.9,18.9c17.1,6,35.2,9.8,53,13.1c37.4,6.9,75.4,10.4,113,16.3
	c18.1,2.8,36.1,6.2,54.4,8.2c18.9,2.1,37.3,1.5,56.2-0.1c17.9-1.6,35.8-3.3,53.6-6c17.6-2.7,34.6-7.4,51.8-11.8
	c34.3-8.7,69.7-16.2,96.7-40.8c1.9-1.8,2.7-3.8,2.8-5.7c3-7.1,2.5-14.8,1.2-22.3c1-1.4,3.2-2.7,4.3-3.9c2.7-3.3,4.1-7.4,4.5-11.7
	c0.8-8.9,0.7-17.9,2.4-26.6c0.5-2.5,0-4.7-1.1-6.4c-0.5-2.2-1.9-4.2-4-5.8c-2.1-1.5-3-2.2-5.1-4c-2-1.7-4-3.4-5.9-5.1
	c-0.8-0.7-1.6-1.2-2.6-1.6c1.2-27.7,3.5-55.3,5.3-82.9c2.3-36.3,4.5-72.6,6.4-109c1.9-35.9,3.3-71.8,3.3-107.8
	c0-33.5-0.4-68.6,7.9-101.3c7.3,0.7,14.5,2,21.8,1.7c1.3-0.1,2.4-0.4,3.4-0.8c0.1,0,0.2-0.1,0.2-0.1c0,0,0,0,0.1,0
	c1.5-0.6,2.8-1.7,3.9-3.4c5.2-8.2,8.9-17.2,12.3-26.3c11.5-4.6,24.5-4.7,36.6-6.4c4.2-0.6,6.7-5.4,6.3-9.4
	C731.9,258,731.9,256.9,731.6,255.9z"/>
<path class="st0" d="M455.6,57.6c2.8,2.4,5.6,4.7,8.4,6.9c-10.2,1.2-20.5,2.1-30.6,3.8c-3.5-4.3-6.7-8.7-9.9-13.3
	C433.4,59.8,444.2,59.5,455.6,57.6z"/>
<path class="st1" d="M425.2,85.1c0.7,0.4,1.5,0.8,2.3,1c-35.6,15.2-80.1,10.4-115.7-4.9c2.7-0.9,5.3-1.9,7.9-3
	c2.7-0.6,5.2-2.5,6.3-5.8c2.4-7.5,4.1-15.3,6.4-22.8c12-2.2,24.2-2.5,36.4-3c0.1,0.2,0.2,0.5,0.3,0.7c4.4,8.9,10.9,16.5,14.8,25.6
	c1.1,2.6,3.9,4,6.8,4.2C402.1,80.1,414.1,80.9,425.2,85.1z"/>
<path class="st2" d="M407.9,62.9c-3.5-0.6-7.1-1.3-10.6-2.1c-2.8-5.5-6.3-10.5-9.5-15.7c1.7-0.2,3.5-0.4,5.2-0.7
	C398.6,50.1,403.3,56.5,407.9,62.9z"/>
<path class="st0" d="M313.5,23.6c23.7-3.1,47.9-1.2,71.5-5.5c3,2.7,5.7,5.6,8.4,8.6c-23.2,4.6-47.2,1.7-70.4,6.9
	c-4.2,1-6.1,4-6.3,7.3c-2.2,6.6-3.8,13.4-5.7,20.2c-2.8-2.2-5.6-5.6-8.2-8.2c-0.8-0.8-1.6-1.5-2.4-2.2
	C304.9,41.7,309.4,32.7,313.5,23.6z"/>
<path class="st0" d="M292.8,67.7c0.4,0.5,0.9,0.9,1.3,1.3c-8.7,2.7-17.5,5.3-25.9,9c-0.6-0.2-1.3-0.3-2-0.4c-3.3-0.4-6-2.5-8.4-4.7
	c9.6-3.6,19.1-7.6,28.9-10.7C289,63.5,290.9,65.7,292.8,67.7z"/>
<path class="st3" d="M71.4,133.5c9.2,9.3,23.1,15.5,34.1,19.6c18.6,7,38.5,11,57.8,15.3c21.2,4.7,42.6,8.6,64.1,11.2
	c49.7,5.9,100.4,4.5,150.3,4.5c11.2,0,11.3-17.5,0-17.5c-41.2,0-82.4,0.2-123.5-2.1c-40.4-2.3-80-10.8-119.1-20.6
	c-16-4-32.4-8.7-45.9-18.6c-5.1-3.7-12.1-9.2-9.7-16.3c2.2-6.6,9-11.8,14.1-16c26.2-21.4,58.9-30.6,91.8-35.1
	c29.3-4,59-5.1,88.2-9.5c-11.5,4.2-22.7,9.1-34.5,12.5c-3.7,1.1-5.6,3.7-6,6.7c-1.2,3.8,0.7,7.7,4,10.1c4.3,3.1,7.7,7.3,11.9,10.5
	c3.4,2.6,6.8,4.4,10.6,5.6c2.4,3.2,6.7,5,11.2,2.5c5.5-3,11.3-5.3,17.3-7.3c106.1,66.6,179.8-9.2,180.2-10.6
	c11.6-2.7,21.1-5.3,21.7-6.2c2.6-4.5,0.6-9.1-3.1-12c-7.1-5.5-14.2-10.9-20.9-16.9c1.3,0.1,2.6,0.1,3.9,0.2
	c20.1,1.4,40,4.3,59.8,8.2c19.4,3.8,38.6,8.7,57.6,13.9c16.3,4.5,32.9,10,44.9,22.6c4.1,4.3,8.3,10.1,8.4,16.3
	c0.1,7.2-6,11.3-11.8,14.2c-10,5.1-1.2,20.2,8.8,15.1c2.4-1.2,4.6-2.6,6.6-4.2c0,1.6-0.1,3.2,0,4.8c0.4,7.3,2.8,14.4,3.4,21.7
	c-14.2,7.4-29.6,12-44.9,16.5c-18.6,5.4-37.2,11.5-56.2,15.5c-18.5,3.9-37.4,6.9-56,10.2c-18.9,3.3-37.8,6.1-56.9,7.3
	c-38.7,2.5-78.2,3.2-116.8-0.2c-40-3.5-79.8-8.9-119.5-14.6c-21.5-3.1-42.7-6.8-63.9-11.2c-17.9-3.7-36.9-3.5-54.4-9.1
	C75.4,159.4,70.4,145.6,71.4,133.5z"/>
<path class="st0" d="M52.7,186.9c0.8-5.4,4.3-10,8.6-13.6c0.5,1.9,1,3.7,1.5,5.5c0.7,2.6,2.2,4.4,4.1,5.3c0.8,0.8,1.9,1.5,3.2,2
	c16.7,6.4,34.7,5.9,52.1,9.2c19.2,3.7,38.3,7.9,57.7,10.7c40.6,5.9,81.3,11.3,122.1,15.6c40,4.2,80.1,3.8,120.3,2.2
	c39.1-1.6,77.2-9.5,115.7-16.2c21.9-3.8,43-10.3,64.3-16.6c20-5.9,40.3-11.6,58.5-22.1c3.1-1.8,4.3-4.6,4.2-7.4c0-0.1,0-0.3,0-0.4
	c4.4,2.9,8.4,7.6,10.6,11.2c3.5,5.7,3,9.4-3.4,12.1c-6.7,2.8-14.3,3.5-21.3,5.4c-13,3.5-26,6.9-38.9,10.6
	c-24.5,7-48.3,15.8-73.2,21.5c-3.1,0.7-6.3,1.4-9.4,2.1c-3.4-1.7-7-0.5-9.5,1.9c-18.1,3.5-36.3,6.1-54.6,7.8
	c-53.3,4.9-107.7,5.9-161.1,3.2c-26.7-1.4-53-5.9-79.2-11.1c-26.7-5.3-53.5-7.3-80.6-10c-14.2-1.4-28.5-2.2-42.8-3.9
	c-12.5-1.5-27.2-3-38.5-9.1C56.9,199.4,51.7,193.8,52.7,186.9z"/>
<path class="st4" d="M669.8,232.3c2,2.1,3.9,4.4,5.7,6.8c-2.2,0.8-4.5,1.6-6.7,2.4C669.2,238.5,669.5,235.4,669.8,232.3z"/>
<path class="st5" d="M520.4,301.9c-12.5-1.6-23.7-2.1-34.3,5.8c-5.9,4.4-11.2,9.6-16,15.2c-4.4,5.1-8.6,11.1-14.1,15.1
	c-9,6.5-21.3,0.7-30.5-4c-0.8-0.7-1.8-1.2-3-1.5c0,0-0.1,0-0.1-0.1c-8.2-4.1-16.5-8.7-25.4-11.4c5.6-10.7,9.4-22.9,11.3-34.4
	c1.1-6.6,1.6-13.5,1-20.1c1.5,2.2,2.7,4.4,3.9,6.5c5.4,9.9,20.5,1.1,15.1-8.8c-2-3.6-4.2-7.1-6.7-10.3c8.7-0.4,17.4-0.9,26.1-1.5
	c8.3,15.1,2.2,31.3-2.1,47.1c-3,10.9,13.9,15.5,16.9,4.6c4.1-14.7,8.3-29.6,6.1-44c7.3,3.9,14.6,9.1,17.2,16
	c4,10.4,20.9,5.9,16.9-4.6c-3.6-9.6-10.8-16.8-19.2-22.4c13.6-1.7,27.2-3.8,40.7-6.4c15.6,15.2,33.9,28.3,45.7,46.8
	c1.2,1.9,2.5,3.9,3.5,6c-1.7,1.8-5.3,4.5-6.5,5.6c-8.7,7.8-15.6,17-23.3,25.6c-9.3-1.6-18.7-2-28.1-2c-1.2-0.6-2.6-1-4.3-0.9
	c-2.9,0.1-5.6,0.5-8.1,1.2c-3.8,0.2-7.6,0.4-11.3,0.5c3.4-3.2,7.2-6.5,11.8-7.3c5.1-0.9,11.6,0.3,17,1c4.7,0.6,8.7-4.5,8.7-8.7
	C529.1,305.4,525.1,302.5,520.4,301.9z"/>
<path class="st3" d="M176.9,236.1c-3.8,1.6-7.4,3.5-10.9,5.6c-7.6,4.6-13.5,10.4-20,16.4c-2.8,2.6-5.3,4.5-9.2,3.8
	c-4.6-0.8-9-3.2-13.4-4.6c-9.6-3.1-19.5-5.1-29-8.5c-11.1-3.9-20.5-11.4-30.9-16.5c2.7-1.5,5.5-2.8,7.9-4c1.5-0.8,2.6-1.8,3.4-3
	c9.3,2.1,18.7,3.1,26.8,4C126.6,232.2,151.8,233.6,176.9,236.1z"/>
<path class="st0" d="M51.8,269.6c-5.9-1.8-13.3-4-17.5-9c-1.9-2.2-3.7-7.8-4.9-11.4c-1.5-4.5-3.3-10.1-6-14.8c2.1-1.5,4.2-3,6.2-4.6
	c7.5-4.5,15.7-7.7,22.8-12.9c0.6,0.4,1.2,0.7,1.8,1c-5.9,3.5-11.4,7.7-15.3,13.5c-4.1,6,1.5,12.5,7.5,13.2c7.7,0.8,15,6.2,21.4,10.2
	c7.7,4.8,15.4,8.8,24.1,11.7c9.6,3.2,19.5,5.2,29,8.5c9.5,3.2,17.8,6.9,27.7,2.6c7.6-3.3,12.3-10.2,18.5-15.3
	c6.1-5.1,13.9-9.3,21.4-11.7c13.9-4.4,30.2-3.2,44.8-0.1c-2.1,6.5-4.8,12.7-7.1,19.1c-16.5-2.7-32.4-8.3-48,1.9
	c-12.6,8.3-20.1,21.7-30.9,31.9c-7.3-1.9-14.3-4.8-21.3-7.8c-8.1-3.4-16.4-6.2-24.7-9.1C84.8,280.6,68.5,274.8,51.8,269.6z"/>
<path class="st0" d="M625.4,727.9c-1.1,8-1.3,16-2.1,23.9c-0.3,3.1-0.4,2.8-2.9,5.1c-2.9,2.6-4.7,5.6-5.9,9.3
	c-0.6,1.9-0.6,3.6-0.1,5c0,0.3,0.1,0.5,0.1,0.8c0.9,4.5,2.2,10-0.3,14.2c-0.2,0.4-0.4,0.7-0.5,1.1c-22.4,19.3-51.8,25.9-79.8,32.8
	c-16.5,4.1-32.8,9-49.6,12c-16.8,3-33.9,4.8-50.9,6.3c-18.4,1.7-36.6,3.1-55.1,1.6c-17.4-1.4-34.6-4.6-51.9-7.4
	c-36.4-5.9-73.2-9.4-109.5-15.6c-19.2-3.3-38.4-7.2-57.1-13c-15.5-4.8-29.3-14.3-44.7-19.2c-0.3-3.5-0.8-7.1-1-10.7
	c-0.2-3.6-0.9-8.2,1.4-11.3c1.6-2.2,4.3-3.7,6.2-5.7c0.5-0.5,0.9-1.1,1.4-1.6c33.6,14.2,68.5,24.8,104,33.1
	c37.8,8.9,76.1,16,114.9,18.6c39.5,2.6,78.3-1.4,117.4-7.1c31.6-4.6,63.3-10.5,93.7-20.5c23.8-7.8,68.1-39,68.2-42
	c0-1.2,2.4-10.2,2.4-11.5C624.2,726.9,624.8,727.4,625.4,727.9z"/>
<path class="st3" d="M632.5,291.7c-5.6,15.7-7.2,33.4-8.7,49.9c-1.6,17.5-1.9,35-2,52.6c-0.4,71.9-4.9,143.4-9,215.1
	c-2.2,39.2-6.1,78.3-6.7,117.6c0,2.9-4.7,7.9-6.5,9.9c-4.3,4.5-9.6,7.8-15,10.9c-10.8,6.2-22.4,10.8-34.1,14.7
	c-27.9,9.4-56.9,15.1-85.9,19.6c-37.1,5.8-74.2,10.2-111.7,8.6c-36.5-1.5-72.6-7.6-108.2-15.6c-38.5-8.6-76.7-19.2-113.1-34.5
	c-0.1-0.3-0.3-0.6-0.4-0.9c-5.1-9.5-1.5-23.1-0.8-33.3c0.9-13.2-1.5-26.5-3.5-39.5c-2.5-15.5-3.3-30.8-3.1-46.6
	c0.2-15.6,0.9-31.2-0.4-46.8c-2.5-30-4-60-8.1-89.8c-4.2-30.7-2.9-61.7-7.1-92.4c-4-29.5-10.9-58.6-12.3-88.4
	c8.5,3,17.1,5.9,25.4,9.4c8.5,3.6,17,7.1,26.1,8.9c3.2,0.6,5.9-0.4,7.8-2.2c0.6-0.3,1.3-0.7,1.9-1.3c0.7-0.6,1.4-1.2,2.1-1.9
	c6.3,5.6,13.8,9.9,19.1,16.4c3,3.7,4.3,8.1,5,12.8c1.2,7.8,1.6,15.8,1.8,23.7c1,30.2,0.6,60.7-0.1,90.9c-0.7,31.9-4.2,63.5-4.6,95.4
	c-0.4,31.1,0.6,62.2,0.9,93.3c0.2,15.7,2.5,33.6-2.5,48.8c-1,3.1-3.9,11-7.8,10.6c-3.2-0.3-6-6.3-7.1-9.3c-3.8-10.5-20.6-6-16.9,4.6
	c4,11.3,12.6,23.2,26.1,22c14.4-1.3,21.6-16.9,24.1-29.4c3.3-16.8,1.7-34.9,1.5-51.9c-0.2-17.5-0.6-34.9-0.8-52.4
	c-0.2-18.2-0.2-36.4,0.4-54.5c0.6-17.6,2.2-35,3.2-52.5c2-34.9,1.5-70,1.2-104.9c-0.1-9.3-0.4-18.6-1.3-27.9
	c-0.8-8.3-1.7-16.7-5.6-24.2c-5.6-10.7-16.7-16.4-25.2-24.5c4.6-5.7,9.3-11.4,15.2-15.7c13.5-9.9,31.7-0.8,46.6,0.6
	c5.3,0.5,8.1-3.2,8.3-7.3c0-0.1,0.1-0.2,0.1-0.2c3.3-10.8,8.4-21,11.1-32c8.4,1.5,16.9,2.9,25.4,3.9c30.4,3.6,61.3,3.7,91.9,3.3
	c5.7-0.1,11.4-0.2,17.1-0.3c0.1,0,0.1,0.1,0.2,0.1c8.7,6.5,5.8,23.3,3.7,32.3c-2.8,12.5-7.6,25.2-15.2,35.5
	c-4,5.5,1.4,13.2,7.5,13.2c9.7-0.1,18.8,4.7,27.6,9.4c-2.8,12.2-7.2,23.8-8.6,36.4c-1.7,15.6-1.7,31.3-2.4,46.9
	c-1.4,32.4-1.8,64.7-1.9,97.1c-0.1,32-0.5,63.8,1.9,95.7c1.2,15.3,2.7,30.7,3.3,46c0.3,8.7,0,17.5,0.7,26.2
	c0.8,10,2.7,20.3,8.7,28.6c7.3,9.9,18.3,13.9,30.2,15.1c4.7,0.5,8.7-4.3,8.7-8.7c0-5.1-4-8.3-8.7-8.7c-7.3-0.7-14-3.5-17.5-10.1
	c-3.4-6.3-3.9-14-4.2-21.1c-0.3-8.6-0.1-17.1-0.6-25.7c-0.8-14.6-2.1-29.2-3.2-43.7c-2.3-30.4-1.9-60.7-1.8-91.2
	c0.1-29.7,0.4-59.4,1.5-89.1c0.6-16.5,0.9-33,2.1-49.5c0.9-12.7,5-24.3,7.9-36.3c10.6,4.3,22.3,7.2,33.1,2.5
	c6.2-2.7,11.2-7.2,15.7-12.1c2.4,0,4.8-0.1,7.1-0.2c-6.7,13.3-8.4,30.9-9,44.4c-0.7,15.6-0.1,31.3-0.4,46.9
	c-0.4,26.2-1.4,52.4-3,78.5c-2.1,34.4-5.7,68.7-8.8,103c-2.3,25.1-3.7,50.8,0.6,75.8c2,11.5,5.6,23.8,14,32.3
	c8.8,9,21.3,10.5,33,6.9c10.7-3.3,6.2-20.1-4.6-16.9c-1.2,0.4-2.4,0.7-3.6,1c-0.4,0.1-0.9,0.2-1.3,0.2c-0.1,0-0.1,0-0.2,0
	c-1.1,0.1-2.1,0.1-3.2,0.1c-0.5,0-0.7,0-0.8,0.1c-0.1-0.1-0.4-0.1-0.9-0.3c-0.7-0.2-1.4-0.4-2.1-0.6c0,0,0,0-0.1,0
	c-0.4-0.2-0.8-0.4-1.2-0.7c-0.3-0.2-1-0.7-1.2-0.9c-0.6-0.6-1.2-1.2-1.8-1.8c-1.2-1.2-4-6.2-4.8-8c-1.8-4.7-3.1-9.6-4-14.6
	c-4-21.4-2.5-45.7-0.6-68.1c2.4-28.6,5.7-57.1,7.8-85.8c3.1-43.6,4.8-87.3,4.6-131c-0.1-13.4,0.1-27,3-40.1c1.4-6,3.1-11.9,6.7-16.9
	c1.6-2.2,3.5-3.7,5.8-4.7c5.1-0.2,10.3-0.3,15.4-0.2c4,0.1,8,0.3,11.9,0.6c4,0.4,8,1.6,12,2c2.9,0.2,5.5-1,7.9-2.9
	c-3.1,4.3-5.7,9-7.8,13.8c-5.3,12.2-7,23.9-7.2,37.1c-0.3,20.5-1.5,40.9-1.4,61.4c0,19.3,1.1,38.6,0.3,57.9
	c-0.8,18.6-2.8,37-5.5,55.5c-2.7,18.3-5,36.7-5.5,55.2c-0.4,16.9,1.3,33.6,4.3,50.2c2.9,15.9,10.3,34.4,27.4,39.4
	c17.9,5.2,30.8-11.7,37.7-25.7c4.9-10.1-10.2-19-15.1-8.8c-3.7,7.6-11.6,23.5-21.8,15.5c-9.2-7.2-10.8-21.3-12.4-32.1
	c-4.5-30.8-1.9-61.2,2.7-91.9c5-32.5,7-65.2,5.8-98.1c-0.6-17.4-0.2-34.8,0.4-52.2c0.3-8.7,0.6-17.5,0.7-26.2
	c0.1-5.9-0.1-10.9,1.1-16.1c3.3-14.8,16.7-45.5,36-35.4c10,5.2,18.8-9.9,8.8-15.1c-15.3-8.1-29.3-3.5-40,6.3c1-1.4,2-2.7,2.9-3.8
	c5.3-6.2,10.8-12,16.9-17.4c4.2-3.7,8.3-7.3,9.3-13c1-5.8-2-11.2-5-16c-4.2-6.8-9.2-13.2-14.6-19c-8.2-8.9-17.5-16.8-26.4-25
	c26.5-6.3,52-15.6,78.2-23c10.1-2.8,20.2-5.7,30.3-8.3c0.1,14.1,0.1,28.5-3.2,42.2C646.5,264.3,637.7,277.3,632.5,291.7z"/>
<path class="st0" d="M673.2,266.3c-3.6,1.8-5.9,15.5-9.2,21.6c-3.6-0.1-7.1-0.5-10.7-1c3.9-8.6,8.4-16.9,11.5-25.8
	c0.5-0.2,1-0.4,1.6-0.6c6.6-3.4,13.7-5.4,20.6-7.9c4.3-1.5,7.1-5.6,6.2-10.1c0-1.5-0.4-3-1-4.5c-4.5-10.1-11.9-18.4-21.5-23.7
	c0-1.4,2.3-6.4,2.3-7.8c18.5,9.4,34.2,28.8,41.5,48.4C702.4,256.4,684.6,260.7,673.2,266.3z"/>
<path class="st2" d="M191.7,401.1c1-28.4-6.4-55.8-10.7-83.6c-0.7-4.7-6.6-7.3-10.8-6.1c-5,1.4-6.8,6.1-6.1,10.8
	c3.8,24.4,10.4,48.5,10.3,73.4c-0.2,25.3-0.8,51-3,76.3c-2.2,25.7-2.7,51.1-1.8,76.9c0.9,25.7,2.8,51.4,2.9,77.1
	c0.1,28.2-8.8,55.6-7,83.8c0.7,11.2,18.2,11.3,17.5,0c-1.7-25.3,5.5-49.9,6.8-75.1c1.3-25.9-1.3-52.1-2.4-78c-1.1-26-1.5-52,0.8-78
	C190.6,452.8,190.8,426.9,191.7,401.1z"/>
<path class="st2" d="M268.3,349.7c-4.7-21.1-16.3-52.2-43.3-49.1c-4.7,0.5-8.7,3.6-8.7,8.7c0,4.3,4,9.3,8.7,8.7
	c1.1-0.1,2.1-0.1,3.2-0.2c0.4,0,1.5,0.1,1.8,0.2c0.4,0.1,0.9,0.2,1.3,0.3c0.5,0.1,0.9,0.3,1.4,0.4c0.7,0.4,1.4,0.8,2.2,1.2
	c0.3,0.2,0.7,0.4,1,0.6c1.5,1.3,2.8,2.6,4,4.1c0,0,0.1,0.1,0.1,0.1c0.2,0.3,0.5,0.6,0.7,1c0.7,1,1.3,2.1,1.9,3.1c1.1,1.9,2.1,4,3,6
	c0.1,0.3,0.8,2.1,1,2.5c0.5,1.3,0.9,2.6,1.4,3.9c1,2.9,1.8,5.9,2.5,8.9c7.1,28.4,7.8,58.6,7.8,88.6c0.1,59.5-6.3,118.5-10.1,177.8
	c-0.8,12.1,0.2,23.9,0.9,36c0.7,11.2,1.2,22.4,0.5,33.6c-0.3,4.4-0.7,8.7-1.9,12.9c-0.5,1.9-1,3.4-1.4,4.2c-0.4,0.8-0.9,1.4-1.3,2.2
	c1-1.7-1.9,1.4,0,0.1c-3.8,2.8-5.6,7.6-3.1,12c2.2,3.8,8.1,5.9,12,3.1c15.2-11,13.8-35.6,13.4-52.2c-0.4-14.9-2.6-29.9-2-44.9
	c0.9-23.4,3.6-46.7,5.3-70c2.7-35.4,4.8-70.9,5.1-106.5C276,414.7,275.4,381.4,268.3,349.7z"/>
<path class="st2" d="M356.5,626.4c-0.5-34.6-4.2-69-6.1-103.4c-1-17.3-1.7-34.7-1.1-52c0.6-17.1,2.6-34,3.4-51.1
	c0.8-18.9-0.8-37.3-5.1-55.8c-4.2-17.9-9.8-35.4-12.7-53.5c-0.7-4.7-6.6-7.3-10.8-6.1c-5,1.4-6.8,6.1-6.1,10.8
	c4.8,30.8,17.3,59.8,17.5,91.3c0.1,16.4-1.6,32.6-2.8,48.9c-1.2,16.5-1.2,32.9-0.6,49.4c1.2,33.1,4.7,66.2,6.2,99.3
	c0.7,13.6,0.3,27.3,0.9,40.9c0.3,8.9,1.2,17.7,1.6,26.5c0.6,10.9,1,22.2-0.6,33.1c-0.6,4.1-1.6,9-3.2,12.5c-1.6,3.8-3.4,6.1-6.3,7.7
	c-9.8,5.5-1,20.6,8.8,15.1c17.4-9.8,18.9-34,19.1-51.7C358.8,667.6,356.8,647,356.5,626.4z"/>
<path class="st2" d="M439.4,700.4c-4-6.5-4.9-14.7-6.1-22.2c-2.7-16.1-3.1-32.7-4.6-48.9c-2.8-29.5-5.5-59-5.8-88.6
	c-0.1-15.2,0.3-30.5,1.7-45.6c1.4-14.7,3.8-29.3,5.6-43.9c1.8-14.6,2.1-29.1,2.2-43.8c0.1-13.6-6.2-28.8,1.2-40.6
	c6-9.6-3.3-18.4-9.3-8.8c-14.6,23.5-8.1,53.8-10.2,80c-1.3,15.8-4,31.5-5.9,47.3c-2,16.2-2.8,32.4-2.8,48.7
	c-0.1,32.7,2.9,65.3,6,97.8c1.7,17.7,2.2,35.6,5.4,53.1c3.2,18,10.7,40.7,32,42.3C460,727.9,450.3,718,439.4,700.4z"/>
<path class="st2" d="M533.2,341.1c-10-3.8-21.7-4.9-30.4,2.5c-7,5.9-9.6,15.1-10.8,23.9c-1.3,9.7-1.2,19.4-1,29.2
	c0.2,12.8-1.2,25.4-2,38.2c-2.6,40.2-2.6,80.6-7.5,120.6c-2.4,19.7-4,39.1-4.8,58.9c-0.6,14.5-2.3,28.8-3.2,43.2
	c-0.8,12.6-0.6,26,4.7,37.8c11.6,25.5,12.3,18.9,31.8,19.6c11.3,0.4,11.2-17.1,0-17.5c-20.8-0.7-20-24.4-19-40.5
	c0.8-12.7,2.3-25.4,2.9-38.2c0.8-17.7,1.3-35.5,3.7-53.1c4.9-35.9,5.9-72,7.6-108.1c0.8-16.2,2.5-32.4,3.2-48.5
	c0.4-8.1-0.2-16.1-0.1-24.2c0-5,0.1-10.1,0.8-15.1c0.3-2,1.8-8,2.5-9.2c1.2-2.4,1.1-2.4,2.4-3.4c0.4-0.3,1.7-1,2.2-1.2
	c0.3-0.1,2.7-0.4,3.8-0.2C523,355.8,543.7,345,533.2,341.1z"/>
<path class="st2" d="M573.7,341.6c-14.4,15.6-19.5,36-20.9,56.7c-1.6,24.1-0.6,48.7-0.5,72.9c0.2,48.7-2.5,96.9-9.1,145.2
	c-3.5,25.2-3.6,52.2,5.9,76.2c1.4,3.6,4.3,6.4,8.4,6.4c10.8-0.1,19-6.4,22.1-16.7c3.2-10.8-13.6-15.4-16.9-4.6
	c0,0.1-0.1,0.2-0.1,0.3c-4.8-17.3-4.9-35.7-3-53.6c2.5-22.9,5.9-45.5,7.6-68.5c3.5-47.4,2.3-95,2.5-142.5
	C569.9,392.7,581.3,333.3,573.7,341.6z"/>
<path d="M289.9,424.9c-1.2,35.9-3.3,71.8-4,107.7c-0.5,25.9-0.9,51.7-2.1,77.6c-1.1,22.8-3.3,45.4-3.2,68.2c0,16.1,0.3,41.8-16.9,50
	c-15.9,7.6-32.3-8.8-38.6-22c-4.9-10.1,10.2-18.9,15.1-8.8c2.7,5.6,7.2,12.4,13.3,14.7c5.8,2.1,7.7-8.2,8.6-13.1
	c1.6-9.4,1.1-19.3,1.1-28.8c-0.1-10.5,0.8-20.9,1.5-31.4c3.5-47,3.3-94.1,4.6-141.2c0.7-27.9,3.1-55.7,3.5-83.6
	c0.3-23.6-0.5-48.3-8.9-70.7c-7.5-19.9-22.1-31.8-44.1-31.3c-11.3,0.2-11.2-17.3,0-17.5c15.1-0.3,29.6,3.8,41.2,13.7
	c10.6,9,17.2,22.1,21.4,35.2C290.6,369.6,290.8,398,289.9,424.9z"/>
<path d="M372,636.9c-0.4,24.6,1.1,50.4-6.4,74.2c-3.1,10-8.1,20.3-17,26.3c-10,6.7-21.5,4.9-31.9,0.3c-4.3-1.9-5.4-8.2-3.1-12
	c2.6-4.4,7.6-5.1,12-3.1c4.4,2,7.9,2.5,11.4,1.4c0.5-0.2,2.9-1.7,3.2-1.9c1.9-1.7,2.6-2.6,3.6-4.3c5.3-8.5,7.6-19,9-29.2
	c1.1-8.1,1.6-16.8,1.6-25.1c0.1-18.6,0.7-37.2,0.5-55.8c-0.2-19.8-3-39.1-4.8-58.8c-1.7-19-2.4-38-3.1-57
	c-1.5-37.1-3.3-74.1-6-111.1c-1.6-22.4-0.5-54.5-21.8-68.5c-9.4-6.2-0.6-21.3,8.8-15.1c29.4,19.3,28.1,57.3,30.8,88.4
	c3.6,41.5,4.6,83.2,6.4,124.9c0.9,20.9,2.8,41.6,5.2,62.3C372.7,594,372.4,615.5,372,636.9z"/>
<path d="M199.8,352.7c-2.5-9.6-5.3-19.9-11-28.1c-3-4.3-6.8-6.4-10.4-9.9c-2.7-2.6-3-7.3-5.3-10.5c-2.8-3.9-7.6-5.6-12-3.1
	c-3.8,2.2-5.9,8.1-3.1,12c2,2.7,2.3,6.1,3.9,9.1c2,3.6,5.1,5.8,8.4,8.2c6,4.6,8.3,12,10.4,19c5.3,17.4,8.1,35.3,8.1,53.5
	c0,18.6-2.2,37.1-3.5,55.6c-1.3,18.8-1.5,37.7-2.2,56.5c-1.3,38.5-2.7,77-4.5,115.5c-0.8,16.8,0.5,33.4-0.1,50.2
	c-0.3,9-0.9,18.6-4,25.9c0.1-0.1-1.6,2.7-1.8,3.3c-0.3,0.3-0.9,1-1.1,1.2c-0.2,0.1-0.4,0.2-0.6,0.3c0.2-0.1,0.7,0.1-0.1,0.1
	c-0.3,0-0.6,0-0.9-0.1c-0.5-0.1-1-0.2-1.4-0.3c-1.5-0.6-1.2-0.4-2.2-0.8c-10.1-4.9-18.9,10.1-8.8,15.1
	c43.9,21.5,38.4-55.6,37.9-78.3c-0.3-15,1.2-30.1,1.9-45c0.9-20.6,1.6-41.2,2.4-61.8c0.7-20.5,1.4-41,2.1-61.5
	c0.7-20.5,3-40.8,4.1-61.2C207,395.6,205.3,373.8,199.8,352.7z"/>
<path d="M446.4,723.2c-18.3-2.6-23.4-19.8-26-35.9c-3.7-23.1-3.5-47-4.1-70.3c-0.4-15.1-1.5-30.1-2.5-45.2
	c-1-14.8-0.7-29.6-0.2-44.4c1-30.6,1.4-61.3,1.8-91.9c0.2-15.3-0.8-31.1,2.1-46.1c2.9-15.1,11.8-27.9,16.4-42.4
	c3.4-10.8-13.5-15.4-16.9-4.6c-4.4,13.9-12.9,26.2-16,40.6c-2.9,13.6-2.9,27.6-3,41.4c-0.2,32.2-0.6,64.4-1.7,96.5
	c-0.5,16.2-1.1,32.5-0.2,48.7c0.9,15.8,2.2,31.6,2.6,47.5c0.6,24.9,0.8,50.2,4.7,74.9c3.5,21.7,14,44.6,38.2,48.1
	c4.7,0.7,9.3-1.2,10.8-6.1C453.6,729.9,451,723.9,446.4,723.2z"/>
<path d="M577.5,682.9c-2.3,4.6-6.1,9.1-11.6,9.2c-6,0.2-9.7-5.1-12-10c-4.9-10.3-6.6-22.7-8.4-33.9c-1.7-10.8-2.8-21.7-3-32.7
	c-0.1-5-0.1-10.6,0.6-15.3c0.3-2,0.7-4,1.4-6c0.1-0.3,0.2-0.5,0.2-0.6c0,0.1,0,0.2,0.2-0.5c0.1-0.3,0.3-0.5,0.5-0.8
	c0.1-0.1-4.5-6-4.3-6.2c8-7.9,1.5-21.4-6.5-13.5c-6.9,6.8-9.1,25-9.5,34.2c-0.5,11.3,0.4,22.7,1.8,33.9c1.3,10.3,3.1,20.4,5.3,30.5
	c3,13.2,8,28.8,21,35.3c15,7.5,32.1-0.6,39.3-14.9C597.6,681.7,582.6,672.9,577.5,682.9z"/>
</svg>
