<?xml version="1.0" encoding="utf-8"?>
<!-- Generator: Adobe Illustrator 22.0.1, SVG Export Plug-In . SVG Version: 6.00 Build 0)  -->
<svg version="1.0" id="Capa_1" xmlns="http://www.w3.org/2000/svg" xmlns:xlink="http://www.w3.org/1999/xlink" x="0px" y="0px"
	 width="2800px" height="1997.6px" viewBox="0 0 2800 1997.6" enable-background="new 0 0 2800 1997.6" xml:space="preserve">
<path d="M2041.3,1643.3c-1.3-4.6-2.7-9.2-4.2-13.6c-14.1-40.7-39-74.7-67.1-104.3c14.3-10.1,26.4-26.2,34.4-41.6
	c4.9-9.5,9.2-20.9,8.1-32.2c-1.4-14.2-12.2-22.9-20.5-32.2c-21.7-24.5-31.3-58.8-39.3-91.1c-3.5-14.3-7.2-28.7-11.6-42.7
	c-4-12.7-10-25.1-22.9-27.6c-7.4-1.4-14.8,0.2-22,2c-8.4,2.2-16.9,4-25.4,6.3c-16.1,4.3-32,9.3-48.3,12.4
	c-4.4-6.7-9.1-13.3-13.9-19.8c-29.2-38.7-60.6-94.7-109.8-99.4c-52-5-90.9,35.5-127.3,70.5c-2.4-57.6-0.3-90.8-59.6-93.3
	c-55.4-2.4-104.4-34-160.5-35.8c-56.1-1.8-113.5,7.7-169.6,11.3c-58.1,3.7-116.1,8.3-174.3,11.5c-32.3,1.8-64.3,5.5-96.2,11.5
	c-32.8,6.2-75.2,13.6-66.4,63.3c6.3,35.6,44.1,54.5,44.3,92.5c-23.8,3.5-44.1-2.4-57.2,24.6c-9.5,19.5-19,54.5-14.6,76.6
	c11.9,59,85.3,20.8,114.3,4.2c2.9,9.2,5.1,19.4,8.2,28.7c-37,7.3-21.5,42.2-9.6,66.3c17.3,35.3,9.8,84.5,11.5,124
	c1.9,44.4,9.1,87.4,12.7,131.5c1.9,23.8-4.6,34.2,16.9,42c18.7,6.8,39.6,8.7,58.9,12.2c81.6,14.7,153.9,22.9,236.6,12.9
	c39.3-4.8,78.1-8.1,117.3-0.3c33.9,6.7,71.8,20,106.2,8.8c41.6-13.6,31.5-75.3,39.9-113.5c10.4-47.5,28.1-95.2,43.8-140.7
	c45.8,96.8,110.9,159.2,194.9,213.7c75.8,49.2,182.5,89.9,233.1-19.8C2019.5,1724.5,2053.7,1688.5,2041.3,1643.3z M887,1352.2
	c-3.7-3.9-2.7-5.5,0.6-9.2c2.7-2.9,5.7-5.4,8.8-7.8c3.6,7.4,8.1,14.4,12.7,21.2C901.4,1358.4,892.3,1357.9,887,1352.2z
	 M1957.4,1437.3c-1.9,6.8-9.8,12.3-15.4,16c-6.2,4.2-12.8,7.8-19.6,10.5c-22.5-36.3-40.6-76-60.1-114.8c9.7-5.8,21-9.6,31.3-12.2
	c2.9-0.7,5.1-1.1,7.7-1.3c0.5,0,2.4,0.2,0.6-0.1c0.5,0.1,1.2,0.2,1.7,0.5c0,0.1,1.2,1.2,1.6,1.6c5,5.2,7.8,13.4,10.5,20.2
	c3.1,7.9,5.7,16,9.2,23.7c2.9,6.5,7,12.2,10.9,17.9c5,7.4,10.2,14.8,14.8,22.5c2,3.3,3.9,6.6,5.4,10.2c0.5,1.2,0.9,2.2,1.2,3.7
	C1957.6,1437.1,1957.4,1437.2,1957.4,1437.3z"/>
<g>
	<path d="M723.9,1441.7c9.1-3,17.1-8,24.4-14.1c7.5-6.4,13.5-14.2,20.6-21c5.7-5.4,12.6-10.4,16.3-17.6c4.7-9.2,0.1-16.6-7.7-21.9
		c-6.6-4.5-13.8-7.8-20.4-12.5c-9.5-6.8-18.5-14.8-25.5-24.3c-4.9-6.7-9.1-14.8-16.4-19.2c-6-3.6-12.4-3.4-18.5-1.5
		c0.3-1.4,0.6-2.8,0.9-4.2c3.5-17.1,13-32.8,12.9-50.7c0-0.2,0-0.4,0-0.6c4.3-1.5,8.6-3.1,12.8-5c1.5-0.6,2.6-1.8,3.3-3.1
		c2.2-1.5,3.8-3.9,3.8-7.4c0-15.8-0.5-31.6,5.4-46.6c5.4-13.9,13.5-26.6,16.6-41.3c0.1-0.7,0.2-1.4,0.2-2.1
		c2.1-3.1,3.7-6.5,4.7-10.1c9.2-33.9-46.2-41.6-68.1-44c-20.7-2.3-41.2-6.2-61.9-8.4c-21.3-2.3-42.7-2.9-64.1-3.2
		c-85.6-1.4-171.1-3.6-256.6-3.3c-40,0.1-80.2,4.3-119.8,8.8c-17.3,2-34.6,4.6-51.3,9.6c-15.4,4.6-32.8,11.2-44.2,23.1
		c-11.2,11.6-17.2,30-7.4,44.5c6.6,9.8,17.7,14.7,28.9,17.9c0.1,0.6,0.2,1.3,0.4,2c2.9,10.4,0.6,19.7-2.5,29.7
		c-1.8,6,2.2,10.2,6.9,11.2c1,0.3,2,0.6,3.2,0.6c1.4,0,2.8,0.1,4.2,0.1c-1.6,25.3,10.4,50.2,19.8,73c1.7,4.1,3.3,8.1,4.8,12.2
		c-0.7,0.4-1.3,0.9-1.9,1.6c-19.5,20.4-55,11.9-78.7,5.2c-6.3-1.8-11.1,3.1-11.8,9c-1.9,18,3.5,35.8,19,46.2
		c7.3,4.9,16.1,8,24.2,11.5c0,0.5,0.1,1,0.2,1.6c1.1,4.9,1.6,9.8,1.9,14.8c-9.6-1.3-20.1-2.7-26.1,6.6c-7.3,11.4-3,27.6,8,34.7
		c4.7,3,10.2,4.8,15.3,7.1c6.8,3.1,13.7,6.1,20.6,9.1c11.9,5.2,25,10,35.6,17.6c3.5,2.5,7,5.4,10.6,8.4c-4,15.5-10,30.5-12.6,46.4
		c-3,18.4-2.6,37,1.1,55.3c3.7,18.7,11.6,36.1,18.1,53.9c4.3,11.9,4.8,25.3,9.5,37.1c-3.1,1.5-6.1,3.1-9,4.8
		c-11.3,6.7-24.2,19.1-15.7,33.1c3.3,5.4,9.2,8.4,15.2,10.1c2,0.6,4.4,0.9,6.8,1.4c-0.4,1.1-0.8,2.2-1.2,3.3
		c-5.7,0-29.9-3.3-32.6,2.1c-6.7,13.5,0.5,26.9,6.3,39.3c6.3,13.5,5.3,28.8,10.9,42.6c-0.1,2.9,1.2,5.8,4.7,7.6
		c35.6,18.4,74.2,27.2,114.1,29.9c40.3,2.7,80.6-0.9,120.8-3.3c40.5-2.5,81.2-3.5,121.6-8.2c40-4.7,80.1-9.6,119.9-15.8
		c39.1-6.1,77.1-17.7,116.4-22.3c0.1,0,0.2,0,0.4-0.1c0.3,0,0.6,0.1,0.9,0.1c5.5,0,8.7-4.3,9.3-9.3c0.9-7.7,5-14.9,7.3-22.2
		c2.3-7.3,2.9-14.7,1.8-22.3c-0.6-4-1.5-7.9-2.5-11.8c-0.4-1.7-0.9-3.3-1.2-5c-0.1-0.5-0.7-3.4-0.7-3c-0.5-4.6-0.2-9.3-0.4-13.9
		c-0.4-10-1.9-23.2-13.7-25.7c-8.5-1.8-16.6,1.8-24.8,4.2c-4-12.6-6.1-25.8-6.5-39.1c-0.3-10.5-0.3-21.6,2.3-31.8
		c2.5-10,7-19.3,9.4-29.3c4.8-19.6-2.2-37.2-17.5-50c-1.8-1.5-3.7-3-5.5-4.4c8.7-18.3,16.9-45.3,2.2-61.9c-1.4-1.5-2.9-2.4-4.4-2.8
		c-2.8-2.6-6.1-4.7-8.9-6.9c-4-3-8.9-5.1-13.3-7.8c2-2.1,3-5,1.9-8.1c2.4-1.5,5-2.7,7.7-3.7C710.8,1445.4,717.5,1443.8,723.9,1441.7
		z M691.8,1372.3c0.4,0.4,0.8,0.7,1.3,1.1c5.3,4.2,13.2,6,17.7,10.9c1.4,1.5,1.4,0.5,0.8,1.9c-1,2.2-3.7,3.9-5.5,5.3
		c-2.7,2-5.5,3.7-8.3,5.3C696.4,1388.7,693.3,1380.7,691.8,1372.3z"/>
</g>
<path d="M2742.8,297.2c-8.5-17.3-9-35.8-12.1-54.5c-2.2-13.2-5.5-30.2-15-40.4c-7.9-8.6-19.9-9.3-30.8-8.5
	c-21.4,1.5-42.6,3.5-64,4.4c-31.2,1.4-62.5,1.7-93.7,1.7c-2.5-10.6-1.8-22.1-1.6-33c0.3-14,0.7-28.5-2.9-42.1
	c-3.7-13.7-12.3-24.6-25.6-29.9c-17.3-6.9-37.2-6.7-55.4-9.8c-8.6-1.5-17.3-3.5-25.4-7c-9.7-4.2-17.4-11-26.5-16.1
	c-17.4-9.9-38-12.5-57.7-12.6c-20.4-0.1-40.9,1.7-61.2,2.7c-12,0.6-24,1.6-35.8,4.2c-6.8,1.5-14,3.5-19.8,7.6
	c-15.1,10.8-12.8,32.3-12.6,48.5c0.3,25,1.7,50.4-2.4,75.2c-7.3-2.1-14.7-3.9-22.2-5.1c-15.2-2.4-30.2-1.9-45.5-1.5
	c-12.1,0.2-24.1,0.5-36.2,0.9c-29.9,1.1-60.2,2.9-89.5,8.9c-21.2,4.4-54.2,13-57.1,38.7c-0.2,0.8-0.3,1.7-0.2,2.6
	c0,1.5,0.3,2.8,0.8,3.9c2.3,10.1,1.6,20.7-0.8,30.7c-2.3,9.7-7.2,17.3-13.5,25c-10.2,12.3-22.7,25.9-22.3,43.1
	c0.6,23.5,25.9,33.3,45.4,37.4c4.6,1,9.3,1.8,14,2.4c0.1,0.2,0.1,0.3,0.2,0.5c48.1,111.9,111.7,221.8,124,345.1
	c3.4,34,2.6,68.3,0.7,102.4c-1.7,31-2.6,62.3-8,92.9c-4.6,25.7-10.6,55.1,3.5,79c11.7,19.7,33.8,25.3,55.2,26.2
	c33.1,1.4,66.6,0.1,99.7-0.5c33.7-0.7,67.4-1.8,101-3c58.3-2.1,116.7-3.6,175-6.8c35.7-2,79.6-5.6,106.8-31.8
	c16.3-15.7,19.6-36.9,18.1-58.7c-1.1-16.1-4.3-32.1-5.6-48.2c-1.3-16.1-0.1-32.2,2.2-48.1c19.5-132,48.5-263.5,49.7-397.5
	c0.1-14.6,0.1-29.1,0-43.7c12.5-2.7,25.1-5.8,37-10.2c13.4-5,24.9-13.6,26.3-28.8C2760.4,327.1,2749.7,311.2,2742.8,297.2z
	 M2454,199.7c-32.5,0-65-0.1-97.4-1.3c-29.8-1.1-60.1-7.3-90-6.1c1.9-7.6,3.6-15.2,4.9-22.9c1-6.2,1.8-12.5,2.2-18.8
	c0.3-5.5-0.2-11.2,0.6-16.6c1-7,3.1-11.5,8.7-13.9c5.5-2.3,14.4-2.1,21.1-1.8c47.2,2.3,84.6,37.5,132,40.1c2.4,0.1,4.8,0.2,7.1,0.3
	c2.5,0.2,2.7,0.4,3.8,0.5c0.3,0.7,1,2.2,1.2,2.7C2452.5,173.9,2454.5,187,2454,199.7z"/>
<path fill="#DADADA" d="M1970.5,1451.3c6.2-10.2,4.5-20.6,0.1-30.3c5.6,7.9,11.8,14.9,18.3,22.3c2.7,3.1,5.9,6.6,6.3,11.2
	c0.3,3.9-1.1,8.3-2.4,12c-4,10.7-10.8,20.3-17.9,28.5c-5.1,5.8-11.5,12.5-17.9,16.4c-8.6-9.9-16.5-20.2-23.8-31
	C1947.2,1474.1,1962.2,1465,1970.5,1451.3z"/>
<path fill="none" d="M887.6,1343c-3.4,3.7-4.3,5.3-0.6,9.2c5.4,5.7,14.4,6.1,22.2,4.2c-4.6-6.8-9.1-13.8-12.7-21.2
	C893.4,1337.7,890.3,1340.1,887.6,1343z"/>
<path fill="#DADADA" d="M1904.4,1278.1c4.1-0.9,9.7-2.4,13.5,0.3c3.5,2.4,5.1,8.4,6.4,12.5c3.8,12.1,7,24.6,10.2,36.9
	c6.5,25.8,13.1,50.8,24.8,74c-0.2-0.3-0.4-0.5-0.5-0.8c-5.3-8-11.1-15.7-16-24.1c-4.4-7.6-7.1-16.3-10.2-24.5
	c-6-15.8-14.4-37.4-32.6-36.3c-10.1,0.6-20.1,4.4-29.5,8.3c-5.5,2.3-11.3,4.8-16.8,7.8c-6.3-12.1-12.9-24.1-19.9-35.7
	C1857.5,1291.4,1880.7,1283.5,1904.4,1278.1z"/>
<path fill="#DADADA" d="M872.2,1221.1c-6.9-12.3-12.8-27.6-9.7-42.4c2.8-13.5,14.6-15.9,25.1-18.6c31.5-8,63.6-12.9,95.8-15.3
	c35.3-2.6,70.8-3,106.1-5.8c35.8-2.8,71.6-6,107.4-8.2c36.5-2.2,72.9-4.8,109.2-8.6c30.3-3.2,62.1-3.4,92,3.8
	c31,7.4,59.5,25,91.1,29.4c12,1.7,24.2,0.5,36.3,1.2c8.3,0.4,18.5,1.5,23.7,9.6c3.9,6,4.4,14.3,4.8,21.5c0.5,9.5,0.2,19-0.1,28.5
	c-0.5,15.6-1.1,31.7,1.7,47.1c-8.1-0.6-16.1-1.7-24.1-2.6c-10.4-1.2-20.6-1-31.1-0.8c-21.7,0.4-42.8-3.4-64.1-7.7
	c-42.2-8.4-84.6-15.9-127.3-19.3c-43.3-3.4-86-1.5-129,4.6c-43.9,6.3-87.9,12.2-131.8,18c-47.6,6.3-95.1,12.5-142.7,19.1
	c-0.8-8.8-3-16.9-9-23.5C887.8,1241.3,878.9,1233.2,872.2,1221.1z"/>
<path fill="#DADADA" d="M895.7,1393.6c-13,5.6-27.1,10.5-41.1,10.2c-5.2-0.1-10-1.1-13.9-3.7c-1.4-0.9-2.9-2.6-3.6-3.9
	c-1.5-2.6-2.2-4.6-2.7-8.4c-1.3-9.6,1.3-20.7,3.6-30.2c2.7-11.2,5.7-22.8,9.9-33.5c3.1-7.9,6.9-11.5,13.4-11.7
	c9.3-0.3,18.3,0.1,27.4-2.1c0.3,2.1,0.6,4.1,1.1,6.2c-6.2,5-12.8,9.7-17.6,16.4c-6.6,9.3-6.7,20.5-0.1,29.8
	c11.4,16,32.2,16.7,48.6,10.1c1.1,1.7,2.2,3.4,3.3,5.1C915.2,1384.4,905.4,1389.5,895.7,1393.6z"/>
<path fill="#B2B2B2" d="M1567.6,1492.4c-0.2,8.6-0.8,17.4-1.7,25.9c0,0.1,0,0.2,0,0.3c-3.3,1.9-5.5,5.7-4,10.8
	c0.5,1.9,1.1,3.7,1.6,5.6c-2.3,13.1-5.6,25.9-9.2,38.6c-10.7,37-25.3,72.4-35.6,109.5c-5.4,19.3-9.1,38.9-11.4,59
	c-1.3,10.9-2.2,21.9-3.3,32.9c-0.5,5.6-1.1,11.6-2.9,16.9c-1.1,3.3-2.6,5.5-5.6,7.4c-4.5,2.9-9.9,4-14.9,5.1
	c-17.8,3.8-36.5,1.8-54.3-1.5c-18.2-3.5-36.2-8.8-54.5-11.5c-17.7-2.6-35.6-2.9-53.4-2c-36.5,1.8-72.6,8.5-109,11.4
	c-35.5,2.9-71.2,1-106.3-5.2c-17.9-3.1-35.6-7.8-53.4-11.1c-18.6-3.4-37.2-6.3-55.6-10.3c-7-1.5-14-3.2-21-5.2
	c0.7-26.8-5.4-52.9-8.5-79.3c-3.6-30.6-4.6-61.6-5.7-92.4c-0.5-15.3-0.9-30.6-1.2-45.9c-0.3-14.9,0.8-30.3-1.8-45
	c-2.3-13.1-8.9-23-15.4-33.7c-3.9-6.4-9.4-16.5-7-23.3c-0.2,0.4,0.8-1.2,1.1-1.4c0.6-0.7,1-1,2.6-1.8c-0.5,0.3,2.6-0.7,3.4-0.9
	c-0.1,0,2.8-0.2,3.9-0.1c6.4,0.2,13.5,3.1,18.6,8.1c0.7,0.7,1.4,1.2,2.1,1.6c2.4,2.4,4.8,4.9,7.4,7.2c-0.6,0.9-1.1,2-1.3,3.3
	c-2.6,20.7,0.1,40,7.5,59.2c6.7,17.4,16.4,33,24.1,49.9c13.9,30.7,17.3,67.3,17.7,101.3c0.1,12.8,0.1,27.2-2.6,40.1
	c-5.5,7.5-8.2,17.3-3.7,26.5c4.5,9.2,14.4,13.5,23.4,12.9c27.1-1.8,40.7-38.9,45.7-64.4c3-15.2,3.3-30.9,4.1-46.4
	c0.8-15.3,1.4-30.7,0.8-46.1c-0.6-14.5-2.2-29.5-6.4-43.3c-4.2-13.8-11.3-25-19.2-36.3c-7.2-10.4-16.3-22.1-18-35.6
	c-2-15.9,5.6-32.1,7.7-47.5c2.3-16.7,0.6-34.3-1.8-50.8c-2.4-17-6.5-35.9-16.7-49.3c-10.9-14.2-27.3-13.7-40.4-3.5
	c-9.6,7.5-18,17.8-20.6,31c-2.3,11.6-0.3,23.4,3.1,34.4c3.3,10.7,7.8,20.8,10.5,31.7c1.8,7,2.6,14-0.1,20.3
	c-7.4-6.2-14.2-14.2-20.1-20.6c-5.8-6.3-10.5-11.9-12.7-20.8c-2.5-9.7-3.9-19.4-7.9-28.5c-11.7-26.8-46.2-52-38.3-85.4
	c85.4-11.8,170.9-22.5,256.3-34.6c21.9-3.1,43.7-6.5,65.7-7.9c21.2-1.4,42.5-1.3,63.7-0.2c43,2.3,85.7,9.2,128.1,17.5
	c23.5,4.6,46.9,9.9,70.9,10.5c12,0.3,23.9-0.8,36,0.4c10.8,1.1,21.5,2.8,32.4,3.2c0.3,19.2,1.7,38.3,2.5,57.5
	c0.5,10.7,0.7,21.5,0.5,32.3c-0.2,8.3-0.1,17.1-2.2,25.2c-3.6,13.7-10.9,26.2-13.1,40.4c-1.1,7.2-0.9,14.3,2.4,20.8
	c3.1,6.1,8.2,9.9,12.5,14.7C1567.4,1479.2,1567.8,1485,1567.6,1492.4z"/>
<path fill="#686868" d="M1002.8,1458.5c-0.5-0.1-1-0.3-1.5-0.4c5.7-13.4,3.9-28.2-0.9-42.9c-4.8-14.5-14.5-32.7-10.7-48.2
	c2-8.4,7.8-14.9,14.3-19.5c2.7-1.9,4-2.6,7-3.5c0.2-0.1,0.3-0.1,0.5-0.1c0.1,0,0.3,0,0.5-0.1c0.5-0.1,1.1,0,1.6,0c0.1,0,0.3,0,0.4,0
	c0.7,0.2,1.4,0.4,2.1,0.6c0,0,0.1,0,0.1,0c0.1,0,0.1,0.1,0.2,0.1c0.4,0.3,0.9,0.5,1.3,0.8c1.9,1.4,0.2-0.2,1.8,1.7
	c2.3,2.6,2.6,3.1,4.5,6.8c3.1,6,4.8,12.1,6.5,19.3c3.5,14.7,5,28.7,5.3,44c0.5,23.6-11.5,45.8-8.3,69.4c3.6,26.5,24.4,43,34.5,65.9
	c10.2,22.8,9.5,51,8.6,75.8c-1,30.3-0.8,62.3-14.9,89.2c-2.9,5.6-9.9,19.1-17.2,17.8c-10.4-1.9-0.9-37.8-0.6-46.2
	c0.6-18.9-0.6-37.8-2.7-56.5c-1.9-16.4-4.3-33.1-9.5-48.6c-6.2-18.7-15.8-35.4-24.4-52.8c-8.8-18-15.3-37-13.4-57.7
	c3.4,1.8,6.9,3.2,10.5,4C1009.1,1479.7,1013.8,1460.8,1002.8,1458.5z"/>
<path fill="#727272" d="M1949.5,1800.5c-29.3,19.9-64.3,16-95.6,4.7c-34.5-12.5-66.2-33.4-97-54.5c-68.5-46.8-134-104.6-166.4-189.7
	c-3.5-9.3-6.5-18.9-9.4-28.5c1.8-11.2,3.1-22.6,3.7-34.2c0.5-8.1,0.8-17-1.7-24.8c-2.5-7.5-7.3-12.8-12.5-17.9
	c-4.1-4-6.9-6.7-6.1-12.7c0.9-6.6,3.6-13.1,5.8-19.2c2.3-6,4.7-12,6.5-18.3c3.5,19.3,9.4,38,15.8,56.4c8.9,25.3,17.6,51,27.2,75.9
	c9.1,23.5,20.3,45.7,34.5,65.8c15.7,22.3,34.7,39,55.5,54.8c21.5,16.3,40.5,36.2,62.2,52.1c21.6,15.7,45,28,69.3,37.6
	c3.3,1.3,6.7,2.6,10,3.8c-2.7,0.7-5.5,1.2-8.4,1.6c-4.7,0.6-8.7,4.1-8.7,9.8c0,4.8,4,10.5,8.7,9.8c13-1.8,24.8-5.4,36.2-12.4
	c5.8,1.6,11.6,3,17.4,4.2c-2.8,2.3-5.9,4-9.3,4.2c-11.2,0.8-11.3,20.4,0,19.7c12.3-0.8,20.5-8.8,29.5-17.3c0.9-0.8,1.5-1.8,1.9-2.9
	c6.4,0.8,12.9,1.3,19.3,1.6c13.8,0.5,28.6-0.2,41.4-6.5C1973.9,1778,1964.1,1790.6,1949.5,1800.5z"/>
<path fill="#DADADA" d="M1602.9,1353.8c10-2.8,17.4-10.7,18.3-22.6c2.1-27.8-26.1-27.2-43.2-28.3c-0.1-3-0.3-6.1-0.4-9.1
	c17.6-4.8,35.3-12,53.6-10.9c5.8,0.3,12.7,1.7,16.8,6.9c3.3,4.2,4.5,10.2,5.2,15.7c1.8,14.3,2.3,30.4,1.2,44.7
	c-1.1,13.3-7.3,19.4-19.5,20.2c-18.4,1.1-36.1-7.1-54.4-5.7c0-2.4,0-4.9-0.1-7.3C1587,1355,1595.3,1355.9,1602.9,1353.8z"/>
<path fill="#686868" d="M1579.7,1337.3c-0.2-4.9-0.5-9.8-0.7-14.7c5.6,0.2,11.3-0.1,16.9,1c2.4,0.5,5.9,1.2,7.3,2.9
	c0.3,0.4,0.8,2.7,0.4,4.7c-0.3,1.5,0.2,0.5-0.7,1.5c-0.7,0.7-0.9,0.9-2.3,1.5c-1.4,0.6-4.8,1.3-6.7,1.6
	C1589.2,1336.4,1584.4,1336.4,1579.7,1337.3z"/>
<path fill="#575756" d="M1981.4,1726.1c1,5.4,0.7,9.6-1.1,12.9c-0.4,0.8-0.4,0.9-0.4,0.9c-0.1,0.1-0.2,0.2-0.6,0.7
	c-0.2,0.3-1.9,2-1.8,2c-0.8,0.7-1.6,1.3-2.5,1.8c-0.6,0.4-3,1.7-2.8,1.6c-10.7,4.9-22,5-33.7,4.6c-19.2-0.6-38.4-4.2-57.5-9.6
	c-0.8-0.4-1.6-0.6-2.5-0.7c-8.6-2.5-17.2-5.4-25.7-8.5c-22.9-8.5-45.1-19.6-65.7-33.8c-20.5-14.2-38.1-32.2-57.5-48
	c-9.7-7.8-19.8-14.9-29.3-22.9c-9.2-7.7-17.5-16.7-25.1-26.2c-13.8-17.3-24.9-37-34-57.9c-10.9-25.1-19.3-51.8-28.6-77.8
	c-9.3-26-18.8-53.1-21.1-81.2c5.3,0.5,10.7,1.7,15.9,2.7c11,2.2,22.1,4.2,33.3,2.4c15.9-2.5,27.6-13.5,30.3-31.7
	c2.5-17.1,1.4-36.3-0.5-53.4c-2.1-18.5-9.8-33.9-26.7-39c-22.1-6.7-45.3,2.2-67,8.5c-0.3-0.8-0.6-1.4-1-2c0-0.9-0.2-1.9-0.5-2.9
	c-0.1-0.3-0.2-0.6-0.3-0.9c4.2-15.2,12.1-28.3,25.7-34.9c13.9-6.8,30.2-5.9,44.6-2.3c38.8,9.8,67,39.6,90.2,74.5
	c29.1,43.8,55.4,90.3,78.6,138.4c11.2,23.2,22,46.7,34.2,69.4c11.8,22,24.8,46,42.8,62.2c17.1,15.3,36.5,25.7,50.2,45.5
	c13.1,19,23.4,41.5,32.9,63c4.8,11,8.2,22.2,9.8,33.1C1981.9,1718.9,1980.6,1722.1,1981.4,1726.1z"/>
<path fill="#B2B2B2" d="M2024.9,1690.7c-6.6,8.6-14.8,15.4-21.9,23.5c-4.9-24.4-16.4-46.9-27.1-68.6c-11.6-23.4-24.2-45.7-43.4-62
	c-9.2-7.8-19.4-14.1-28.6-22.1c-9.4-8.1-16.6-18.5-23.5-29.3c-14.7-23.2-27-48.1-39-73.2c-24.7-51.6-51.1-101.7-81.4-149.4
	c-24.8-39.1-52.6-75.9-94-92.6c-14.2-5.7-30-9.1-45.3-8.3c7.9-6.3,16.1-12,24.8-16.9c21.6-12.1,49.3-18.8,72.3-7.2
	c22.4,11.2,37.7,35.9,53.4,56c19.8,25.4,40.3,50.4,56.8,78.8c15.5,26.6,27.8,55.2,40.7,83.4c13.3,28.9,27.7,56.9,44.9,83.1
	c8.6,13.1,17.8,25.9,28.1,37.5c9.7,10.9,20.5,20.3,30.4,30.9c9.2,9.9,17.8,20.6,24.7,32.6c6.2,10.8,10.5,22.7,15.8,34
	c5.6,12,11.5,24,15.2,36.9C2031.2,1669.5,2032.5,1680.8,2024.9,1690.7z"/>
<path d="M1194.5,1397.8c-5.4-24.8-13.5-51.6-28.5-71.3c-7.2-9.4-16.8-16.3-27.9-17.6c-12.6-1.5-25.8,5.3-34.8,14.7
	c-20.1,21.1-11.8,53.7-3.9,79.1c0.2,3.7,0.5,7.3,1,11c2.5,20.3,9.5,38.2,15.8,57.2c11.8,35.3,16.5,70.8,10.9,108.1
	c-5.3,34.8-14.7,70.6-7.7,106c4.5,22.7,26.5,71.7,53.2,50.3c21.6-17.3,21.2-51.7,21.9-78c0.6-22,2.3-44,1.9-66.1
	c-0.4-21.7-0.5-43,0.8-64.7C1199.8,1483.6,1203.6,1440.1,1194.5,1397.8z"/>
<path fill="#686868" d="M1183.7,1510.6c-0.8,42.9-3.7,86.1-6.1,128.6c-0.9,15.4-1,84-23.9,77.2c-19.9-5.9-20.9-56.2-19.9-72.6
	c2.1-34.3,13.7-67.4,13.4-102c-0.3-43.9-20.7-83.1-27.2-125.8c-3-19.4-0.4-44.7-1-64.5c-1.1-38.9,31.4-18.4,43,2
	c17.2,30.3,20.6,72.5,21.5,107.5C1184,1477.5,1184,1494,1183.7,1510.6z"/>
<path d="M1335.6,1627.2c-3.8-17.6-5.6-35.5-6.9-53.5c-2.8-37.4-3-75-3.1-112.5c0-16.3,0.4-32.5,1-48.8c0.6-15.8,0.9-31.7-1.4-47.5
	c-1.9-13.4-6.1-26.5-16-34.9c-7.7-6.5-17.5-9.4-27.1-8.4c-41.6,4.6-27,53.3-30.1,84.3c-1.9,18.5-1.5,36.5-0.9,55.1
	c1.2,36.7,1.7,73.5,0.2,110.1c-1.3,31.5-2.9,63.9,4.9,94.6c6.4,25.4,20.4,58.9,46.8,62.5c25.5,3.5,39.2-25.1,40.2-49.9
	C1343.8,1660.9,1339.2,1643.9,1335.6,1627.2z"/>
<path fill="#686868" d="M1305.2,1709.6c-3.9-1.1-8.5-4.1-14-9.6c-35.5-35.4-22.2-112.4-21.5-158.4c0.5-32.9-1.3-65.7-1.5-98.6
	c-0.1-18.9,3.7-37.4,5.1-56.2c0.9-12.3-4.6-36.4,3.5-44.1c12.9-12.3,22.6,3.5,26.9,15.4c11.5,31.9,4.6,72.3,4.5,105.8
	c-0.1,59,0.6,118.3,12.3,176C1324,1657.7,1327.2,1715.7,1305.2,1709.6z"/>
<path d="M1491.9,1401.2c4.2-12.7,7.9-25.6,8.7-39.2c1.9-32-12.3-43.1-39.6-37.3c-103,21.8-52.7,204.2-51,279.8
	c0.7,30.7-10.1,74.7-0.7,103.8c9.3,28.9,38.8,31.3,55.7,9c29.8-39.3,11.1-132.3,10.4-178.4c-0.5-36.2-2.4-73.4,7.2-108.4
	C1485.2,1420.6,1488.7,1410.9,1491.9,1401.2z"/>
<path fill="#686868" d="M1463,1438.2c-1.7,7.1-3,14.3-3.8,21.8c-2.8,29-1.8,58.6-1,87.7c0.8,28.5,1.7,57,2.2,85.6
	c0.3,21,5.3,56.1-10.2,72.3c-20.4,21.3-25.9-7.8-25.2-26.4c1.1-29.7,3.3-58.8,2-88.6c-2.7-63.2-32.2-154.1,0.2-212.3
	c15.9-28.6,66.3-56.7,52.7,1.2C1475.2,1399.8,1467.8,1418.4,1463,1438.2z"/>
<path d="M990.9,1174c-3.5-3.6-8.9-3.9-12.4,0l-7,7.9c-3.2,3.6-3.5,10.3,0,13.9c3.5,3.6,8.9,3.9,12.4,0c2.3-2.6,4.7-5.2,7-7.9
	C994.1,1184.3,994.4,1177.6,990.9,1174z"/>
<path d="M1020.5,1182.3c-8.7,6.3-17.6,12.4-24.5,21.2c-7.4,9.5,4.9,23.4,12.4,13.9c5.9-7.6,13.4-12.7,21-18.1
	C1038.8,1192.4,1030,1175.4,1020.5,1182.3z"/>
<path d="M1219.9,1292.4c-4-2.4-9.8-1.4-12,3.5c-1.1,2.4-2.2,4.7-3.6,6.9c0,0.1-0.4,0.6-0.6,0.9c-0.2,0.3-0.6,0.8-0.6,0.8
	c-0.8,1.1-1.7,2.1-2.6,3.2c-3.2,3.7-3.5,10.3,0,13.9c3.5,3.6,8.9,3.9,12.4,0c4-4.6,7.5-9.9,10.1-15.7
	C1225.1,1301.2,1224.2,1295,1219.9,1292.4z"/>
<path d="M1235.2,1331.3c-2.4-4.5-7.9-6.3-12-3.5c-7.1,4.8-12.5,11.6-17.1,19.3c-2.6,4.3-0.9,11.1,3.1,13.4c4.4,2.6,9.2,1,12-3.5
	c2.8-4.6,6.6-9.3,10.8-12.2C1236.1,1342,1237.6,1335.9,1235.2,1331.3z"/>
<path d="M1248.4,1758.2c-1.2-4.4-1.2-8,0-12.5c1.4-5.1-1.6-10.7-6.1-12.1c-4.7-1.4-9.4,1.8-10.8,6.9c-2,7.6-2.1,15.4,0,22.9
	c1.4,5.1,6.1,8.3,10.8,6.9C1246.7,1768.9,1249.7,1763.3,1248.4,1758.2z"/>
<path d="M1203.2,1721.5v27.5c0,12.6,17.5,12.7,17.5,0v-27.5C1220.7,1708.9,1203.2,1708.9,1203.2,1721.5z"/>
<path d="M1395.2,1764.1c-1.5-6.3-2-12.5-1.4-19c0.5-5.3-4.4-9.8-8.7-9.8c-5.1,0-8.2,4.5-8.7,9.8c-0.8,8.1,0.2,16.4,2.1,24.2
	C1381.2,1781.6,1398,1776.4,1395.2,1764.1z"/>
<path d="M1371.5,1713.2c-3.2-3.3-9.3-4.2-12.4,0c-4.7,6.4-7.5,13.1-8.4,21.4c-0.6,5.1,4.4,10,8.7,9.8c5.2-0.3,8.1-4.3,8.7-9.8
	c-0.2,2,0.5-1.6,0.5-2c0.1-0.3,0.1-0.5,0.1-0.6c0.1-0.1,0.1-0.3,0.3-0.5c0.4-0.8,0.8-1.7,1.2-2.5c0.3-0.5,0.6-1.1,0.9-1.6
	c-0.5,0.7-0.5,0.6,0.2-0.3C1374.4,1723.1,1375.2,1717,1371.5,1713.2z"/>
<path d="M1066.9,1311.9c-5.1,0-8.2,4.5-8.7,9.8c-0.5,5.2-1.5,11.2-1.2,17c0.3,5.3,3.8,9.8,8.7,9.8c4.5,0,9.1-4.5,8.7-9.8
	c-0.4-6.1,0.6-11.1,1.2-17C1076.2,1316.4,1071.3,1311.9,1066.9,1311.9z"/>
<path d="M1517.7,1179.5c-4.3-2.6-9.3-1.1-12,3.5c-0.4,0.6-0.7,1.2-1.1,1.9c0,0,0,0,0,0c0,0-0.1,0.1-0.1,0.1c-0.9,1-1.8,2.2-2.7,3.2
	c-0.9,0.9-1.7,1.8-2.7,2.7c-0.4,0.4-0.8,0.7-1.2,1.1c-0.1,0.1-0.2,0.1-0.2,0.2c-0.1,0.1-0.3,0.2-0.5,0.4c-3.6,3.1-5.9,8.6-3.1,13.4
	c2.3,4,8.1,6.8,12,3.5c5.7-4.8,10.9-9.8,14.8-16.6C1523.3,1188.6,1521.8,1181.9,1517.7,1179.5z"/>
<path d="M1522.9,1204.4c-8.2,5.9-14.8,14.3-23.3,19.7c-9.8,6.2-1,23.2,8.8,17c8.6-5.4,15.1-13.7,23.3-19.7
	C1541.1,1214.6,1532.4,1197.6,1522.9,1204.4z"/>
<path d="M1894.9,1626c-2.2-4.2-8.2-6.8-12-3.5c-3.7,3.2-8.1,4.9-11.9,5.2c-4.7,0.4-8.7,4.2-8.7,9.8c0,5,4,10.2,8.7,9.8
	c7.3-0.6,14.8-2.8,20.7-7.9C1895.5,1636.3,1897.5,1631,1894.9,1626z"/>
<path d="M1904,1655.9c-1.4-5.6-6.1-7.7-10.8-6.9c-5,0.9-10.1,1.5-15.2,2.6c-4.6,1.1-7.3,7.2-6.1,12.1c1.3,5.4,6.1,7.9,10.8,6.9
	c5-1.2,10.1-1.7,15.2-2.6C1902.5,1667.2,1905.1,1660.6,1904,1655.9z"/>
<path d="M1708.5,1189.6c-2.7-4.8-7.5-5.9-12-3.5c-4.7,2.5-8.9,6.3-12.3,10.7c-3,3.9-3.7,10.1,0,13.9c3.3,3.4,9.2,4.2,12.4,0
	c0.7-0.9,1.3-1.7,2.1-2.5c0.4-0.4,0.8-0.9,1.2-1.3c0.1-0.1,0.3-0.3,0.6-0.6c0.2-0.2,0.5-0.4,0.5-0.5c0.5-0.4,0.9-0.7,1.4-1
	c1-0.7,1.9-1.2,2.9-1.8C1709.5,1200.8,1710.9,1193.8,1708.5,1189.6z"/>
<path d="M1728,1210.3c-1.4-4.9-6.1-8.6-10.8-6.9c-5.5,2-10.5,5.4-14.3,10.4c-3,3.9-3.7,10.1,0,13.9c3.3,3.4,9.2,4.2,12.4,0
	c0.6-0.8,1.3-1.6,2-2.4c0.3-0.3,0.5-0.5,0.8-0.8c0.1,0,0.1-0.1,0.2-0.1c0.7-0.5,1.4-1,2.2-1.4c0.2-0.1,1.3-0.6,1.1-0.5
	c0.2-0.1,0.3-0.1,0.4-0.1C1726.2,1220.8,1729.5,1215.5,1728,1210.3z"/>
<path fill="#DADADA" d="M596.9,1247.9c-41,0-82.1-0.7-123.1,1c-19.5,0.8-40.2,6.4-59.6,2.5c-18-3.6-34.5-11.9-52.8-14.2
	c-20.3-2.5-40.9,1.1-61.3-0.3c-20.6-1.4-41.4-3.3-62-6c-20.7-2.7-41.3-6.7-61.5-11.7c-15.1-3.7-30.1-8.6-45.6-10.3
	c1.4-7,2-13.9,1.1-21c34.7,6.8,70.2,9.3,104.7,17.5c11.6,2.8,16.6-15.1,4.9-17.9c-38.7-9.3-78.8-11-117.6-20.3
	c-11-2.6-31.5-7.6-26.4-23.3c4.8-14.7,23.3-21.9,36.6-26.4c30.8-10.4,64-12,96.1-15.1c38.2-3.6,76.2-4.5,114.6-4.4
	c78.7,0.2,157.4,1.5,236,3.6c37.6,1,74.3,7,111.5,11.7c13.1,1.7,27.5,4.2,39.1,10.8c3.2,1.8,8,4.5,7.5,8.7
	c-0.5,4.8-5.6,9.3-8.8,12.4c-9.7,9.3-20.7,16.4-33.8,19.8c-16.5,4.4-34,5.4-51,6.4c-19.3,1.1-98.2,6.4-118.1,4.5
	c-13.6-1.3-13.6,11.1,0,12.4c10.3,1,20.7,0.8,31.1,1.2c41.8,1.8,83.6,2.6,125.1-3.2c14-1.9,27.3-5.5,39.4-12.5
	c-2.3,4.9-4.6,9.9-6.4,15c-5.1,14.4-5.3,29.8-5.3,44.9C676.1,1248.9,634.9,1247.9,596.9,1247.9z"/>
<path fill="#DADADA" d="M688.6,1435.1c2.2-5.5,5-10.7,7.1-16.2c1.3-0.1,2.6-0.6,4-1.5c11.8-7.9,33-16.7,30.5-34.2
	c-1.4-10.1-10.2-15.8-18.5-20.1c-9.2-4.8-14.4-11.5-19.8-20.3c-0.2-0.2-0.3-0.5-0.5-0.7c0.4-3.8,0.9-7.6,1.4-11.3
	c1.4,0,2.9-0.4,4.4-1.3c2.6-1.5,6.3-3.8,8.6-2.5c2.8,1.5,5,5.7,6.8,8.2c6.7,9.7,14.1,18.4,23.1,26c7,5.9,14.5,11.7,22.5,16.1
	c2.9,1.6,6,3.1,8.8,5c-2.6,1.9-5.2,5.6-7.5,7.6c-2.4,2.1-4.7,4.2-6.9,6.6c-6.6,7.1-12.9,14.8-20.9,20.5
	c-10.5,7.5-22.9,9.1-34.6,13.8C694.5,1431.9,691.5,1433.4,688.6,1435.1z"/>
<path fill="#DADADA" d="M186,1769.2c8,5.5,18.7,8.7,27.9,11.5c11.7,3.6,23.6,6,35.7,7.7c46.1,6.4,93.4,8.7,139.9,9.5
	c47.1,0.7,93.4-2.9,140.1-8.6c43-5.2,86.2-9.3,128.9-16.8c33.3-5.8,67.5-16.2,87.8-45.2c1.8-2.6,2-5.1,1.2-7.3c0-1.5-0.4-3-1.2-4.6
	c-0.9-1.5-1.7-3.1-2.4-4.7c4.5-1.3,9.5-2.7,12.1-3.2c0.2,1.5,0.6,3,0.7,4.6c0.3,4.3,0.3,8.6,0.4,12.9c0.3,10.7,5.3,20.7,5.2,31.3
	c0,6.5-2.7,12.6-5,18.6c-1.2,3.3-2.3,6.5-3.1,9.8c-41.1,5.5-81.1,17.1-122.1,23.3c-39,5.8-78.2,11-117.4,15.1
	c-39.6,4.1-79.5,5.1-119.2,7.6c-72.7,4.7-147.9,10.3-215.1-22.9c-5.7-12.1-4.1-26.3-9.2-38.7c-2.1-5.1-4.7-9.9-6.8-14.9
	c-0.6-1.4-1.5-3.5-2.2-5.6c4.1,0.5,8.2,0.6,12.3,0.7C174.8,1757.3,179,1764.4,186,1769.2z"/>
<path fill="#B2B2B2" d="M183.6,1698.5c4.3-2.5,8.8-4.6,13.2-6.7c0.7,5.6,3.1,11.1,7,16.1c7.5,9.7,18.3,16.2,28.5,22.7
	c3.9,2.5,7.7,1.6,10.3-0.8c2.9-1.9,4.7-5.3,3.3-9.7c-2.7-8.5,0.5-17,4.1-24.8c4.2-8.9,9.3-17.3,12.9-26.5c6.9-17.7,9-39.6,3.4-57.8
	c-2.7-8.9-7-17.2-9.5-26.2c-2.4-8.4-3.8-16.9-4.2-25.7c-1-21.4,4.3-42.1,4.7-63.4c0.3-18.6-0.7-37.2,0.7-55.7
	c1.6,0.6,3.2,0.7,4.7,0.5c4.5-0.2,9-3.2,9.4-8.9c0.9-11.5,4.8-22.5,8.3-33.4c0.1-0.4,0.2-0.9,0.3-1.3c3.6-4.7,3.1-12.9-4.3-15.1
	c-1.9-0.5-3.9-1.1-6.1-1.7c4.5-28.8,10.2-58.1,3-86.9c0.5-3.2-0.8-6.4-4.6-8.3c-13.3-6.5-29.3-10.3-44.2-9.8
	c-6.1,0.2-10.5,5.8-9,11.8c7.3,29.1,8.1,59.1,8.2,89c-10.9,1.8-20,6.8-23.9,17.1c-6.2-2.3-12.2-4.8-18.2-7.6c0-0.3,0-0.6,0-0.9
	c-0.1-30-6.6-58.7-18-86.4c-8.8-21.4-21.1-44.9-20.6-68.7c14.2,3,28.2,7.7,42.2,10.8c23.3,5.1,46.8,8.9,70.6,11.3
	c20.9,2.1,42,4.8,63,4.2c20.4-0.6,39.6-1.9,59.3,4.3c18.6,5.8,35.8,11.9,55.7,10.8c9.9-0.5,19.6-2.1,29.5-2.9
	c10.7-0.9,21.5-1,32.2-1.3c40.4-0.9,80.9,0.1,121.3-0.4c24.9-0.3,50.4-1.5,74.7-7c-1,8.3-4.3,16.4-7,24.2
	c-3.7,10.4-5.9,20.8-7.7,31.7c-3.4,20-6.7,40.7-3.3,61c1.5,8.9,6.4,17.5,6.7,26.4c0.3,7-3.4,13.3-6.2,19.5
	c-6.6,14.5-12.3,30.6-0.4,44c6,6.8,14.2,10.1,21.6,14.9c2.4,1.6,4.2,3,6.4,4.8c0.7,0.6,1.4,1.2,2.1,1.8c0.8,2.4,2.8,4.3,6,5.1
	c2.2,5.1,0.8,12.6-0.2,17.4c-1.3,6-3.1,12-5.5,17.7c-0.6-0.5-1.2-0.9-1.8-1.4c-8.3-6.6-16.6-13.3-25.9-18.4
	c-10.5-5.8-19.8,10.2-9.4,16c8.9,4.9,16.8,11.2,24.7,17.5c7.2,5.8,15.3,10.8,22.1,16.9c5.7,5.1,10.9,11.6,11.8,19.5
	c1,8.9-3.4,18.5-6.3,26.7c-13.1,36.9-8.8,81.4,9.1,116.3c-20.4,26-57.9,31.3-88.5,36.1c-41.3,6.4-82.8,10.2-124.3,15.6
	c-43.8,5.7-87.8,7.6-131.9,6.7c-42.9-0.9-86.6-3-129.2-8.7c-18.2-2.4-36.8-6.7-53.6-14.3c-6.1-2.7-8.8-5.3-7.1-12
	c1.8-7,4.8-13.6,7.2-20.4c1.2-3.6-0.8-8.8-4.3-10.5c-4.7-2.3-9.5-3.1-14.5-4.2c-1.4-0.3-7.9-1.1-8.4-2.7
	C173.1,1704.4,182.2,1699.3,183.6,1698.5z"/>
<path fill="#686868" d="M255.9,1299.5c5.9,25.4,0.5,51.6-3.5,77c-3.3-0.5-6.6-0.9-9.9-1.1c-0.1-27.1-0.9-54.4-6.1-81
	C243.1,1295.2,249.8,1296.9,255.9,1299.5z"/>
<path fill="#686868" d="M234.9,1569.1c1.1,8.9,2.9,17.5,5.7,26c3,9.1,7.7,17.6,9.4,27.1c3.4,18.3-2.1,36.9-10.5,53
	c-4.9,9.4-10.3,19.5-12.3,30c-8.5-6.4-15.4-14.4-9.9-24.2c3.5-2.2,6.8-4.5,10-7.2c9.8-8.3,16-19.6,19.9-31.7
	c3.7-11.4-14.3-16.3-17.9-4.9c-1,3.2-2.3,6.2-3.7,9c-9.1-20.8-22.1-40.8-23.9-63.4c-2.2-28.1,14-53.8,14.8-81.8
	c6.3-9.4,4.8-27.7,5.6-37.6c0.8-9.1-0.1-27.2,10-32c2.8-1.3,5.9-1.5,8.8-0.9c-0.5,1.1-0.8,2.4-1,3.7c-2.5,24,0.3,48.1-1.8,72
	C236.4,1527.3,232.3,1547.8,234.9,1569.1z"/>
<path fill="#B2B2B2" d="M172.7,1532.3c2.3-11.7,6.3-23,9.7-34.5c4.8,3.3,9.9,6,15.3,7.7c-2.3,26.8-17.3,51.6-14.4,79.3
	c2.9,28.2,19.8,51.2,28.8,77.4c-1.6,1.2-3.3,2.4-5.1,3.5c-2.5,1.5-5,2.9-7.6,4.2c-1.5-4.2-2.3-8.7-3.1-13.2
	c-1.3-7.5-3-14.6-5.6-21.8c-6.1-16.7-13.5-33.1-17.2-50.6C169.7,1567.4,169.3,1549.4,172.7,1532.3z"/>
<path fill="#DADADA" d="M145.7,1395.4c-16.3-13-33.6-24.7-52.4-33.2c-6.6-3-12.5-6.6-15.6-13.4c-1.3-2.9-2-5.9-2.4-9
	c26.8,6.4,58.5,9.2,80.3-8.4c4.1,14.5,6.7,29.4,7.4,44.7c-11.2-6.1-22.1-12.7-32.8-19.2c-10.2-6.3-17.1,4.8-6.9,11.1
	c25.8,15.9,49.3,37,79,45.5c2,0.6,3.8,0.5,5.3,0c4.4-0.3,8.7-3.2,8.9-8.9c0.1-5,1.5-7.1,5.5-9c3.6-1.7,9.8-2.1,14.9-2
	c8.3,0.2,16.5,1.6,24.6,3.6c-2.1,6.5-4,12.9-5.5,19.4c-6.1-3.2-12.9-5.2-19.9-4.8c-11.8,0.7-21.6,7.6-26.5,18.4
	c-5.2,11.7-5.7,25.8-6.5,38.4c-0.3,4.4-0.1,8.9-0.3,13.3c-0.1,1.8-0.1,3.7-0.4,5.5c0,0,0,0.1-0.1,0.2c0,0,0,0,0,0v0
	c-3.5-1.4-6.7-3.7-9.8-5.8c-2.1-1.4-4.1-2.8-6-4.3c-1-4.9-5.7-7.9-10.1-7.8c-1.3-1.1-2.7-2.1-4-3.2c-18.5-14.5-41.1-21.9-62.3-31.6
	c-4.8-2.2-10-4-14.6-6.5c-4.1-2.3-3.1-3.6-3.9-7.8c-0.1-0.4,0-0.7,0.1-1c0.9,0,2.4,0,3.2,0.1c4.5,0.4,8.9,1.3,13.4,1.7
	c3.6,0.3,6.1-1.2,7.5-3.4c3.2-1.2,5.6-3.9,5.5-8.3c-0.1-4.5-0.3-9.1-0.7-13.6c4.6,2.7,9.1,5.7,13.3,9c3.9,3.1,9.3,3.9,13.1,0
	C150.2,1401.5,149.7,1398.6,145.7,1395.4z"/>
<path d="M124.8,1137c0.2,6.2,4.9,10.7,9.9,13.6c12.2,7,27.6,9.5,41.2,12.3c20.1,4.2,40.4,7.2,60.7,10.1c41.7,5.8,83.1,9.7,125.2,9.4
	c21-0.1,41.9-0.5,62.9-0.5c19.4-0.1,40.4,2.8,59.2-2.8c19.4-5.8,36.3-11.3,56.9-11.8c18.4-0.4,37.9,1.5,55.7,0.2
	c19.7-1.4,39.3-4.1,58.8-7.1c9.8-1.5,19.5-3.4,29.3-4.5c10.6-1.2,46.3-6.5,33.2-24.4c-6.5-8.9-27.5-10.3-37.5-11.8
	c-20.4-3-40.7-3.1-61.2-3.8c-20.7-0.7-41.1-4-61.8-5.4c-21-1.5-42.1-2.1-63.2-3.6c-20.3-1.4-40.6-3.6-60.9-4.5
	c-41.3-1.9-82.7-1.2-124,0.3c-20.1,0.7-40.3,1.8-60.4,2.6c-19.5,0.8-39,1.2-58.4,3.4c-18.2,2.1-39.2,4.6-55.5,13.7
	C129.4,1125.6,124.6,1130.4,124.8,1137z"/>
<path fill="#575756" d="M149.7,1137.1c-0.4-0.1-0.7-0.3-1.1-0.4c0.6-0.2,1.1-0.4,1.7-0.6c4.2-1.5,8.5-2.7,12.8-3.7
	c8.6-2.2,17.3-3.7,26.1-4.7c17.9-2.1,36-2.6,54-3.3c77.2-3,154.5-7.6,231.7-0.3c39.5,3.7,79.1,4.1,118.5,8.8
	c19.5,2.3,39.2,1.9,58.8,2.6c9.1,0.4,18.2,1.6,27.2,2.9c-2.1,0.2-4.1,0.4-6,0.7c-10.7,1.7-21.3,3.4-32,5c-21.1,3.1-42.2,5.5-63.5,6
	c-21.5,0.5-43.3-0.9-64.7,1.6c-17.5,2.1-33.1,12.1-50.8,12.1c-39.5-0.1-79,0.5-118.5,0.3c-40.2-0.3-80.2-5.6-119.9-11.4
	c-18.7-2.7-37.3-6.1-55.7-10.4C161.9,1140.8,155.7,1139.2,149.7,1137.1z"/>
<path d="M591.3,1489.9c2.1,7.6,0.2,16.4-0.9,24c-2.8,19-3.7,38.7-2.1,57.8c1.6,19.7,8.5,38.4,12.8,57.6c2.1,9.4,3.3,18.9,5.9,28.1
	c2.6,9.1,5.7,18,7.9,27.2c3.9,17.1,2.5,34.2,11.5,50c1.9,3.3,6.8,5.8,10.5,4.3c11.3-4.7,25.3-5.4,34-15c11.2-12.4,7.8-32.2,3.5-46.6
	c-2.4-8-5.5-15.8-7.5-23.9c-2-7.8-3.5-15.7-5.7-23.4c-4.5-16.2-10.2-32.1-14.6-48.3c-4.5-16.3-8.2-33.3-7.1-50.3
	c0.9-15.5,8.6-31.1,6.9-46.6c-1.5-13.2-12.6-24.7-10.1-38.4c1.4-7.9,5.5-15,7.9-22.6c2.3-7.3,2.9-15,2.3-22.5
	c-0.7-8.3-2.2-16.5-2.4-24.9c-0.2-8.4,0.4-16.9,1.4-25.2c1.3-11.4,3.1-22.7,4.3-34c0.5-0.9,0.9-1.9,1.1-3.1c1.2-6.9,3.7-14.1,1.1-21
	c-3.1-8-12.3-11.3-20.4-10.6c-9.2,0.7-16.3,6.7-22.8,12.7c-6.7,6.2-11.5,13.7-13.9,22.6c-4.4,16.2-1.7,33.9-0.8,50.4
	c0.5,9.9,0.8,20-0.5,29.9c-1.2,9.2-4.2,18.1-7.1,26.9c-2.8,8.7-6,17.6-6.9,26.8c-0.7,7.7,1.2,15,4.4,21.9
	C586.2,1479.1,589.7,1484.2,591.3,1489.9z"/>
<path fill="#686868" d="M600.2,1442.7c4.6-16.5,10.8-32,12.2-49.3c1.4-16.8-0.9-33.7-1.3-50.5c-0.4-13.2,0.6-25.1,10.7-34.5
	c2.5-2.3,5.1-5.2,8.3-6.5c0.9-0.4,1.6-0.5,2.3-0.5c-0.8,17.9-4.1,35.5-5.9,53.3c-1,9.5-1.4,19-0.6,28.5c0.7,8,2.4,15.9,2.3,23.9
	c-0.1,15.5-11,28.4-10.9,44.1c0.1,8.1,2.9,15.4,6.1,22.7c1.9,4.3,4.2,8.8,4.6,13.6c0.5,7-2.3,14.2-3.8,20.9
	c-1.7,7.6-2.9,15.3-3.4,23.1c-1,16.8,2.2,33.8,6.4,50c4.1,15.9,9.5,31.5,14.2,47.3c4.5,15.2,7.4,30.7,12.5,45.8
	c2.6,7.7,5.3,15.5,5.8,23.7c0.2,4,0.5,9.3-2,12.8c-2.3,3.2-7.1,4.4-10.8,5.4c-2.6,0.7-5.1,1.5-7.7,2.2c-5-13.9-4-29.9-7.9-44.1
	c-2.4-8.8-5.4-17.4-7.7-26.2c-2.5-9.7-3.7-19.6-6-29.3c-4-16.3-9.9-32.4-11-49.3c-1-16.3-0.9-33.4,1.5-49.5
	c2.2-15.5,4.2-29.6-2.6-44.2c-2.2-4.8-5.2-9.3-6.7-14.3C596.9,1455,598.5,1449,600.2,1442.7z"/>
<path d="M492.8,1512.3c3.5,17,8.2,33.8,10.9,51c2.7,16.8,2.3,33.9,5.8,50.6c3.7,17.3,6.4,34.5,8.1,52.1c1.6,16.5,3.3,33.1,6,49.5
	c1.7,10.3,2.4,28.8,15.3,31.7c12.1,2.8,23.8-6.4,35.6-8.7c5.5,1.7,12.4-1.1,12.3-8.5c-0.5-20.3-2.8-40.5-6.3-60.5
	c-3.4-19.3-8.3-38.2-11.2-57.6c-3-20.1-5.8-40-9.7-60c-3.9-20-5.1-40.4-8.3-60.5c-2.4-15.4-8.1-30.8-6.3-46.5c1-9.1,4.1-18,6-27
	c1.8-8.6,3.4-17.2,4.7-25.8c2.6-17,4.5-34.1,6.5-51.2c1.5-12.6,3.9-25.3,2.4-38c-0.5-4-1-9.2-4.1-12.2c-2.4-2.4-5.8-2.9-9-3.4
	c-5.5-0.9-11.3-1.4-16.8,0c-10.9,2.8-17.2,11.6-21.2,21.5c-5.9,14.6-7.9,30.3-10,45.7c-2.5,17.9-4.7,35.7-6.3,53.8
	c-1.5,17.2-6.8,33.7-8.7,50.9C486.5,1476.9,489.2,1495,492.8,1512.3z"/>
<path fill="#686868" d="M506.5,1466.1c0.7-17.9,7-35.2,8.7-53c1.8-18.4,3.7-36.5,6.2-54.8c2.1-14.9,3.5-31.3,10.1-45
	c1.7-3.5,3.9-6.7,6.4-7.7c2.5-1,5.4-0.9,8.2-0.5c1.5,10.1-0.8,21.3-2,31.1c-1.9,14.7-3.3,29.5-5.4,44.1c-2.2,14.9-4.8,29.7-8.3,44.3
	c-3.3,13.8-5.3,26.3-3.1,40.5c2.2,14.4,5.9,28.5,7.7,43c1.9,15.1,3.3,30.3,6,45.2c2.7,14.9,5.5,29.7,7.7,44.7
	c2.1,14.9,4.1,29.8,7.2,44.5c5.5,26.2,10.5,52,12,78.6c-5.2,1.4-10.2,3.3-15.5,5.1c-1.6,0.5-4.8,1.2-7,1.9c-0.5-3.6-2-7.6-2.6-11.1
	c-0.8-4.4-1.5-8.8-2.2-13.3c-1.4-9.7-2.5-19.4-3.5-29.1c-1.7-17.4-3.2-34.8-6.6-52c-1.8-9.1-4.2-17.9-5.1-27.1
	c-0.9-8.1-1.2-16.3-2.1-24.5C519.6,1535.9,505.1,1501.9,506.5,1466.1z"/>
<path d="M389.8,1474.5c1.2,16.8,4.9,33.3,8.5,49.8c3.7,16.8,7.3,33.6,7.9,50.9c0.5,18.1-1.3,36.3-2.3,54.3c-1,17.7-0.3,35,0.7,52.7
	c0.9,16,1.4,33.2,10,47.3c10.7,17.6,21.2,19.1,45.8,14.9c24.7-4.2,13.9-44.4,10.4-65c-3.6-21.6-7.4-43.3-7.9-65.3
	c-0.8-35.8,3.1-71.5-2-107.1c-2.5-17.8-6.6-35.2-9.5-52.9c-2.7-16.8-3-33.6-1.2-50.5c1.7-16.6,5.9-32.7,9.2-49.1
	c2.1-10.8,3.5-21.8,1.8-32.8c-3.8-24.2-25.4-32.7-47.7-31.6c-5.4,0.3-8.8,4.1-9.3,9.3c-1.7,19.8-6.3,39.2-9.4,58.8
	c-3.2,20.3-3.2,40.5-4.2,60.9C389.7,1437.6,388.4,1456.1,389.8,1474.5z"/>
<path fill="#686868" d="M409.9,1395.1c0.3-29.2,8.3-57.5,11.8-86.4c7.2,0.4,14.5,2.2,18,7.6c4.6,6.9,4,17.2,2.9,25.7
	c-1.8,13.8-5.9,27.2-8.3,41c-2.7,15.8-4.4,31.9-4,47.9c1,33.7,12.4,66,14.2,99.7c1.8,34.2-2.5,68.4,0.6,102.6
	c3,32.7,11.4,64.6,13.8,97.3c-0.8,0.6-1.5,1.4-2.2,2.3c-5.1,7.4-18.5-3.8-22.5-7.9c-9.8-9.9-10.4-25.4-11.1-38.6
	c-0.9-15.9-2-31.6-1.4-47.5c0.7-16.5,2.2-33,2.7-49.5c0.9-32.4-7.7-62.7-13.5-94.2C405,1462,409.6,1428.5,409.9,1395.1z"/>
<path d="M308.2,1740.3c8.6,6.4,22.8,10,33.3,7c11.5-3.3,14.2-14.9,13.5-25.4c-0.4-6.3-1.4-12.5-2.2-18.7c-1-7.8,0.7-12.2,3.8-19.1
	c6.5-14.6,2.4-29,0.4-44.1c-2-15.9-1-32.5-1.7-48.5c-1.5-33.7-5-67.2-5-100.9c0-15.9,0-31.9,1.4-47.7c1.4-16,4.9-31.2,9.4-46.6
	c4.5-15.5,8.8-31.2,9.2-47.4c0.4-15.8-3.2-31.4-3.8-47.1c-0.1-2.3-0.9-4.2-2.1-5.6c-1.5-2.1-3.9-3.6-7.2-3.6
	c-9.1-0.1-18.2-0.5-27.1-2c-6.1-1.1-11.5,2.5-11.8,9c-0.4,9.1,2.7,17.4,3.5,26.3c0.8,8.1-0.9,15.8-3.6,23.4
	c-2.9,8-6.7,15.6-8.6,23.9c-1.8,7.6-2.6,15.4-3.4,23.2c-3.8,36.8-1.7,74-1.5,110.9c0.2,34,1,67.9,1.1,101.9
	c0,16.9-0.2,33.8-0.7,50.7c-0.3,8.2-0.7,16.2-2.2,24.3c-1.5,7.9-3.4,15.7-4.6,23.6C296,1720.3,297.2,1732,308.2,1740.3z"/>
<path fill="#686868" d="M316.7,1708c2.8-15.4,6-30.2,6.6-45.9c2.3-63.3,0.5-127-0.5-190.3c-0.5-29.8-1.9-60.7,3.7-90.1
	c2.6-13.7,10.3-25.8,12.8-39.5c1.3-7.1,1.4-14,0.4-21.1c-0.5-3.7-1.4-7.4-2-11.1c3.6,0.3,7.1,0.6,10.7,0.8c1.3,14.2,4,28.4,3,42.7
	c-1.2,16.8-7.1,32.8-11.5,48.9c-8.8,32.5-8.8,66.9-8.1,100.3c0.7,32,3.9,63.9,5.2,95.9c0.6,15.3-0.1,30.8,2,46c1,7,2.6,13.9,2.7,21
	c0.2,7.1-3,12.1-5.6,18.5c-4.8,12.1-0.8,24.6,0.1,37c0.2,2.3,0.7,5.4,0.1,7.7c-0.1,0.4-0.2,0.7-0.3,0.8c-2.3,1.1-8.4-0.7-10.5-1.3
	c-3.8-1.1-8.2-3-9.7-6.9C314.4,1717.3,316,1712.1,316.7,1708z"/>
<path d="M2622,1209.3c-15.9,9.1-35.5,8.6-53.1,11.8c-17.5,3.2-36.6,9.7-54.4,4.8c-10.9-3-15.5,13.9-4.6,16.9
	c20.5,5.7,41.8-0.6,62-4.5c19.9-3.8,40.8-3.6,58.9-13.9C2640.6,1218.8,2631.8,1203.7,2622,1209.3z"/>
<path d="M2758.8,1328.8c-6.3-26.2-24.5-45.6-47.2-58.3c2.9-1.8,5.5-4.1,7.5-7.2c12.7-19.4-10.2-43.6-29.3-48.6
	c-0.6-3.5-1.1-7-1.2-10.6c-0.1-8.7,0.2-17.2-3.8-25.1c0.2-3.8-0.3-7.9-1.8-12c-6.3-17.6-23.1-29.8-39.7-37
	c-19.1-8.2-40.2-12.8-60.4-17.5c-22.7-5.3-45.6-9.3-68.7-11.9c-12.7-1.4-25.4-2.4-38.2-2c-10.4,0.4-20.8,1.4-31.2,1.9
	c-7.9-8.5-15-17.8-24-25.1c-0.9-0.7-1.9-1.3-3-1.8c-1.6-0.7-3.4-1-5.6-0.5c-25.8,5.7-52.6,3-78.6,6.8c-0.3,0-0.7,0.1-1,0.1
	c-0.1,0-0.3,0-0.4,0.1c-1.1,0.2-2.1,0.6-2.9,1.3c-1,0.7-1.8,1.6-2.3,2.7c-0.1,0.2-0.2,0.4-0.2,0.5c-0.1,0.2-0.1,0.3-0.2,0.5
	c-2.1,5-4.5,9.9-6.8,14.8c-35.1,8.2-71.2,8.6-106.8,13.3c-36.5,4.8-71.7,14.6-101.1,37.6c-10.2,7.9-22.2,19-23.3,32.4
	c0,0,0,0-0.1,0.1c-9.6,12.8-8.4,29.2-4.9,44.9c-15.2,10.1-27,28.1-18.4,46.4c0.4,0.8,0.8,1.6,1.3,2.4c-1.9-3.2-29.8,19.1-33.7,20.4
	c-14.3,4.5,2.7,24.5,6.4,31.1c9.2,16.3,16.4,25.3,35.2,31.1c10.4,3.2,20.8,6.7,31.1,10.3c0.6,28.8,6.4,56.9,11,85.3
	c5.1,31.2,3.3,62.9,7.4,94.2c4.1,30.6,6,61.2,8.7,91.9c2.7,31.7-1.3,63.5,3.3,95.1c2.2,14.9,5.3,29.7,4.1,44.9
	c-0.8,10.1-2.3,20.8-0.2,30.7c-0.6,0.8-1.1,1.8-1.5,2.9c-0.9,2.9-3,4.5-5.3,6.5c-3,2.7-5.5,5.7-7.1,9.4c-4.6,10.8-0.6,22.9-0.7,34.1
	c0,0.8,0.1,1.5,0.2,2.2c0.5,2.9,2.4,5.4,6.2,6.2c16,3.4,29.6,13.5,44.9,18.9c17.1,6,35.2,9.8,53,13.1c37.4,6.9,75.4,10.4,113,16.3
	c18.1,2.8,36.1,6.2,54.4,8.2c18.9,2.1,37.3,1.5,56.2-0.1c17.9-1.6,35.8-3.3,53.6-6c17.6-2.7,34.6-7.4,51.8-11.8
	c34.3-8.7,69.7-16.2,96.7-40.8c1.9-1.8,2.7-3.8,2.8-5.7c3-7.1,2.5-14.8,1.2-22.3c1-1.4,3.2-2.7,4.3-3.9c2.7-3.3,4.1-7.4,4.5-11.7
	c0.8-8.9,0.7-17.9,2.4-26.6c0.5-2.5,0-4.7-1.1-6.4c-0.5-2.2-1.9-4.2-4-5.8c-2.1-1.5-3-2.2-5.1-4c-2-1.7-4-3.4-5.9-5.1
	c-0.8-0.7-1.6-1.2-2.6-1.6c1.2-27.7,3.5-55.3,5.3-82.9c2.3-36.3,4.5-72.6,6.4-109c1.9-35.9,3.3-71.8,3.3-107.8
	c0-33.5-0.4-68.6,7.9-101.3c7.3,0.7,14.5,2,21.8,1.7c1.3-0.1,2.4-0.4,3.4-0.8c0.1,0,0.2-0.1,0.2-0.1c0,0,0,0,0.1,0
	c1.5-0.6,2.8-1.7,3.9-3.4c5.2-8.2,8.9-17.2,12.3-26.3c11.5-4.6,24.5-4.7,36.6-6.4c4.2-0.6,6.7-5.4,6.3-9.4
	C2759.1,1330.9,2759.1,1329.9,2758.8,1328.8z"/>
<path fill="#DADADA" d="M2482.8,1130.6c2.8,2.4,5.6,4.7,8.4,6.9c-10.2,1.2-20.5,2.1-30.6,3.8c-3.5-4.3-6.7-8.7-9.9-13.3
	C2460.7,1132.8,2471.4,1132.5,2482.8,1130.6z"/>
<path fill="#727272" d="M2452.5,1158c0.7,0.4,1.5,0.8,2.3,1c-35.6,15.2-80.1,10.4-115.7-4.9c2.7-0.9,5.3-1.9,7.9-3
	c2.7-0.6,5.2-2.5,6.3-5.8c2.4-7.5,4.1-15.3,6.4-22.8c12-2.2,24.2-2.5,36.4-3c0.1,0.2,0.2,0.5,0.3,0.7c4.4,8.9,10.9,16.5,14.8,25.6
	c1.1,2.6,3.9,4,6.8,4.2C2429.3,1153,2441.3,1153.9,2452.5,1158z"/>
<path fill="#686868" d="M2435.2,1135.9c-3.5-0.6-7.1-1.3-10.6-2.1c-2.8-5.5-6.3-10.5-9.5-15.7c1.7-0.2,3.5-0.4,5.2-0.7
	C2425.9,1123,2430.6,1129.4,2435.2,1135.9z"/>
<path fill="#DADADA" d="M2340.7,1096.5c23.7-3.1,47.9-1.2,71.5-5.5c3,2.7,5.7,5.6,8.4,8.6c-23.2,4.6-47.2,1.7-70.4,6.9
	c-4.2,1-6.1,4-6.3,7.3c-2.2,6.6-3.8,13.4-5.7,20.2c-2.8-2.2-5.6-5.6-8.2-8.2c-0.8-0.8-1.6-1.5-2.4-2.2
	C2332.1,1114.6,2336.6,1105.7,2340.7,1096.5z"/>
<path fill="#DADADA" d="M2320.1,1140.7c0.4,0.5,0.9,0.9,1.3,1.3c-8.7,2.7-17.5,5.3-25.9,9c-0.6-0.2-1.3-0.3-2-0.4
	c-3.3-0.4-6-2.5-8.4-4.7c9.6-3.6,19.1-7.6,28.9-10.7C2316.2,1136.5,2318.2,1138.6,2320.1,1140.7z"/>
<path fill="#B2B2B2" d="M2098.6,1206.5c9.2,9.3,23.1,15.5,34.1,19.6c18.6,7,38.5,11,57.8,15.3c21.2,4.7,42.6,8.6,64.1,11.2
	c49.7,5.9,100.4,4.5,150.3,4.5c11.2,0,11.3-17.5,0-17.5c-41.2,0-82.4,0.2-123.5-2.1c-40.4-2.3-80-10.8-119.1-20.6
	c-16-4-32.4-8.7-45.9-18.6c-5.1-3.7-12.1-9.2-9.7-16.3c2.2-6.6,9-11.8,14.1-16c26.2-21.4,58.9-30.6,91.8-35.1
	c29.3-4,59-5.1,88.2-9.5c-11.5,4.2-22.7,9.1-34.5,12.5c-3.7,1.1-5.6,3.7-6,6.7c-1.2,3.8,0.7,7.7,4,10.1c4.3,3.1,7.7,7.3,11.9,10.5
	c3.4,2.6,6.8,4.4,10.6,5.6c2.4,3.2,6.7,5,11.2,2.5c5.5-3,11.3-5.3,17.3-7.3c106.1,66.6,179.8-9.2,180.2-10.6
	c11.6-2.7,21.1-5.3,21.7-6.2c2.6-4.5,0.6-9.1-3.1-12c-7.1-5.5-14.2-10.9-20.9-16.9c1.3,0.1,2.6,0.1,3.9,0.2
	c20.1,1.4,40,4.3,59.8,8.2c19.4,3.8,38.6,8.7,57.6,13.9c16.3,4.5,32.9,10,44.9,22.6c4.1,4.3,8.3,10.1,8.4,16.3
	c0.1,7.2-6,11.3-11.8,14.2c-10,5.1-1.2,20.2,8.8,15.1c2.4-1.2,4.6-2.6,6.6-4.2c0,1.6-0.1,3.2,0,4.8c0.4,7.3,2.8,14.4,3.4,21.7
	c-14.2,7.4-29.6,12-44.9,16.5c-18.6,5.4-37.2,11.5-56.2,15.5c-18.5,3.9-37.4,6.9-56,10.2c-18.9,3.3-37.8,6.1-56.9,7.3
	c-38.7,2.5-78.2,3.2-116.8-0.2c-40-3.5-79.8-8.9-119.5-14.6c-21.5-3.1-42.7-6.8-63.9-11.2c-17.9-3.7-36.9-3.5-54.4-9.1
	C2102.6,1232.4,2097.6,1218.6,2098.6,1206.5z"/>
<path fill="#DADADA" d="M2079.9,1259.9c0.8-5.4,4.3-10,8.6-13.6c0.5,1.9,1,3.7,1.5,5.5c0.7,2.6,2.2,4.4,4.1,5.3
	c0.8,0.8,1.9,1.5,3.2,2c16.7,6.4,34.7,5.9,52.1,9.2c19.2,3.7,38.3,7.9,57.7,10.7c40.6,5.9,81.3,11.3,122.1,15.6
	c40,4.2,80.1,3.8,120.3,2.2c39.1-1.6,77.2-9.5,115.7-16.2c21.9-3.8,43-10.3,64.3-16.6c20-5.9,40.3-11.6,58.5-22.1
	c3.1-1.8,4.3-4.6,4.2-7.4c0-0.1,0-0.3,0-0.4c4.4,2.9,8.4,7.6,10.6,11.2c3.5,5.7,3,9.4-3.4,12.1c-6.7,2.8-14.3,3.5-21.3,5.4
	c-13,3.5-26,6.9-38.9,10.6c-24.5,7-48.3,15.8-73.2,21.5c-3.1,0.7-6.3,1.4-9.4,2.1c-3.4-1.7-7-0.5-9.5,1.9
	c-18.1,3.5-36.3,6.1-54.6,7.8c-53.3,4.9-107.7,5.9-161.1,3.2c-26.7-1.4-53-5.9-79.2-11.1c-26.7-5.3-53.5-7.3-80.6-10
	c-14.2-1.4-28.5-2.2-42.8-3.9c-12.5-1.5-27.2-3-38.5-9.1C2084.1,1272.3,2079,1266.8,2079.9,1259.9z"/>
<path fill="#CBBBA0" d="M2697,1305.3c2,2.1,3.9,4.4,5.7,6.8c-2.2,0.8-4.5,1.5-6.7,2.4C2696.4,1311.4,2696.7,1308.4,2697,1305.3z"/>
<path fill="#B2DB86" d="M2547.6,1374.8c-12.5-1.6-23.7-2.1-34.3,5.8c-5.9,4.4-11.2,9.6-16,15.2c-4.4,5.1-8.6,11.1-14.1,15.1
	c-9,6.5-21.3,0.7-30.5-4c-0.8-0.7-1.8-1.2-3-1.5c0,0-0.1,0-0.1-0.1c-8.2-4.1-16.5-8.7-25.4-11.4c5.6-10.7,9.4-22.9,11.3-34.4
	c1.1-6.6,1.6-13.5,1-20.1c1.5,2.2,2.7,4.4,3.9,6.5c5.4,9.9,20.5,1.1,15.1-8.8c-2-3.6-4.2-7.1-6.7-10.3c8.7-0.4,17.4-0.9,26.1-1.5
	c8.3,15.1,2.2,31.3-2.1,47.1c-3,10.9,13.9,15.5,16.9,4.6c4.1-14.7,8.3-29.6,6.1-44c7.3,3.9,14.6,9.1,17.2,16
	c4,10.4,20.9,5.9,16.9-4.6c-3.6-9.6-10.8-16.8-19.2-22.4c13.6-1.7,27.2-3.8,40.7-6.4c15.6,15.2,33.9,28.3,45.7,46.8
	c1.2,1.9,2.5,3.9,3.5,6c-1.7,1.8-5.3,4.5-6.5,5.6c-8.7,7.8-15.6,17-23.3,25.6c-9.3-1.6-18.7-2-28.1-2c-1.2-0.6-2.6-1-4.3-0.9
	c-2.9,0.1-5.6,0.5-8.1,1.2c-3.8,0.2-7.6,0.4-11.3,0.5c3.4-3.2,7.2-6.5,11.8-7.3c5.1-0.9,11.6,0.3,17,1c4.7,0.6,8.7-4.5,8.7-8.7
	C2556.4,1378.3,2552.3,1375.5,2547.6,1374.8z"/>
<path fill="#B2B2B2" d="M2204.1,1309c-3.8,1.6-7.4,3.5-10.9,5.6c-7.6,4.6-13.5,10.4-20,16.4c-2.8,2.6-5.3,4.5-9.2,3.8
	c-4.6-0.8-9-3.2-13.4-4.6c-9.6-3.1-19.5-5.1-29-8.5c-11.1-3.9-20.5-11.4-30.9-16.5c2.7-1.5,5.5-2.8,7.9-4c1.5-0.8,2.6-1.8,3.4-3
	c9.3,2.1,18.7,3.1,26.8,4C2153.8,1305.2,2179,1306.6,2204.1,1309z"/>
<path fill="#DADADA" d="M2079,1342.6c-5.9-1.8-13.3-4-17.5-9c-1.9-2.2-3.7-7.8-4.9-11.4c-1.5-4.5-3.3-10.1-6-14.8
	c2.1-1.5,4.2-3,6.2-4.6c7.5-4.5,15.7-7.7,22.8-12.9c0.6,0.4,1.2,0.7,1.8,1c-5.9,3.5-11.4,7.7-15.3,13.5c-4.1,6,1.5,12.5,7.5,13.2
	c7.7,0.8,15,6.2,21.4,10.2c7.7,4.8,15.4,8.8,24.1,11.7c9.6,3.2,19.5,5.2,29,8.5c9.5,3.2,17.8,6.9,27.7,2.6
	c7.6-3.3,12.3-10.2,18.5-15.3c6.1-5.1,13.9-9.3,21.4-11.7c13.9-4.4,30.2-3.2,44.8-0.1c-2.1,6.5-4.8,12.7-7.1,19.1
	c-16.5-2.7-32.4-8.3-48,1.9c-12.6,8.3-20.1,21.7-30.9,31.9c-7.3-1.9-14.3-4.8-21.3-7.8c-8.1-3.4-16.4-6.2-24.7-9.1
	C2112.1,1353.5,2095.7,1347.7,2079,1342.6z"/>
<path fill="#DADADA" d="M2652.6,1800.8c-1.1,8-1.3,16-2.1,23.9c-0.3,3.1-0.4,2.8-2.9,5.1c-2.9,2.6-4.7,5.6-5.9,9.3
	c-0.6,1.9-0.6,3.6-0.1,5c0,0.3,0.1,0.5,0.1,0.8c0.9,4.5,2.2,10-0.3,14.2c-0.2,0.4-0.4,0.7-0.5,1.1c-22.4,19.3-51.8,25.9-79.8,32.8
	c-16.5,4.1-32.8,9-49.6,12c-16.8,3-33.9,4.8-50.9,6.3c-18.4,1.7-36.6,3.1-55.1,1.6c-17.4-1.4-34.6-4.6-51.9-7.4
	c-36.4-5.9-73.2-9.4-109.5-15.6c-19.2-3.3-38.4-7.2-57.1-13c-15.5-4.8-29.3-14.3-44.7-19.2c-0.3-3.5-0.8-7.1-1-10.7
	c-0.2-3.6-0.9-8.2,1.4-11.3c1.6-2.2,4.3-3.7,6.2-5.7c0.5-0.5,0.9-1.1,1.4-1.6c33.6,14.2,68.5,24.8,104,33.1
	c37.8,8.9,76.1,16,114.9,18.6c39.5,2.6,78.3-1.4,117.4-7.1c31.6-4.6,63.3-10.5,93.7-20.5c23.8-7.8,68.1-39,68.2-42
	c0-1.2,2.4-10.2,2.4-11.5C2651.4,1799.9,2652,1800.4,2652.6,1800.8z"/>
<path fill="#B2B2B2" d="M2659.8,1364.7c-5.6,15.7-7.2,33.4-8.7,49.9c-1.6,17.5-1.9,35-2,52.6c-0.4,71.9-4.9,143.4-9,215.1
	c-2.2,39.2-6.1,78.3-6.7,117.6c0,2.9-4.7,7.9-6.5,9.9c-4.3,4.5-9.6,7.8-15,10.9c-10.8,6.2-22.4,10.8-34.1,14.7
	c-27.9,9.4-56.9,15.1-85.9,19.6c-37.1,5.8-74.2,10.2-111.7,8.6c-36.5-1.5-72.6-7.6-108.2-15.6c-38.5-8.6-76.7-19.2-113.1-34.5
	c-0.1-0.3-0.3-0.6-0.4-0.9c-5.1-9.5-1.5-23.1-0.8-33.3c0.9-13.2-1.5-26.5-3.5-39.5c-2.5-15.5-3.3-30.8-3.1-46.6
	c0.2-15.6,0.9-31.2-0.4-46.8c-2.5-30-4-60-8.1-89.8c-4.2-30.7-2.9-61.7-7.1-92.4c-4-29.5-10.9-58.6-12.3-88.4
	c8.5,3,17.1,5.9,25.4,9.4c8.5,3.6,17,7.1,26.1,8.9c3.2,0.6,5.9-0.4,7.8-2.2c0.6-0.3,1.3-0.7,1.9-1.3c0.7-0.6,1.4-1.2,2.1-1.9
	c6.3,5.6,13.8,9.9,19.1,16.4c3,3.7,4.3,8.1,5,12.8c1.2,7.8,1.6,15.8,1.8,23.7c1,30.2,0.6,60.7-0.1,90.9c-0.7,31.9-4.2,63.5-4.6,95.4
	c-0.4,31.1,0.6,62.2,0.9,93.3c0.2,15.7,2.5,33.6-2.5,48.8c-1,3.1-3.9,11-7.8,10.6c-3.2-0.3-6-6.3-7.1-9.3c-3.8-10.5-20.6-6-16.9,4.6
	c4,11.3,12.6,23.2,26.1,22c14.4-1.3,21.6-16.9,24.1-29.4c3.3-16.8,1.7-34.9,1.5-51.9c-0.2-17.5-0.6-34.9-0.8-52.4
	c-0.2-18.2-0.2-36.4,0.4-54.5c0.6-17.6,2.2-35,3.2-52.5c2-34.9,1.5-70,1.2-104.9c-0.1-9.3-0.4-18.6-1.3-27.9
	c-0.8-8.3-1.7-16.7-5.6-24.2c-5.6-10.7-16.7-16.4-25.2-24.5c4.6-5.7,9.3-11.4,15.2-15.7c13.5-9.9,31.7-0.8,46.6,0.6
	c5.3,0.5,8.1-3.2,8.3-7.3c0-0.1,0.1-0.2,0.1-0.2c3.3-10.8,8.4-21,11.1-32c8.4,1.5,16.9,2.9,25.4,3.9c30.4,3.6,61.3,3.7,91.9,3.3
	c5.7-0.1,11.4-0.2,17.1-0.3c0.1,0,0.1,0.1,0.2,0.1c8.7,6.5,5.8,23.3,3.7,32.3c-2.8,12.5-7.6,25.2-15.2,35.5
	c-4,5.5,1.4,13.2,7.5,13.2c9.7-0.1,18.8,4.7,27.6,9.4c-2.8,12.2-7.2,23.8-8.6,36.4c-1.7,15.6-1.7,31.3-2.4,46.9
	c-1.4,32.4-1.8,64.7-1.9,97.1c-0.1,32-0.5,63.8,1.9,95.7c1.2,15.3,2.7,30.6,3.3,46c0.3,8.7,0,17.5,0.7,26.2
	c0.8,10,2.7,20.3,8.7,28.6c7.3,9.9,18.3,13.9,30.2,15.1c4.7,0.5,8.7-4.3,8.7-8.7c0-5.1-4-8.3-8.7-8.7c-7.3-0.7-14-3.5-17.5-10.1
	c-3.4-6.3-3.9-14-4.2-21.1c-0.3-8.6-0.1-17.1-0.6-25.7c-0.8-14.6-2.1-29.2-3.2-43.7c-2.3-30.4-1.9-60.7-1.8-91.2
	c0.1-29.7,0.4-59.4,1.5-89.1c0.6-16.5,0.9-33,2.1-49.5c0.9-12.7,5-24.3,7.9-36.3c10.6,4.3,22.3,7.2,33.1,2.5
	c6.2-2.7,11.2-7.2,15.7-12.1c2.4,0,4.8-0.1,7.1-0.2c-6.7,13.3-8.4,30.9-9,44.4c-0.7,15.6-0.1,31.3-0.4,46.9
	c-0.4,26.2-1.4,52.4-3,78.5c-2.1,34.4-5.7,68.7-8.8,103c-2.3,25.1-3.7,50.8,0.6,75.8c2,11.5,5.6,23.8,14,32.3
	c8.8,9,21.3,10.5,33,6.9c10.7-3.3,6.2-20.1-4.6-16.9c-1.2,0.4-2.4,0.7-3.6,1c-0.4,0.1-0.9,0.2-1.3,0.2c-0.1,0-0.1,0-0.2,0
	c-1.1,0.1-2.1,0.1-3.2,0.1c-0.5,0-0.7,0-0.8,0.1c-0.1-0.1-0.4-0.1-0.9-0.3c-0.7-0.2-1.4-0.4-2.1-0.6c0,0,0,0-0.1,0
	c-0.4-0.2-0.8-0.4-1.2-0.7c-0.3-0.2-1-0.7-1.2-0.9c-0.6-0.6-1.2-1.2-1.8-1.8c-1.2-1.2-4-6.2-4.8-8c-1.8-4.7-3.1-9.6-4-14.6
	c-4-21.4-2.5-45.7-0.6-68.1c2.4-28.6,5.7-57.1,7.8-85.8c3.1-43.6,4.8-87.3,4.6-131c-0.1-13.4,0.1-27,3-40.1c1.4-6,3.1-11.9,6.7-16.9
	c1.6-2.2,3.5-3.7,5.8-4.7c5.1-0.2,10.3-0.3,15.4-0.2c4,0.1,8,0.3,11.9,0.6c4,0.4,8,1.6,12,2c2.9,0.2,5.5-1,7.9-2.9
	c-3.1,4.3-5.7,9-7.8,13.8c-5.3,12.2-7,23.9-7.2,37.1c-0.3,20.5-1.5,40.9-1.4,61.4c0,19.3,1.1,38.6,0.3,57.9
	c-0.8,18.6-2.8,37-5.5,55.5c-2.7,18.3-5,36.7-5.5,55.2c-0.4,16.9,1.3,33.6,4.3,50.2c2.9,15.9,10.3,34.4,27.4,39.4
	c17.9,5.2,30.8-11.7,37.7-25.7c4.9-10.1-10.2-19-15.1-8.8c-3.7,7.6-11.6,23.5-21.8,15.5c-9.2-7.2-10.8-21.3-12.4-32.1
	c-4.5-30.8-1.9-61.2,2.7-91.9c5-32.5,7-65.2,5.8-98.1c-0.6-17.4-0.2-34.8,0.4-52.2c0.3-8.7,0.6-17.5,0.7-26.2
	c0.1-5.9-0.1-10.9,1.1-16.1c3.3-14.8,16.7-45.5,36-35.4c10,5.2,18.8-9.9,8.8-15.1c-15.3-8.1-29.3-3.5-40,6.3c1-1.4,2-2.7,2.9-3.8
	c5.3-6.2,10.8-12,16.9-17.4c4.2-3.7,8.3-7.3,9.3-13c1-5.8-2-11.2-5-16c-4.2-6.8-9.2-13.2-14.6-19c-8.2-8.9-17.5-16.8-26.4-25
	c26.5-6.3,52-15.6,78.2-23c10.1-2.8,20.2-5.7,30.3-8.3c0.1,14.1,0.1,28.5-3.2,42.2C2673.7,1337.2,2664.9,1350.2,2659.8,1364.7z"/>
<path fill="#DADADA" d="M2700.4,1339.3c-3.6,1.8-5.9,15.5-9.2,21.6c-3.6-0.1-7.1-0.5-10.7-1c3.9-8.6,8.4-16.9,11.5-25.8
	c0.5-0.2,1-0.4,1.6-0.6c6.6-3.4,13.7-5.4,20.6-7.9c4.3-1.5,7.1-5.6,6.2-10.1c0-1.5-0.4-3-1-4.5c-4.5-10.1-11.9-18.4-21.5-23.7
	c0-1.4,2.3-6.4,2.3-7.8c18.5,9.4,34.2,28.8,41.5,48.4C2729.7,1329.3,2711.8,1333.6,2700.4,1339.3z"/>
<path fill="#DADADA" d="M2221.6,131.2c-0.2-10.9-0.5-21.8-0.3-32.8c0.1-5.3,0.3-12.7,2.1-16.3c0.5-1.1,1.6-2.4,2.5-3
	c2.2-1.5,4.6-2.3,7.2-3.1c9.6-2.9,19.6-4.1,29.5-4.8c19.5-1.4,39.1-2.4,58.6-3c17.8-0.6,36.7-0.3,53.3,7c8.5,3.7,15.5,10,23.5,14.6
	c8,4.6,16.8,8.2,25.7,10.5c17.1,4.6,34.9,5.1,52.2,8.4c12.2,2.3,22.8,5,27.4,16.9c5,13.1,3.8,28.2,3.5,41.9
	c-0.2,10.6-0.7,21.7,1.2,32.3c-6.6,0-13.1,0-19.7-0.1c-5.1,0-10.3,0-15.4,0c0.5-13.5-1.8-27.2-5.6-40.1c-2.5-8.2-6.2-15.9-15-18.4
	c-9.8-2.8-20.7-1.3-30.8-3.4c-12.5-2.7-24.5-7.4-36.1-12.7c-24-10.9-47.5-22.5-74.1-25c-17.9-1.7-40.6-1.6-50.6,16.2
	c-6.5,11.6-4.9,25.1-5.9,37.7c-1.1,13.7-4.5,27.1-7.9,40.4c-5.2,1-10.2,2.3-15.1,4.2c-4.5-1.7-9-3.4-13.5-5
	C2221.7,173,2221.9,152.1,2221.6,131.2z"/>
<path fill="#B2B2B2" d="M2675.2,476c-1.9,33.1-5.2,66-9.4,98.9c-8.2,64.7-19.8,129-29.8,193.5c-4.8,31-12.3,62.5-11.5,94.1
	c0.4,15.5,3.2,30.7,5,46.1c1.5,12.7,3.1,26.6-0.5,39c-9.5,32.5-54.3,39.5-83,42.5c-16.9,1.8-33.9,2.2-50.9,2.8
	c-33.8,1.2-67.6,2.6-101.3,4c-66.6,2.6-133.2,5-199.8,5.4c-15.3,0.1-30.7,0.5-46-0.2c-9-0.4-18.7-1.5-26.8-5.9
	c-20.7-11.3-18.9-39.3-15.9-59.3c2.1-13.8,5.1-27.4,6.7-41.3c1.7-15.2,2.1-30.8,3.2-46.1c2.2-33.3,4.1-66.7,2.8-100.1
	c-4.6-123.1-60.9-233.6-110.7-343.5c-4.4-9.6-8.7-19.3-12.9-29c15.2,1,30.5,0.9,45.6,0.6c7.7-0.2,15.4-0.4,23.1-0.5
	c12.5,35.3,34.7,66,50.3,99.9c2.4,5.2,4.5,10.5,6.3,15.8c0,0,0,0-0.1,0c-11.6,3.5-21.9,10.4-25.8,22.4c-3.4,10.2-1.2,21.8,2,31.7
	c3.5,10.7,8.5,20.8,13.1,31c6.2,13.6,10.7,29.5,14.3,44.6c17.6,74.2,20.5,149.6,19.6,225.5c-0.3,23.6-0.1,49.5,12,70.6
	c6.5,11.2,16.3,19.6,28.4,24.2c10.5,4,23.4,5.9,33.6,0c17.2-10,17.1-34.4,15.4-51.7c-3.1-30.6-11-60.3-12.7-91
	c4.7,4,10.5,6.4,17,6.6c0.3,20.1,2.1,40,12.5,57.9c0.1,0.2,0.3,0.5,0.4,0.7c-0.2,3.6-0.1,7.3,0,10.8c0.3,10.8,1.4,22,4.2,32.5
	c2.3,8.3,6,17.7,13.9,22.2c9,5.1,22.7,6.5,32.5,3.2c1.9-0.6,3.6-1.5,5.1-2.5c7.5-5,21.6-2.4,31-9.4c15.2-11.4,21.8-29.1,19.4-47.6
	c-1.1-8.6-3.4-17-4.4-25.6c-1.1-9.8-1-19.8-1.4-29.6c-0.8-20.8-1.3-41.5-1.8-62.3c-0.8-40.9-1.5-81.8-0.6-122.7
	c0.4-19.6,1-39.2-0.3-58.7c-1-15.8-3.6-31.4-5.3-47.1c-1.5-14.2-3.3-28.7-10.1-41.5c-3.1-5.9-7.2-10.9-12.1-15
	c8.1-1.8,15.7-6.5,19.6-13.8c11.7-21.4,5.4-47.8,7.4-71.1c5.4,0.5,10.8,1.1,16.2,1.9c11.8,1.8,23.5,3.3,35.2,4.6
	c1.5,1.9,3.8,3.2,7,3.2c20.2-0.1,29.7,16.1,41.9,29.7c7.1,7.9,15.3,14.2,25.2,18.2c8.2,3.3,16.9,4.7,25.4,6.5
	c18,3.9,34.2,11,44.5,26.9c-14.8,8.5-17.7,29.3-18.9,45c-1.8,23.3,0.5,47,2.7,70.2c0.9,9.3,2,18.5,2.6,27.8c1,15.6-0.2,31.4-1.2,47
	c-1.4,21.1-3.6,42.2-5.6,63.3c-1.3,14-1.9,28-3.4,42c-1.9,17.7-4.2,35.3-4.5,53.1c-0.3,17.9,0.4,39.4,11,54.6
	c10.8,15.5,33.4,19.3,49.2,8.5c18.5-12.6,22.7-39.3,25.4-59.7c3-22.6,3.2-45.3,4-68c0.5-16.8,2.1-33.5,3.1-50.3
	c0.6-10.3,0.6-20.8,1.4-31.1c0.7-9.5,2.6-18.8,4.4-28.2c1.6-8.3,3.1-16.5,4.1-24.8c2.9-5.2,5.2-10.8,6.6-15.7
	c6.6-22.3,5.2-46.1,5.1-69c0-12.7,0.2-25.3,2.8-37.8c2.7-13.3,7.2-26.1,12.6-38.6c5.2-12.2,11-23.9,13.7-37
	c2.7-13.2,2.9-26.6,2.9-40c5.6-0.9,11.3-1.9,16.9-2.9C2677,416.2,2676.9,446.1,2675.2,476z"/>
<path fill="#9FAA63" d="M2324.1,445.8c-1.8,5.3-6.4,8.7-12.4,8c-2.5-0.3-4.5-2-6.6-3.2c-3.7-2.1-7.6-3.8-11.8-4.7
	c-6.1-1.3-11.6,2.7-11.9,9c-1.3,27.4-3.6,53.4-12.7,79.5c-10.5,29.8-8,60.7-8.1,91.8c-0.2,31.6-2.3,62.5,2.8,93.8
	c3.7,22.6,7.5,49.9-15.2,64c-3,1.9-6.3,3.4-9.9,3.8c-2.4,0.2-4.8-0.2-6.9-1.8c-1.3-1-3-4.1-3.7-7c-1.6-6.1-0.7-12.7-0.3-18.9
	c1.1-16.3,3-32.6,3.4-49c0.4-15.5-0.7-30.9,0.2-46.3c1.8-30.5,6.8-61,5-91.6c-1.3-22.6-5.3-52.9-25.3-67.2
	c-7.6-5.4-17.5-6.4-25.2-0.6c-9.4,7-11.8,19.7-12.7,30.6c-0.3,3.9-0.4,7.9-0.3,11.8c-1,13.8-1.2,27.6-0.8,41.4
	c-1.7,8-5.1,15.3-10.2,22c-3.9-1-7.7-2.6-10-5.7c-2.6-3.6-3.2-9-3.4-13.8c-0.8-17.4,0.5-34.8-0.7-52.2c-1.4-20.9-5-41.2-12.9-60.6
	c-7.5-18.4-17.2-35.8-27-53.1c-9.1-16.1-18.1-32.2-24.7-49.4c13-0.2,26.1-0.3,39.2,0.1c46.2,1.2,95,0.6,140.8,6.1
	c21.7,2.6,43.4,2.3,65.2,3.2C2326,405.6,2330.7,426.6,2324.1,445.8z"/>
<path fill="#686868" d="M2331.8,842.3c0.4,9.3,2.3,18.2,3.9,27.3c1.4,7.6,3.1,16.7,0,24.1c-3.2,7.5-11.9,16-20.9,18.5
	c0.2-2.8,0.2-5.7-0.2-8.5c-0.7-5.4-2.1-10.6-1.8-16.1c0.3-5,0.9-9.9,1.3-14.9c1.6-21.2,0.1-50-24.6-57.3
	c-15.1-4.4-26.5,4.7-32.2,17.3c-1.9-10.2-2.1-20.7-2.1-31.2c8-4.2,14.8-10.8,20-18.2c11.3-15.7,11.2-35.5,8.7-53.9
	c-1.2-9-3.1-18-4.1-27.1c-1.2-11.1-1.4-22.3-1.2-33.4c0.3-22.3,1-44.5,0.7-66.8c-0.3-21.6,0.5-42.4,7.7-62.9
	c6.4-18.1,10.1-36.5,11.7-55.6c0.1-1.2,0.2-2.4,0.3-3.6c7,3.5,12.8,8.5,16.6,15.9c4.9,9.2,6.2,20.2,7.3,30.5
	c1.5,13.5,3.5,27.1,4.8,40.6c1.7,17.9,1.6,35.9,1.2,53.8C2327.4,694.8,2328.3,768.7,2331.8,842.3z"/>
<path fill="#9FAA63" d="M2271.4,858.7c0.4-2.2,0.7-4.5,0.9-7.1c0.5-6.7,1.9-21.3,12.3-17.9c14.6,4.7,11.5,29.2,10.6,40.6
	c-0.6,7.5-1.7,14.7-0.6,22.2c0.6,4.3,4.3,16,0.2,19.1c-4.1,3.2-14.8,0.4-18.7-1.7c-0.1-0.1-0.3-0.3-0.6-0.8c-0.7-1.2-1.5-2.4-2-3.8
	c-1.2-2.7-2.1-6.3-2.8-9.4c-1.6-7-4.7-17.5-3.2-24.7C2268.9,868.8,2270.4,864.2,2271.4,858.7z"/>
<path fill="#686868" d="M2160.5,758.4c-1.6-35.3-5.9-70.2-12.1-105c-1.8-10.3-3.8-20.6-6.1-30.9c0.4,0.3,0.7,0.6,1.1,0.9
	c5.8,4.2,15.6,8.1,22.9,7.3c3.3-0.4,5.8-2.7,8-5.3c1,8.5,2.2,16.9,3.6,25.3c2.9,16.8,6.7,33.4,11.2,49.7c4.5,16.4,8.8,32.1,10,49.1
	c1.2,16.6,0.5,33.2,1.2,49.7c0.8,17.6,3.6,35.1,6.6,52.4c2.2,13,5.1,27,6.3,39.3c0.8,8.1,1.3,17.2-0.3,24.7c-0.9,4-1.4,6.1-3.7,9.1
	c-1,1.3-2.8,2.5-5.4,2.9c-8.8,1.4-20.3-3.9-26.8-10.3c-14.8-14.7-15.7-39.2-15.8-58.7C2161.2,825.2,2162,791.8,2160.5,758.4z"/>
<path fill="#B2B2B2" d="M2212.5,661.5c-1.1,16.6-0.3,33.1-0.6,49.7c-3.4-13.6-7.8-27-10.9-40.6c-6-26.5-9.6-53.4-10.5-80.5
	c1.6-10.2,1.4-20.6,1.1-31.1c-0.1-3.5-0.3-7-0.4-10.5c0-0.7,0.1-1.3,0.1-2c0.1-1,0-1.9-0.2-2.7c0-3.9,0.2-7.8,0.8-11.6
	c0.5-2.8,1.1-5.9,2.3-8.5c0.4-0.9,1-1.9,1.6-2.7c-0.2,0.3,0.6-0.4,1-0.9c0.3,0.1,1.4,0.2,0.9,0c1.2,0.4,2.1,0.9,3.3,1.9
	c4.6,3.9,7.6,9.9,9.6,15.4c6.9,19.1,7.5,40,6.8,60.1C2216.6,618.9,2213.9,640.1,2212.5,661.5z"/>
<path fill="#A48A7B" d="M2129.2,578.5c-2.6-6.6-5.5-13.2-8.5-19.7c-4.3-9.3-9-19.5-9.8-29.8c-0.8-9.8,3.5-15.2,13.6-18.3
	c0.1,0,0.1,0,0.2-0.1c1.7,7.7,2.9,15.5,3.6,23.4C2129.5,548.8,2129.2,563.6,2129.2,578.5z"/>
<path fill="#9FAA63" d="M2608.6,587.8c-1,9.9-3,20.2-7.6,29.1c-1.1,1.2-1.9,2.6-2.3,4.3c-1.1,1.7-2.3,3.3-3.6,4
	c-1.3,0.7-1.9,0.3-3.6-1c-14.3-11.2-14.5-34.5-14.1-50.7c0.5-21,0.3-41.2-3.4-61.9c-3-16.6-8.3-33.5-18.5-47.2
	c-11.4-15.2-27.3-25.1-45.7-29.7c-9.9-2.5-20.2-3.6-29.8-7.1c-9.7-3.6-16.7-10.8-23.3-18.5c-3.3-3.9-6.6-7.9-10-11.6
	c14.8,0.8,29.7,1.2,44.6,1.2c42.9,0,86-0.2,128.7-4.3c7.1-0.7,14.2-1.4,21.3-2.3c0,10.2-0.1,20.4-1.9,30.4
	c-2.1,11.5-6.6,21.8-11.3,32.4c-9.2,21.1-16.5,42.6-18.2,65.8C2608.4,542.9,2610.8,565.4,2608.6,587.8z"/>
<path fill="#686868" d="M2546.5,611.3c-2.2-23.8-5-47.5-5.1-71.4c0-10.8,0.3-21.6,2.7-31.7c1.2-5,1.9-7.1,4-10.8
	c0.1-0.2,0.8-1.1,0.9-1.3c0.4-0.5,0.9-0.9,1.3-1.4c3.6,10.1,5.7,20.8,7.1,31.4c1.4,10.7,2,21.3,1.7,32c-0.3,12.2-1.2,24.5,0.1,36.7
	c1.8,16.6,8.9,38.4,24.8,46.7c3.9,2,7.5,2.8,10.8,2.7c-2.1,11.2-4.5,22.4-5.5,33.8c-1.7,19-1.9,38.3-3.2,57.4
	c-1.5,22.4-1.6,44.7-3,67.1c-1.2,20.2-2.5,43.9-11.9,61.8c-1.9,3.7-2.9,5.2-5.5,7.8c-1.5,1.5-0.8,1-3.1,2.3
	c-0.1,0.1-1.3,0.6-1.5,0.7c-1.2,0.4-2.4,0.7-3.6,0.9c-2.1,0.5-2.1,0.5-4.6,0.6c-0.9,0-1.8,0-2.8,0c-0.2,0-0.4,0-0.5,0
	c-0.1,0-0.3-0.1-0.4-0.1c-0.8-0.2-1.6-0.4-2.4-0.6c-0.2-0.1-0.3-0.1-0.4-0.1c-0.1,0-0.2-0.1-0.3-0.1c-0.6-0.3-1.1-0.6-1.7-1
	c-0.3-0.2-0.5-0.3-0.6-0.3c-0.1-0.1-0.2-0.2-0.3-0.3c-0.5-0.4-2.5-2.7-2.5-2.6c-0.9-1.3-1.7-2.6-2.4-4c-1.4-2.6-2.4-5.8-3.5-10.1
	c-1.9-8.1-2.4-15.7-2.6-24.7c-0.2-17.7,1.7-35.3,3.7-52.9c3.2-27.8,4.9-55.9,7.4-83.9C2546.4,667.9,2549.1,639.4,2546.5,611.3z"/>
<path fill="#706F6F" d="M2740.2,343c-0.8,4.8-4.8,7.5-8.9,9.5c-5.1,2.6-10.8,4-16.2,5.4c-8.4,2.2-16.7,4.5-25.2,6.4
	c-19.5,4.5-39.3,7.7-59.2,9.9c-40.7,4.5-81.7,5.2-122.5,5.3c-118.5,0.4-238.4-14.9-356.9-20.9c-26.6-1.3-53.1-1.7-79.7-1.1
	c-1.4-0.3-2.8-0.2-4.2,0.1c-4.3,0.1-8.5,0.2-12.8,0.4c-25.7,0.9-51.6,1.3-77.2-1.9c-4.9-0.6-11.1-1.7-16.5-2.9
	c-2.7-0.6-5.4-1.3-8-2.2c-1.2-0.4-2.5-0.8-3.7-1.2c-0.6-0.2-1.2-0.4-1.8-0.7c-0.3-0.1-0.5-0.2-0.6-0.2c0,0-0.1,0-0.2-0.1
	c-2-0.9-3.9-1.9-5.8-3c-0.9-0.6-1.8-1.1-2.7-1.8c0,0-0.1,0-0.1-0.1c-0.4-0.4-0.9-0.7-1.3-1.1c-0.7-0.7-1.4-1.4-2-2.1
	c-0.2-0.3-0.4-0.6-0.6-0.9c-0.3-0.5-0.5-0.9-0.8-1.4c0-0.1-0.7-1.9-0.8-2.4c-0.1-0.4-0.2-0.6-0.2-0.7c0-0.1,0.1-0.3,0.1-0.7
	c0-0.9,0-1.9,0.1-2.8c0.1,0,0.5-2.3,0.6-2.7c0.5-1.8,1.2-3.6,2.1-5.3c5-9.6,13-17.4,19.5-26c14.2-18.6,19.1-44.5,13.5-67.3
	c0,0,0,0,0,0c0.2-0.6,0.3-1.2,0.5-1.7c0.1-0.2,0.5-1.1,0.8-1.5c0.4-0.6,0.6-1,0.8-1.2c3.4-3.9,4.2-4.3,9.1-7
	c8.9-4.9,20.1-7.8,31.1-10.2c27.7-5.9,56.3-7.4,84.5-8.5c11.9-0.4,23.8-0.7,35.7-0.9c13.1-0.3,26.2-1.2,39.3,0.4
	c18.6,2.4,36.4,8.8,53.9,15.4c1.9,2,4.4,2.8,7,2.7c2,0.8,4,1.5,5.9,2.3c23.1,8.8,47,15.5,71.2,20.6c57.5,12.1,115.5,6.1,173.9,6.1
	c12.1,0,12.1-10,0-10c-53.5,0-107.1-2.2-160-12.4c-18.7-3.6-37.3-8.1-55.5-13.8c4.9-0.1,9.8,0,14.6,0.2c16.7,0.7,33.2,3,49.9,4.5
	c39.8,3.7,80.3,2.8,120.3,2.8c41.8,0,83.6,0.5,125.5-0.2c21.2-0.4,42.5-1.1,63.7-2.3c10.2-0.6,20.4-1.3,30.6-2.2
	c7.6-0.7,15.3-1.8,23-1.4c2.2,0.1,2.7,0.1,5,0.8c0.3,0.1,0.5,0.2,0.6,0.2c0.1,0,0.2,0.1,0.6,0.3c0.3,0.2,0.7,0.4,1,0.6
	c0,0,0.1,0.1,0.3,0.3c2.1,1.9,4.3,6.9,5.6,10.9c5.9,17.6,6.7,35.9,10,54.1c3,16.5,11.7,30.4,18.6,45.4
	C2738.1,330.2,2741.2,337,2740.2,343z"/>
<path d="M2497.1,537.3c13.6-4.2,18.6-25.1,16.1-37.2c-2.6-12.8-12.9-23.6-24.8-28.4c-2.4-0.9-4.8-1.5-7.2-1.7
	c-3.4-14.1-17.2-20.5-32.1-21c-15-0.6-33.6,2-45.9,10.9c-17,12.3-17.1,33-16.8,52c0.4,28,2.7,56,5.1,83.9
	c2.4,27.7,4.1,54.9,3.5,82.7c-0.6,27.9-1.6,55.7,1.4,83.5c3.1,28.1,6.3,56.2,6.1,84.5c-0.1,13.3-0.9,26.6-2.9,39.7
	c-1.2,8.2-2.9,16.5-2.8,24.8c0.1,8.9,2.6,17.8,9.2,24.1c7.9,7.4,20.2,10.1,30.6,8.5c16.9-2.6,30.2-16.5,35.5-32.5
	c0.4-0.5,0.8-1.1,1.1-1.7c39.7-90.3,22.9-191.8,20.3-287.1c-0.8-28.5,2.7-56.6,3.4-85C2496.9,537.3,2497,537.3,2497.1,537.3z"/>
<path fill="#686868" d="M2476.7,825c-2,16.1-4.2,34.2-10.3,49.4c-6.6,16.4-11.9,49.9-34.8,51c-5.5,0.3-12.5-1.6-14.9-6.7
	c-2.1-4.3-1.4-10.7-0.9-15.8c2.1-20.1,5.3-39.7,5.3-60.1c-0.1-24.2-2.5-48.3-5.2-72.3c-2.7-24.3-3.4-48.3-2.8-72.7
	c0.5-23.4,1.4-46.8-0.3-70.2c-1.8-24.6-4.4-49.1-6-73.7c-0.8-11.9-1.4-23.9-1.7-35.8c-0.2-9.6-1.3-20,0.8-29.5
	c3.2-14.7,16.1-18.4,29.5-20.2c6.1-0.8,13.2-1.4,19.3-0.1c5.7,1.2,8.4,2.8,8.4,8.8c0,0.4,0,0.8,0.1,1.2c-0.3,0.6-0.6,1.1-0.8,1.7
	c-3.1,3.3-4.2,8.7-0.3,13c0.1,0.1,0.1,0.1,0.1,0.1c0.1,0.1,0.2,0.3,0.3,0.6c0.4,0.9,0.9,1.7,1.3,2.5c1.3,2.7,1.6,3.6,2.6,6
	c2.3,5.9,4.5,11.8,7.1,17.5c1.3,2.9,2.9,6,4.9,8.9c-0.2,0.8-0.4,1.7-0.4,2.8c-0.3,27-4.1,53.8-3.7,80.8c0.4,23.3,1.7,46.5,3,69.8
	C2480.1,729.6,2482.6,777.6,2476.7,825z"/>
<path fill="#9FAA63" d="M2492.7,516.1c-0.4-0.7-0.8-1.5-1.2-2.2c-1.1-2.1-2.1-4.5-2.9-6.3c-2.4-5.9-4.4-12.4-7.2-18.3
	c2.4,0.9,4.4,2,6.6,3.9C2495.4,499.7,2496.7,507.7,2492.7,516.1z"/>
<path d="M2106.4,303.8c-5.4-9.4-16.1-14.1-20.6-24.4c-2-4.7-1.4-10,3.4-12.8c4-2.3,10.8-1.3,12.8,3.4c4.4,9.9,15.3,14.9,20.6,24.4
	C2128.5,304.9,2112.3,314.3,2106.4,303.8z"/>
<path d="M2145.1,300.6c-5.3,1.5-9.6-1.9-11.5-6.5c-2.4-5.7-4.9-11.4-8.4-16.5c-2.9-4.2-0.8-10.4,3.4-12.8c4.6-2.7,10-0.8,12.8,3.4
	c4.4,6.5,7.3,13.8,10.3,21C2153.6,293.8,2149.5,299.4,2145.1,300.6z"/>
<path d="M2616.4,315.1c-6.1-9-21.3-8.5-30.9-9.6c-14.2-1.6-28.4-4.2-38.9-14.7c-8.6-8.5,4.7-21.8,13.3-13.3
	c9.3,9.2,24.2,8.9,36.4,10.4c14.3,1.7,27.9,5.1,36.4,17.7C2639.3,315.6,2623.1,325,2616.4,315.1z"/>
<path d="M2599.1,339.5c-5.5-5-12.2-8.3-19.6-8.5c-12.1-0.3-12.1-19.1,0-18.8c12.5,0.4,23.7,5.6,32.9,14
	C2621.3,334.3,2608,347.6,2599.1,339.5z"/>
<path d="M2260.7,462.2c-0.6,5-3.8,9.4-9.4,9.4c-4.6,0-10-4.3-9.4-9.4c1.1-8.8,6.2-20.8,1.3-29c-6.2-10.4,10-19.8,16.2-9.5
	C2266.9,436.3,2262.4,448.8,2260.7,462.2z"/>
<path d="M2581.7,464.7c-2-6.9-2.8-14.1-2.2-21.2c0.4-5.1,4-9.4,9.4-9.4c4.8,0,9.8,4.3,9.4,9.4c-0.5,5.6,0,10.8,1.5,16.3
	C2603.1,471.3,2585,476.3,2581.7,464.7z"/>
<path d="M2152,974.1c-0.1,5.3-4.2,9.1-9.4,9.4c-5,0.2-9.5-4.5-9.4-9.4c0-0.7,0-1.5,0-2.2c0,0,0,0,0-0.1c-0.1-0.7-0.3-1.5-0.6-2.2
	c-0.2-0.6-1-2.4,0-0.2c-1.1-2.4-1.5-4.6-0.9-7.2c0.5-2.4,2.3-4.3,4.3-5.6c2-1.3,5-1.6,7.2-0.9c2,0.6,4.7,2.3,5.6,4.3
	C2150.8,964.5,2152.1,969,2152,974.1z"/>
<path d="M2577.6,951.6c-5.5,0-8.8-4.3-9.4-9.4c-0.9-7.4-3.2-14.7-5.3-21.9c-3.3-11.6,14.8-16.6,18.1-5c2.5,8.9,4.9,17.6,6,26.9
	C2587.6,947.3,2582.2,951.6,2577.6,951.6z"/>
<path d="M2604.8,925.9c-4,2.6-10.8,1.1-12.8-3.4c-2-4.4-3.7-8.8-4.7-13.5c-1.1-5.1,1.5-9.9,6.5-11.5c4.6-1.5,10.5,1.7,11.5,6.5
	c0.4,1.8,0.9,3.6,1.4,5.4c0.2,0.8,0.5,1.5,0.8,2.2c0.1,0.3,0.2,0.5,0.3,0.8c0,0.1,0.1,0.3,0.3,0.6
	C2610.4,917.9,2609.4,922.9,2604.8,925.9z"/>
<g>
	<path d="M1888.6,196.7c-9.1-32.2-26.7-62-51.2-83.6c-10.1-8.8-21.2-16.7-33.4-22.3c-16.1-7.4-33.5-12.3-50.5-17.2
		c-37.2-10.6-75.4-17.5-113.9-21.4c-77.1-7.6-155.3-1.5-231,14.8c-39.7,8.6-79.4,17.6-118.8,27.3c-33.6,8.2-68,15.6-100.6,27.3
		c-34.3,12.2-71,30.8-92.4,61.4c-11.5,16.5-16,33.6-16.2,53.4c-0.3,20.2-4.6,40.1-4.7,60.2c-0.1,18.2,6.6,34.2,8.5,51.7
		c0.2,1.9,1.1,3.7,2.9,5.4c6.3,5.8,12.8,11.2,19.6,16.1c0,1.4,0.5,2.9,1.4,4.5c14.9,24.4,33.3,46.2,39,74.9
		c6.2,31.4,6.9,63.9,7.3,95.8c0.2,15.6,0.3,31.2,1.8,46.8c1.4,14.2,0.9,27.6-1.7,41.6c-2.5,13.4-5.5,26.6-6.9,40.2
		c-1,9.8-0.1,20.2,6.9,27.8c1.7,1.9,3.6,3.5,5.7,4.8c-1.6,3-3.4,6.1-4.9,8.9c-3.4,6.3-6.8,12.8-8.9,19.6c-4.3,14,1.6,28.7,17.7,29.9
		c3.9,0.3,8-0.2,11.9-1.2c-0.6,10.6,0.1,21.2-0.1,31.8c-0.2,11.9-2.7,23-5.8,34.4c-5.5,20-10.3,41.1-8.3,62
		c1.9,20.7,13.2,37.1,33,44.2c7.4,2.7,16.1,3.4,22.8,7.9c6.8,4.6,9.3,13.1,11.5,20.5c2.2,7.8,4.3,16,8.7,23
		c5.1,7.9,12.5,13.8,21.1,17.6c16.3,7.3,34.3,10,51.9,12.4c21.1,2.9,41.7,5.2,63,3.1c24.4-2.4,48.2-8.1,72.2-13.1
		c49-10.2,98.1-21.7,147.7-28.7c47-6.6,94.8-3.2,141.3-14.1c29-6.8,63.8-11.8,81.9-38.4c11-16.2,10.8-36.7,10.3-55.6
		c-0.6-24.9-3.7-49.7-5.8-74.5c-2-24.1-1.7-47.2,2.6-71c4.1-22.8,9.6-45.6,10.6-68.8c0.6-14-1.6-27-5.7-39.1
		c0.7-0.9,1.2-1.9,1.6-3.2c5.4-18.7,18.7-34.3,22-53.7c3.6-21.3-6.6-39.8-13.9-59.1c-3.8-10.2-5.8-20-5.7-30.9
		c0.1-11.6,1.7-23.2,2.9-34.7c2.3-21-0.1-43,5.9-63.4c0.8-2.5,0.5-4.8-0.5-6.6c2.1-1.7,4.1-3.3,6.1-5.1
		C1894,320.3,1904.9,254.5,1888.6,196.7z"/>
	<path fill="#706F6F" d="M1873,233.2c3,18.3,6.1,36.7,4.7,55.3c-3.6,6.7-7.3,13.3-11.2,19.7c-4.4-15-7.3-30.3-11.5-45.4
		c5.8-7.8,10.8-16.1,15.2-24.8C1871.1,236.4,1872.1,234.8,1873,233.2z"/>
	<path fill="#B2B2B2" d="M1183,143.9c27.6-11.1,57-17.8,85.7-25.1c37.1-9.4,74.4-18.1,111.7-26.4c36.1-8.1,72.3-15.8,109.1-20
		c36-4.1,72.4-5.7,108.7-4.3c36.1,1.3,72.1,5.6,107.4,12.9c18.2,3.8,36.3,8.4,54.1,13.8c11.1,3.4,22.5,6.6,33.1,11.3
		c-3.9,1.8-7.8,3.9-11.8,5.9c-4.5,2.2-5.8,8.7-3.4,12.8c2.7,4.6,8.3,5.6,12.8,3.4c5.5-2.7,11.5-7.3,17.8-8.1c2.1-0.2,4-1,5.6-2.1
		c1.9,1.3,3.8,2.7,5.6,4.2c-17,6.2-33.1,14.6-49.7,21.7c-4.7,2-5.6,8.8-3.4,12.8c2.8,4.9,8.2,5.3,12.8,3.4
		c16.8-7.1,32.9-15.8,50.3-21.6c2-0.7,3.5-1.8,4.5-3.1c9.8,10.3,17.9,22.1,23.3,34.9c19.7,46.9-20.7,93.9-57.2,118.5
		c-43.1,29-96.1,40-146.7,47.6c-12.9,1.9-25.9,3.8-38.9,5.5c-3.8-4-11-2.7-14.4,1.8c-28.2,3.5-56.6,6.4-84.9,8.5
		c-2.1-1.5-4.6-2.1-7.5-1.3c-1.3,0.4-2.6,1.1-3.7,2.1c-9.6,0.7-19.1,1.2-28.7,1.7c-68.5,3.4-137.9,1.2-205-14.1
		c-16.8-3.8-33.5-8.3-50-13c-15.8-4.5-31.6-9.8-45.8-18.3c-27.2-16.4-60.8-47.4-68.3-80.1C1096.1,185.6,1149.3,157.5,1183,143.9z"/>
	<path fill="#706F6F" d="M1684.8,385.2c2.2,8.3,4.6,16.8,8.1,24.7c-4.8,1.4-9.5,2.8-14.3,4.1c-0.2-0.8-0.6-1.6-1-2.3
		c-10.2-17.2-11.7-38.2-16.7-57.4c36.1-5.5,72.1-13,106-26.7c2,3.7,3.5,7.6,3.9,12c0.4,5,4,9.4,9.4,9.4c4.8,0,9.8-4.3,9.4-9.4
		c-0.6-7-2.4-13.5-5.5-19.6c8.3-4,16.4-8.6,24.1-13.6c3.3,17.3,5.8,34.7,13.5,50.8c-14,10.4-29.5,19.2-45.3,25.9
		c-20.9,8.9-43.2,15.2-65.2,21.5c-3.7-7.7-6-16.1-8.2-24.4C1699.8,368.6,1681.7,373.5,1684.8,385.2z"/>
	<path fill="#706F6F" d="M1441.1,407.7c2.2,9.4,3.6,18.9,3.7,28.6c-5.1-0.2-10.3-0.5-15.4-0.7c-16.5-0.8-32.9-2.4-49.1-4.4
		c1.6-12.9-1.1-26-1.4-39c-0.2-12.1-19-12.1-18.8,0c0.2,12,3.2,24.5,1.6,36.5c-8.9-1.3-17.8-2.8-26.6-4.4c-5.8-17.3-3.1-36-4-54.2
		c3.3,0.4,6.7,0.8,10.1,1.1c35.3,3.6,70.8,4.5,106.3,3.6c18.9-0.5,37.8-1.4,56.6-2.7c2,8,2.8,16.3,4.5,24.4
		c2.4,11.8,20.5,6.8,18.1-5c-1.4-6.9-2.3-14-3.7-20.9c26.3-2.2,52.5-5,78.7-8.3c2.4,7.1,5.5,14,8.2,21c1.8,4.7,6.3,8,11.5,6.5
		c4.5-1.3,8.4-6.8,6.5-11.5c-2.4-6.2-5-12.2-7.3-18.5c7.2-0.9,14.4-1.9,21.6-2.9c5.8,20.7,7.5,43,18,62.1
		c-16,4.2-32.2,7.9-48.5,10.9c-49,8.8-98.6,8.9-148.2,7.1c-0.1-11.6-1.7-23.1-4.4-34.3C1456.4,391,1438.3,396,1441.1,407.7z"/>
	<path fill="#706F6F" d="M1179.3,333.1c7,3.2,14.3,6,21.7,8.4c0,0.2,0.1,0.4,0.1,0.6c3.6,12.2,1.6,25.3,5.6,37.5
		c3.7,11.4,21.8,6.5,18.1-5c-2.9-8.8-2.7-18-3.7-27.1c5.4,1.5,10.8,2.9,16.2,4.3c24.9,6.5,49.8,11.8,75.1,15.7
		c2.1,17.6-1,35.5,2.3,52.9c-20.7-4-41.3-8.6-62-13.2c-23.3-5.2-46.6-11-69-18.9c-0.1-0.2-0.1-0.4-0.2-0.6
		C1177.1,370.2,1180.9,351.4,1179.3,333.1z"/>
	<path fill="#706F6F" d="M1132.9,335.2c-2.3-11.8-20.4-6.8-18.1,5c0.9,4.7,1.7,9.3,2.3,14c-5.3-3.9-10.4-8-15.3-12.5
		c-10-28.3-8.4-49.3-2.7-78.4c16,22.5,31.9,36.6,53.7,53.9c2.5,2,5.1,3.8,7.7,5.5c-0.9,1.7-1.2,3.9-0.7,6.3
		c3.7,16.9,0.2,34.1,2.5,51c-8.7-3.8-17.2-8-25.4-12.8C1136.7,356.4,1135,345.8,1132.9,335.2z"/>
	<path fill="#B2B2B2" d="M1834.3,555.3c-1.8,14-9.7,26.3-16,39c-8-13.7-18.2-26.5-29.3-38.6c-2.4-2.6-4.8-5.2-7.2-7.7
		c0.9-2.8,0.4-6.1-2.5-8.7c-5.3-4.8-9.7-8.6-17.4-8.1c-8.1,0.5-12.4,9.9-6.6,16c23.7,25.5,52,51.1,59.1,86.7c4,20.1,0,41.2-3.7,61.1
		c-4.1,21.8-8.9,43.6-9.6,65.8c-0.8,23.4,2.7,47,4.8,70.3c1.1,11.6,2,23.2,2.4,34.9c0.4,10.7,1,22-0.6,32.6
		c-4.8,30.4-35.2,38.3-61,44.3c-18.8,4.4-37.4,8.4-56.7,10.2c-23.3,2.2-46.6,2.5-69.9,4.3c-46.9,3.5-93,14.4-138.9,24
		c-23,4.8-46,9.5-69,14.2c-22.7,4.7-45.7,8.4-69,7c-17-1.1-34.5-3.6-51.2-7.1c-14.4-2.9-32.8-6.4-39.8-21
		c-7.3-15-7.1-32.5-21.1-43.9c-12.9-10.6-32.9-8.2-43.7-21.4c-10.7-13.1-7.6-35.5-4.8-50.9c3.9-22.1,12.3-42.4,12.4-65.3
		c0-11.1-0.7-22.2,0.3-33.3c0.1-1.6-0.1-3-0.6-4.2c2.9-1.6,5.7-3.4,8.3-5c10.9-6.9,23.9-15.7,30.4-27.3c5.9-10.5-10.3-20-16.2-9.5
		c-3.6,6.5-13.5,13.9-21.1,18.9c-8.4,5.6-20.2,12.6-29,13.4c-0.2,0-1.5,0-2,0c-0.5-0.1-1.1-0.2-1.3-0.4c0.8-3.7,1.1-7.3,3.1-11.6
		c3.4-7.5,8-14.4,11.5-21.8c16.9,1.6,36.1-5.5,46-17.2c7.8-9.2-5.4-22.5-13.3-13.3c-6.1,7.2-16.4,10.9-25.7,11.6
		c-6.3,0.4-16.1-0.6-18.6-7.4c-3-8.2,0.8-20.5,2.3-28.7c2.3-12.5,5.2-25,6.4-37.7c1.4-14.5-0.8-28.8-1.5-43.2
		c-0.7-14.4-0.6-28.9-0.8-43.3c-0.5-29.6-2-59.7-7.8-88.7c-4-20.1-13.7-37-24.3-53.6c26.5,13.4,55.3,22.5,84.7,29.6
		c58.9,14.2,119,27.8,179.5,32.6c31.6,2.5,63.5,3.6,95.2,4c31.9,0.3,63.7-1,95.3-5.4c29.7-4.1,58.9-11,87.7-19.2
		c7.8-2.2,15.6-4.4,23.4-6.7c1.7-0.1,3.5-0.6,5-1.4c19.2-5.6,38.4-11.5,57.1-18.1c18.2-6.5,35.5-15.1,51.7-25.6
		c-2.5,16.7-1.6,33.8-3.2,50.6c-2.2,22.4-6.4,45.3,0.3,67.4C1823.3,516.6,1836.8,535.5,1834.3,555.3z"/>
	<path fill="#706F6F" d="M1839.8,342.1c-1,1-2.1,2-3.2,2.9c-6.8-16-8.3-33.8-11.7-50.7c5.4-4.4,10.5-9,15.3-14
		c3.5,14.5,6.6,29,11.6,43c0.5,1.3,1.2,2.4,2,3.3C1849.5,332.1,1844.9,337.3,1839.8,342.1z"/>
</g>
<g>
	<path d="M1671.4,149.4c-5.6-9.5-12.8-17.8-19.6-26.4c-3.2-4-9.9-3.3-13.3,0c-1.4,1.3-2.1,2.8-2.5,4.4c-10.6,4.7-22.1,6.4-32.9,0.6
		c-11.9-6.4-21.4-17.4-29.4-28.1c-8.7-11.5-17.2-22.7-32.1-25.9c-15.4-3.2-30.6,3.1-45.1,7.2c-33.2,9.5-67.6,14.5-101.1,22.9
		c-13.7,3.4-27.5,8.9-33.1,22.9c-4.7,11.8,1.4,24.9-3.6,36.3c-4.5,10.2-16.9,14.9-26.6,18.4c-12.9,4.7-26.4,8.1-38.5,14.7
		c-1.1,0.6-2,1.3-2.7,2.1c-6.6,5.5-7.7,15.2-14.8,20.4c-26.6,19.4,84.8,39.1,88.4,37.8c28.4-10.6,67.4-21.3,80.2-52.2
		c2.1-5.2,3.4-10.6,4.8-16c1.5-5.7,2.6-13.3,7-17.6c3.9-3.8,9.9-4.8,15.1-5.7c6.8-1.1,13.7-1.5,20.5-2.8c7.3-1.3,14.3-3.5,21.2-6
		c10.6,14.2,24.5,24.7,42.6,27.3c19.1,2.8,38.3-0.8,57.4-1.8c2-0.1,3.6-0.7,4.9-1.6c4.9-0.8,9.8-1.9,14.5-3
		c12.9-3.2,27.3-7.5,37.3-16.7C1673,158,1673.4,152.9,1671.4,149.4z"/>
	<path fill="#B2B2B2" d="M1355,236.5c-18.2-0.7-35.2-8.2-52.3-14.5c0.6-1.1,1.2-2.2,1.8-3.3c0.3-0.5,0.5-1.1,0.7-1.7
		c17.2,5.6,35.2,8.6,53.3,9.6C1357.1,229.9,1356,233.1,1355,236.5z"/>
	<path fill="#9D9D9C" d="M1452.7,151.2c-13.9,6.3-18.1,20.1-21.6,33.8c-3.1,11.9-6.5,20.7-16.7,28.3c-11.6,8.6-24.8,14.2-38.2,19.3
		c1-2.5,2-5,3.1-7.5c13-5.7,25.4-13,35.7-22.7c4-3.8,7.8-8.2,9.2-13.7c1.3-5.3,0.4-10.7,0-16.1c-0.7-10.5-0.6-20.6,9.6-24.9
		c11.2-4.7,24.2-4.6,35.9-7.5c14.5-3.5,28.1-10.1,42.5-14.1c9.9-2.7,19.2-4.3,27.1,1.6c-15.6,4.2-30.3,11.4-46,15.4
		C1479.9,146.5,1465.4,145.5,1452.7,151.2z"/>
	<path fill="#575756" d="M1531.7,149.7c6-2.1,12.1-4.1,18.4-5.4c0.7-0.1,1.3-0.4,1.9-0.6c4.7,7.6,9.1,15.7,14.7,22.5
		c-1.4-0.1-2.7-0.1-4.1-0.3C1549.7,164.8,1539.7,158.8,1531.7,149.7z"/>
	<path fill="#DADADA" d="M1627.6,159.4c-10.4,2.6-24.1,5.4-33.9,3.2c-9.9-2.2-15.8-12-20.8-19.9c-6.2-10-11.8-21.2-20.9-28.9
		c-23.2-19.8-55.4-1.7-79.8,6.2c-20.7,6.7-52.6,3.4-63.4,26.7c-3.4,7.3-4,15.4-3.6,23.3c0.2,3.3,0.6,6.7,0.8,10
		c0.1,1.2,0.1,2.4,0.1,3.5c0,0.2,0,0.3,0,0.4c0,0.2-0.1,0.3-0.1,0.4c-0.1,0-1.2,1.7-0.8,1.3c-1.1,1.2-2.2,2.3-3.4,3.4
		c-3.2,3-6.6,5.6-10.2,8.1c-6.6,4.4-13.5,8.2-20.8,11.3c-15-0.2-29.8-1.7-44.4-5c14.4-4.7,28.9-9,40.2-19.6
		c9.3-8.7,13-20.7,12.5-33.2c-0.2-5.4-1.7-11.8,0.6-16.9c2.5-5.7,8.6-7.9,14.1-9.6c13.9-4.3,28.6-7,42.8-10.1
		c18.5-4,37.2-7.4,55.6-12.1c7.9-2,15.5-4.5,23.3-6.7c6.7-1.9,14-4.2,21.1-3c13.3,2.2,20.3,17.1,28.2,26.5c10,12,21.7,23.5,36.7,29
		c14.6,5.4,29.6,2.6,43.3-3.6c2,2.5,3.9,5.1,5.8,7.7C1643.7,155.3,1634.7,157.7,1627.6,159.4z"/>
</g>
<path d="M1765.1,898.4c-25.3-1.6-29.1-36.2-31.3-55.5c-2.9-25.8-3.2-51.9-5.3-77.8c-3.3-39.5-7.3-79-7-118.7
	c0.1-19.5,1.7-38.8,3.5-58.3c1.8-19.4,3.6-39.5,0.4-58.8c-2.1-12.8-5.6-23.3,0.1-35.8c7.5-16.6,20.8-30.2,29.7-46.1
	c5.9-10.5,22.1-1.1,16.2,9.5c-4.8,8.6-10.5,16.5-16.2,24.5c-4.9,6.8-11,14.2-13.7,22.3c-1.7,4.9-0.4,9.2,0.7,14.1
	c2,8.9,3,18,3.4,27.2c0.7,18.5-1.2,36.9-2.9,55.2c-1.6,17.8-2.5,35.7-2.4,53.6c0.3,37.2,4,74.3,7,111.3c2,24.5,2.5,49.2,4.9,73.7
	c1,9.8,2.4,19.7,5.5,29.1c1,3,3.2,7.8,4.2,9.1c0.4,0.5,2.1,1.9,2.2,2.2c0.4,0.2,0.9,0.3,1,0.3c0.7,0.1,1.6,0.2,0,0.1
	C1777.1,880.4,1777.2,899.2,1765.1,898.4z"/>
<path d="M1594.8,724.6c-3.1-10.9-8.2-21-11.2-31.9c-3.3-11.7,14.8-16.6,18.1-5c3.1,10.9,8.2,21,11.3,31.9
	C1616.2,731.3,1598.1,736.2,1594.8,724.6z"/>
<path d="M1623.2,701.2c-5.2,1.4-9.7-1.8-11.5-6.5c-2.9-7.5-3.5-15.6-8.4-22.1c-3.1-4.1-0.6-10.5,3.4-12.8c4.7-2.8,9.8-0.7,12.8,3.4
	c5.9,7.9,6.9,17.7,10.3,26.6C1631.6,694.4,1627.7,699.9,1623.2,701.2z"/>
<path d="M1224.5,878.7c-4.4-7.2-6.7-15.1-6.9-23.5c-0.3-12.1,18.4-12,18.8,0c0.1,5.1,1.6,9.6,4.3,14
	C1247,879.6,1230.8,889,1224.5,878.7z"/>
<path d="M1261.7,865.2c-4.7,2.8-9.8,0.7-12.8-3.4c-5.5-7.2-7.8-16.4-6.9-25.4c0.5-5.1,3.9-9.4,9.4-9.4c4.7,0,9.9,4.3,9.4,9.4
	c-0.6,6.2,0.5,10.9,4.3,15.9C1268.2,856.4,1265.7,862.9,1261.7,865.2z"/>
<path d="M1220.5,194c-13.2,6.1-26.1,12.7-39.7,17.8c-11.3,4.2-16.2-13.9-5-18.1c12.1-4.5,23.6-10.5,35.3-15.9
	C1221.9,172.7,1231.4,188.9,1220.5,194z"/>
<path d="M1233.6,216.9c-7.9,7-17.3,11.1-26.3,16.5c-10.4,6.2-19.8-10-9.5-16.2c7.5-4.4,15.9-7.7,22.5-13.5
	C1229.4,195.6,1242.7,208.9,1233.6,216.9z"/>
<path d="M1739.9,265.2c-2.1,1.4-4.2,2.8-6.3,4.3c-1,0.7-2.1,1.5-3.1,2.2c-0.5,0.4-1,0.7-1.4,1.1c-0.1,0.1-0.2,0.2-0.4,0.3
	c-4.1,3.2-9.1,3.8-13.3,0c-3.4-3.1-3.9-10.2,0-13.3c4.9-3.8,9.8-7.5,15-10.8c4.4-2.9,10.2-0.7,12.8,3.4
	C1746,256.8,1744,262.5,1739.9,265.2z"/>
<path d="M1709.9,256.2c-3.8,3.1-7.5,6.2-11.3,9.4c-4,3.4-9.3,3.7-13.3,0c-3.5-3.2-3.8-10.1,0-13.3c3.7-3.2,7.5-6.3,11.2-9.4
	c4.1-3.3,9.2-3.7,13.3,0C1713.3,246.2,1713.7,253.1,1709.9,256.2z"/>
<g>
	<g>
		<path d="M1083.6,691.6c-6.1-35.2-14.1-70.1-25.3-104c-22.8-68.6-57.1-134.4-97.2-194.5c-33.3-49.8-77.3-95.4-135.3-114.9
			c-16.7-5.6-34.3-8-51.8-7.8c3.4-13.7,5.1-27.9,7.7-41.9c0.4-1.9,0.2-3.7-0.4-5.2c0.1-10.1-6.5-19.2-10.9-27.8
			c-5-9.9-10.5-20.2-19.8-26.7c-10.4-7.4-23.4-7-35.4-8.8c-14.4-2.2-28.8-4.7-43.1-7.3c-29-5.2-58.1-10.4-87.5-12
			c-29.8-1.7-59.9,0.9-89.8,0.4c-30.4-0.5-60.8-1.8-91.2-1.8c-61.4-0.1-122.8-0.6-184.1,0.8c-36.7,0.9-74.8,0.5-110.7,9.4
			c-14.4,3.6-29.7,9-40.6,19.4C57.4,179.1,54,193.9,58.7,208c0.9,2.6,2,4.9,3.3,7.1c0.1,0.7,0.2,1.4,0.4,2.1c-0.4,1.8-0.2,3.9,0.8,6
			c15.3,32.3,32.2,64.4,38.8,99.9c3.4,18.6,2.5,37.5,2,56.3c-0.6,20.3-1.6,40.6-1.6,61c0,18.6,0.5,37.1,4.7,55.3
			c4,17.4,10.4,34.1,14.6,51.4c4.4,17.8,4.2,35.7,4.8,54c0.6,20.3,1.2,40.6,1.5,61c0.3,21.7-0.6,43.5,1.1,65.1
			c0.8,10,2.6,19.8,4.7,29.6c-0.6,1.6-0.8,3.5-0.2,5.7c1.2,4.7,1.9,9.5,2.5,14.3c-0.2,2.1-0.5,4.2-1.1,6.3
			c-11.8,11.1-22.3,28-21.3,44.5c-0.4,1.1-0.6,2.3-0.5,3.7c0.9,13.4,4.1,26.3,7.1,39.4c1.5,6.4,3,12.9,3.8,19.4
			c0.6,4.8,0.7,9.7,1.8,14.4c1.8,7.9,6.8,13.3,14.6,15.7c11.6,3.7,24.9,4,36.9,5.5c56.3,7.1,112.2,7.6,168.8,5.1
			c28.7-1.3,57.4-2.6,86.1-3c29.7-0.4,59.5-0.3,89.2-1.2c29-0.9,57.7-1.8,86.7-0.1c28.8,1.6,57.6,4.2,86.5,4.3
			c11.1,0.1,23,0.2,33.6-3.5c12.5-4.3,19.3-13.4,20.3-26.5c1-13.9-0.8-28.4-1.5-42.3c-0.4-7.7-0.3-15.3-1.2-22.9
			c-0.3-2.3-0.6-4.7-0.9-7c5.6-26.3-18-47.2-40.2-56.6c-1.8-0.7-3.6-1.1-5.4-1.1c0.2-0.8,0.4-1.5,0.6-2.3c1.5-6.5,3.3-12.9,4.7-19.4
			c2.8-13,4.6-26.4,6.7-39.5c0.9-5.3,1.7-10.7,2.4-16c3,4.4,6,8.7,8.9,13.1c15.9,23.6,33.1,46.4,48.4,70.4
			c26,40.4,44.2,90.7,84.2,120c39.4,28.8,97.3,28.4,140.8,9.8c0.8-0.3,1.5-0.8,2-1.4c13.5-0.9,27.8-5.2,39.9-10.5
			c10.8-4.7,20.5-11.7,28.1-20.7c19.9-23.4,27.1-53,28-83.2C1095.3,757.8,1089.2,724,1083.6,691.6z"/>
		<path fill="#EDEDED" d="M75.7,199c-1-4.5-0.4-8.5,1.8-12.2c2.3-4,6-7,10.7-9.7c5.7-3.4,11.3-5.5,17.7-7.5
			c29.4-9,60.7-9.3,91.3-10.3c57.3-1.8,114.6-1.6,171.8-1.5c28.8,0.1,57.5,0.1,86.3,0.9c28.8,0.8,57.6,1.7,86.4,0.9
			c28-0.8,55.2-0.1,83,4c27.1,4,53.9,9.5,80.9,13.7c6.1,1,12.2,1.8,18.3,2.4c5.3,0.6,11.4,1.1,15.9,4.2c7.6,5.2,11.6,15.3,15.6,23.3
			c2.2,4.3,5.5,8.8,6.7,13.5c1,3.6-0.5,6-2.5,9c-5.9,9.1-13.6,16.3-23.3,21.2c-22,11-48.2,12.7-72.4,13.6c-26,1-51.9,2-77.9,3.7
			c-56.2,3.7-112.5,3.8-168.7,2.3c-27.7-0.8-55.4-2.5-83-3.1c-27.9-0.7-55.9,0.7-83.8-0.2c-26.3-0.8-52-4.1-77.2-11.8
			c-23.7-7.3-46.5-17.5-68-29.8c-8.1-4.6-15.9-9.6-23.6-15C79,207.4,76.7,203.7,75.7,199z"/>
		<path fill="#B2B2B2" d="M129.3,506.1c-5.5-18.6-7.8-36.6-8.1-56c-0.3-20.3,0.5-40.7,1.2-61c0.7-19.5,2-39.4-0.5-58.8
			c-4-32.1-16.5-61.7-30.2-90.7c36.5,22.1,77.8,37.7,119.6,43.4c29.3,3.9,58.8,3.5,88.3,3.2c29.6-0.3,59,1.2,88.6,2.3
			c60.3,2.2,120.7,2.9,181-0.3c27.9-1.5,55.7-3.7,83.7-4.4c26.6-0.7,54.1-1.8,79.4-10.9c8.9-3.2,17.3-7.2,24.8-12.8
			c-0.8,3.9-1.8,7.7-3,11.6c-6.2,0.7-12.3,1.6-18.4,2.8c-10.5,2.1-21.1,5-31.3,8.9c-0.9,0.1-1.8,0.2-2.7,0.3
			c-11.2,1.2-23.9,3.5-33.5,9.7c-12.3,7.9-19.8,19.8-24.7,33.1c-11.6,1.8-23.4-3.1-35.2,0.3c-9.3,2.7-14.9,9.6-16.3,19
			c-1.8,11.7-2.3,23.8-3.8,35.6c-1.9,15.1-4,30.3-5.4,45.5c-2.6,29.8-2.9,59.9-3.4,89.8c-0.5,30.1-0.6,60.3-0.5,90.4
			c0.1,30.6,0.3,61.2,0.4,91.8c0.1,19.8-1.4,40-0.4,59.8c0.8,15.2,4.1,35.5,21.3,40c8.9,2.3,19.4,0.9,28.3-1
			c9.2-1.9,18.4-5.5,25.9-11.1c10.4-7.7,14.5-17.4,16.3-29.9c2.2-15.5,2.4-31.1,3.6-46.7c1-14,2.7-27.9,3.7-41.8
			c0.6-8.4,1.4-16.8,3.2-25c5,8.6,10.3,17,15.7,25.3c0,0.1,0,0.1,0,0.2c-0.2,22.6-5.1,45.1-8.8,67.4c-1.9,11.5-4.9,22.9-7.8,34.1
			c-1.4,5.3-3.1,10.7-3.1,16.3c0,4.8,2.4,9.4,2.4,14c0,3.9-5.3,7.9-8.7,10.3c-6.1,4.3-12.9,7.6-19.8,10.2
			c-16.4,6.3-33.4,8.5-50.9,9.3c-48.3,2-96.8-2.3-145.2-3.3c-48.6-1-97.2,0.7-145.8-1.4c-27.4-1.2-54.8-3.6-82.1-6.1
			c-12.6-1.2-24.5-2.8-36.8-6.2c-10.4-2.9-20.7-5.9-31.4-7.2c-3.1-8.1-3.8-17-4.5-25.9c1.4-13.8-3.2-27.2-5.5-41.3
			c-3.2-20-2.1-40.6-2.2-60.7c-0.1-20.4-0.6-40.7-1.2-61.1c-0.6-19.6,0.1-39.7-2.8-59.1C140.3,540,134.3,523.2,129.3,506.1z"/>
		<path fill="#B2B2B2" d="M603.1,779.4c-0.6-0.8-1.3-1.5-2.1-3.1c-2.5-5.3-3.1-12.8-3.3-19c-0.7-16.9,0.6-34,0.5-51
			c-0.1-28.1-0.3-56.3-0.4-84.4c-0.2-55.3-0.1-110.6,2.2-165.9c1.3-30.7,5.7-60.9,9-91.4c0.5-5,0.6-10.1,1.3-15.1
			c0.4-3.1,0.3-3.6,2.3-4.5c5-2.4,12-1,17.2-0.4c2.9,0.3,5.7,0.6,8.5,0.6c-1.5,7.4-2.5,14.8-3.3,21.8c-4.2,36.6-5.9,73.8-0.6,110.4
			c3.9,26.7,9,53.6,14.7,80c4.8,21.8,11.1,43.3,20.4,63.6c-1,1.1-1.7,2.4-2.3,3.7c-8.5,20.1-7.5,43-9.5,64.3
			c-1.1,12-2.4,23.9-3.1,36c-0.6,12-0.1,26-4,37.5c-4.7,13.7-25.6,18-38.1,18.3c-3,0.1-6.1,0.2-8.6-0.7
			C604,780.1,603.5,779.8,603.1,779.4z"/>
		<path fill="#B2B2B2" d="M729.7,887.5c0.3,7.3,2.6,17.7-5.6,21.1c-7.9,3.3-17.3,3-25.6,3.1c-26.9,0.1-53.8-2.1-80.6-3.7
			c-26.8-1.6-53.4-2.2-80.2-1c-55.7,2.4-111.5,0.8-167.1,3.6c-52.3,2.6-104.9,4.8-157.2,0.1c-14.4-1.3-28.7-3.1-43-5
			c-6.8-0.9-13.6-1.6-20.3-2.8c-1.6-0.3-3.8-1.3-5.4-1.4c0.4,0.5,0.2,1.3-0.1,0c0.1,0.6,0.1,0.4,0,0c0,0-0.1,0-0.1,0
			c0.1,0,0.1,0,0.1,0c0,0,0-0.1,0-0.1c0,0,0.1,0.1,0.1,0.1c0.4,0,0.1-0.1-0.1-0.2c-0.2-0.9-0.5-2.3-0.6-2.6
			c-0.4-1.9-0.5-3.9-0.7-5.8c-0.7-7-1.8-13.9-3.3-20.8c-0.9-4.3-2-8.7-3-13c12.3,6,27.2,8.1,40,9.6c57,6.7,114.1,7.1,171.4,8.2
			c113.9,2.3,230.4,23,342.7-5.8c13-3.3,26.7-8.3,37.3-16.6C728.5,865.5,729.2,876.5,729.7,887.5z"/>
		<path fill="#EDEDED" d="M724.5,810.4c0,0.2,0,0.4,0,0.7c0.2,5.4,0.8,10.7,1.5,16c-0.1,0.2-0.1,0.3-0.2,0.5
			c-6,16.5-26.2,22.1-41.5,25.9c-46.5,11.5-95.2,14.5-142.9,14c-54.9-0.6-109.5-5.9-164.3-8.3c-27.4-1.2-54.8-0.9-82.2-1.6
			c-27.7-0.7-55.3-2.1-82.9-4.4c-21.2-1.7-45.8-1.5-65.5-10.4c-8.6-3.9-15.3-10.5-14-20.6c0.8-6.1,3.6-11.7,7.3-16.7
			c1.1,4.7,2.6,9.4,4.8,14c1.5,3,4.9,4.5,8.1,4.6c11.6,0.6,22.7,4.3,33.8,7.4c11.5,3.2,22.8,4.9,34.6,6c24.9,2.3,49.8,4.6,74.8,6
			c50.6,2.7,101.2,1.2,151.8,1.9c50,0.7,100.1,5.3,150.1,3.5c19-0.7,38.2-2.6,56.1-9.2c14.5-5.4,30.9-12.6,40-25.8
			c2.4-3.5,4.1-7.7,4.4-12.1c0.2-4.8-1.7-9-2.3-13.6C706,792.5,719,800.1,724.5,810.4z"/>
		<path fill="#706F6F" d="M871.9,885.3c-18.6-11.2-32.2-29.9-43.6-48c-12.7-20-23.3-41.1-35.5-61.4c-13.8-22.7-30-44-45-66
			c-15.5-22.7-30.7-45.6-45.3-68.8c-14-22.2-24-45.3-30.7-70.7c-6.4-24.4-10.3-49.4-14.9-74.3c-10.4-57-10.8-115.6,14-169.2
			c0.4-0.9,0.7-1.9,0.8-2.8c10.9-9.9,23.8-17.3,37.5-22.7c3.8-0.2,7.7,0,11.3,0.7c-3.4,8.8-8.7,16.9-11.2,26.1
			c-3.6,13-4.9,26.4-7.5,39.6c-2.7,13.8-6.1,27.5-8.4,41.4c-2,12.5-2.6,24.9-3.1,37.5c-1.7,47.8-1.6,99,23.4,141.5
			c23.4,39.7,62.1,66.4,90.5,101.9c32,39.9,47.8,90.2,77.2,131.9c14,19.8,29.7,37,52.1,47.1c12.2,5.4,28.5,10.2,39.9,19.1
			c1.1,1.8,2.6,3.2,4.4,4c0.3,0.4,0.7,0.7,1,1.1C944.9,905.4,902.7,903.9,871.9,885.3z"/>
		<path fill="#B2B2B2" d="M1060.6,849.8c-11.3,19-28.8,30.6-51.5,29.5c-21.7-1.1-44.2-15.9-63.2-25.7
			c-60.7-31.2-78.3-100.8-112.7-154.7c-24.6-38.4-61.5-65.3-89.8-100.5c-14.4-18-24.3-38.3-29.3-60.7c-5.3-23.3-5.9-47.5-5.5-71.3
			c0.2-13.5,0.3-27.2,1.5-40.7c1.3-14.7,4.9-29.2,8-43.6c4.8-22.8,5.8-48.9,17-70.2c15.3-28.9,42.8-26.1,70.8-20
			c54.1,11.8,97.8,52.9,129.3,96.5c19.1,26.3,35.8,54.6,51.4,83.2c16.4,30.1,31.2,61.1,43.6,93.1c24.2,62.2,37.2,128.5,44.2,194.7
			C1077.6,789.7,1076.6,823.1,1060.6,849.8z"/>
	</g>
	<path fill="#B2B2B2" d="M144.6,901.4C144.6,901.4,144.6,901.4,144.6,901.4C144.6,901.4,144.6,901.4,144.6,901.4
		C144.5,901.4,144.5,901.4,144.6,901.4C144.6,901.4,144.6,901.4,144.6,901.4z"/>
</g>
<g>
	<path fill="#1D1D1B" d="M746.5,220.5c-0.8-18-15.1-29.3-31.3-33.7c-7.5-2.1-15.3-2.9-22.9-4.3c-10.6-1.8-21-4.8-31.6-7.1
		c-25.3-5.5-50.9-9.7-76.7-11.6c-26-1.8-52.2-0.8-78.2-0.2c-26.4,0.6-52.8,1.5-79.1,2.1c-26.4,0.7-52.9,1.1-79.3,0.9
		c-26.4-0.2-52.7-1.7-79.1-2.3c-26.2-0.5-52.4-0.3-78.7-0.3c-19.2,0.1-38.7-0.5-57.6,3.7c-14.6,3.3-35.7,12.2-36.2,30.1
		c-0.4,15.8,16.1,24.7,28.6,30c3,1.2,6,2.4,9,3.4c10.6,4.8,21.8,6.7,33.3,8.4c12.7,2,25.4,3.3,38.2,4.1c25.6,1.6,51.2,1.5,76.8,2.3
		c53.1,1.7,106.2,5.7,159.2,8.5c51.7,2.8,103.6,4,155.3,2.7c25.7-0.7,51.5-2,77.1-4.2c15.4-1.3,31.7-1.6,46.8-5.1
		C733.8,244.7,747.3,236,746.5,220.5z"/>
	<path fill="#575756" d="M727.3,223.9c-0.1,0.2-0.4,0.7-1.3,1.6c-0.8,0.7-0.9,0.8-2.4,1.6c-2.2,1.2-4.4,1.9-7.1,2.6
		c-12.7,3.3-26.5,3.3-39.5,4.5c-23.6,2.1-47.3,3.4-71,4.2c-48.2,1.6-96.4,0.8-144.6-1.4c-48.5-2.2-96.9-5.5-145.3-8
		c-23.9-1.2-47.9-1.9-71.8-2.4c-23.4-0.5-47-1.1-70.2-4.5c-7.2-1.1-14.8-1.9-22.1-3.8c-1.1-1.1-2.5-2-4.5-2.4
		c-2.2-0.5-4.6-1.1-7-1.8c-0.9-0.4-1.8-0.7-2.7-0.8c-7.9-2.4-16-5.9-21.4-11.5c-2.8-2.9-3-3.4,0.6-7c4.9-5,12.4-7.1,19-8.6
		c16.7-3.9,34-3.2,51-3.2c24.2-0.1,48.3-0.2,72.5,0.1c24.3,0.3,48.5,1.7,72.8,2.2c24.8,0.5,49.6,0.3,74.4-0.2
		c48.6-1,97.2-3.1,145.9-3.3c23.6-0.1,47,1.7,70.2,5.5c21.4,3.5,42.3,9.5,63.7,13.3c11.7,2.1,29.7,2,37.9,12.1
		C727.4,216.2,728.5,221.8,727.3,223.9z"/>
</g>
<g>
	<path d="M1009,706.8c13.3-15,24.5-31.8,23.5-52.4c-0.8-15.8-5.4-31.7-8.6-47.2c-3.2-15.7-6.5-31.5-10.8-47
		c-8.4-30.2-23.2-57.8-36-86.3c-10.4-23-22-46.5-42.8-61.8c-22-16.2-49.7-16.9-76.2-16.8c-7.1-11-20-20.9-33.5-19.2
		c-15.7,2-22.1,17.5-20.8,31.6c1.3,13.4,6.6,26,13.3,37.5c7.5,12.6,18.3,25.7,34,27.1c15.8,1.4,26.8-11.6,28.3-26
		c0.6,0,1.3,0.1,1.9,0.1c7.5,0.3,15.5,0.4,22.4,3.9c8.6,4.4,14,13,19,20.9c5.8,9.3,10.7,19.2,15.1,29.2
		c8.5,19.8,14.9,40.5,21.4,61.1c6.5,20.5,14.1,40.8,17.7,62.1c2,11.6,2,23.1-0.4,34.1c-12.8-4.8-28.1-5.8-38.5,4.5
		c-9,8.9-11.1,22.8-9.8,34.8c1.6,15.1,7.6,28.6,17.3,40.1c12.3,14.6,33.6,27.5,52.8,18c17.7-8.8,16.1-32,11-47.9
		C1009.1,707.1,1009.1,707,1009,706.8z"/>
	<path fill="#EDEDED" d="M846.1,451.2c-8.9-6.2-14.9-17.9-19.1-27.6c-2.8-6.5-7.6-19.3-3.6-26.2c2.9-5,8-2.7,12.4,1
		c-2.4,1.4-4,4-3.8,7.7c0.7,13.5,6.7,24.9,16.5,34.1c1.9,1.8,4,2.6,6.1,2.6c2,0.6,4.1,1.1,6.1,1.5
		C859.8,451.8,854.4,456.9,846.1,451.2z"/>
	<path fill="#EDEDED" d="M957.7,500c-4.5-11-9.4-21.9-15.3-32.2c-5.7-10-12.2-20.6-21.2-28c-18.2-15.1-40.7-9-61.7-15.1
		c-3-3.2-5.5-6.7-7-10.6c21.9-0.3,46.1-1.5,65.4,9.7c19.9,11.5,30.8,33,40,53.1c11.3,24.7,24.5,49,33,74.8
		c9.5,28.7,14.5,58.8,20.6,88.3c1.4,6.8,2.7,13.7,2.2,20.7c-0.5,7.4-3.9,13.7-8,19.8c-5.9,8.8-13.1,16.6-20.5,24.3
		c-2-2.9-3.9-5.8-6-8.6c12.5-17.5,18.7-37.7,17.6-59.6c-1.2-23.7-8.9-46.4-16.2-68.8C973.4,545,966.7,522.1,957.7,500z"/>
	<path fill="#EDEDED" d="M981.8,739.6c-14.3-1.8-26.7-17.1-31.7-29.9c-3.6-9.4-5.3-22.1-1.9-29.7c1.8-4,3.5-5.8,7.1-6.7
		c4-1,9.9,0.4,14.9,2.2c-2.5,4.9-5.5,9.6-9.2,14c-3.9,3.9-3.2,9.3,0,13.3c4.5,5.5,21.6,32,28.3,25c1.4-1.5,2.9-3,4.3-4.5
		C994.8,732,993.2,741,981.8,739.6z"/>
</g>
<path fill="#686868" d="M279.3,743.6c-0.2-7.8-1.6-15.5-2.5-23.3c-1-9.7-1.7-19.3-3-28.9c-2.9-20.7-7.6-41.2-9.2-62.1
	c-1.7-21.7-1.3-43.4-3.4-65c-2-21.7-4-43.4-5.1-65.2c-1-21.4-2.9-42.8-6.1-64c-2.8-18.6-7.7-36.7-11.2-55.1
	c-3.6-19-8.8-36.4-24.1-49.2c-16.2-13.5-35.7-22.7-56.1-27.6c-4.5-1.1-10.7,1.4-11.5,6.5c-2.7,17-7.1,33.8-6.8,51.2
	c0.1,7.7,7.8,10.5,13.3,8.4c0.7-0.1,1.5-0.3,2.3-0.6c3.8-1.4,5.3-1.4,7-0.7c3.6,1.5,5.8,3.8,8.5,7.1c5.4,6.8,9.4,15.7,12.5,24
	c8.5,22.5,12.4,46.3,16,70c2.8,18.4,6,36.7,9.2,55.1c3.3,18.6,3.7,37.7,4.8,56.5c2,36.8,6.9,73.3,10.4,110c1.3,12.9,1.5,26.1-0.2,39
	c-1.5,10.6-4.4,25-13.8,31.6c-7.7,5.4-4.8,16.7,4.7,17.5c14.1,1.1,28.7,5.4,42.8,1.8C274.4,776.3,279.8,759,279.3,743.6z"/>
<path d="M287.6,768.7c-1.8,7.6-5.9,14.8-12.9,18.8c-8.9,5.1-19.7,4.2-29.4,2.6c-7.2-1.2-14.3-3.3-21.4-5.1c-5.3-1.4-10.8-2.2-16-3.9
	c-8.3-2.6-14-7.4-16.8-15.7c-3.4-10.3-4.5-21.7-6.1-32.3c-2.2-14.5-4.3-29-7.7-43.2c-2.8-11.7,15.2-16.7,18.1-5
	c3.5,14.6,5.6,29.5,7.9,44.4c1.1,7,2.3,14,3.7,21c0.5,2.3,0.9,4.7,1.4,7c0.2,0.9,1.5,4.6,1,3.6c0.3,0.7,0.1,0.8,0.9,1.2
	c0,0,1.8,0.8,3.3,1.2c6.1,1.8,12.5,2.9,18.7,4.6c9.3,2.5,23.1,7.9,32.8,3.7c1.4-0.6,2.4-1.8,3.3-3.7c0.3-0.8,1.4-4.5,1.7-6.4
	c1.4-9.2,0.9-19.2,0.5-28.4c-1-27.4-5.1-54.8-8.2-82.1c-3.1-27.7-6.1-55.3-8.3-83.1c-2.1-27.3-3.1-54.5-7.2-81.6
	c-4-26.6-9.7-52.9-15-79.3c-3.4-17-4.6-34.2-7.9-51.2c-1.4-6.9-2.9-14.6-7-20.5c-1.3-1.9-2.7-3.2-3.9-3.7c-4-1.7-8.9-2.3-13.2-3.1
	c-13.8-2.7-28-5-40.5-11c1.3,15.1,0.2,30.6,1.1,45.7c1.5,26.8,9.2,52.9,13.2,79.3c0.8,5-1.2,10-6.5,11.5c-4.5,1.3-10.8-1.6-11.5-6.5
	c-4.1-26.9-11.4-53.3-13.7-80.4c-1.7-20.8-7.6-79.6,2.1-79.6c1.1,0,2.2,0.2,3.1,0.5c1.4,0.2,2.8,0.6,4.1,1.4
	c1.5,0.4,24.7,15.3,36.8,17.8c11.1,2.3,24.6,2.6,34.6,8.2c17.2,9.6,19.7,34.6,21.9,51.9c6.6,50.5,20.5,100.6,25,151.8
	c2.6,29.9,4,59.8,7,89.7c3,29.6,6.5,59.2,9.8,88.8c1.6,14.5,3,29.1,3.1,43.8C289.5,750.4,289.7,759.8,287.6,768.7z"/>
<path fill="#686868" d="M405.5,722.3c-1.7-23.9-1.5-47.8-2.1-71.7c-1.2-46.8-3.1-93.8-5.4-140.6c-2.1-42.9-6.4-85.7-11.8-128.1
	c-2.1-16.3-4.7-36.9-19.7-46.7c-18.5-12.2-41.9-3-61.9-8.4c-8-2.2-12.9,5.7-11.3,11.9c-1.1,5.3,1.9,11.5,8.8,11.5
	c10.6,0,20.4,2.7,27.8,10.7c6.8,7.4,10.3,17.4,13.1,26.8c8.2,28.5,10.3,57.8,11.3,87.3c2.5,70.8,5.9,141.4,6,212.2
	c0,19.1,0.9,38.1,1.3,57.2c0.1,7,1.3,14,1.6,21c0.1,3.9-0.3,7.1-1.5,10c-1.4-1-2.8-1.9-4.3-2.6c-7.8-4-18.4,4.5-12.8,12.8
	c2.9,4.3,6.8,7.6,11.3,10.2c0,0,0,0,0.1,0.1c1.5,1.9,3.7,2.7,5.9,2.7c6.9,2.6,14.6,3.4,21.6,2.8c7.1-0.7,14.4-2.7,19.7-7.7
	c5.5-5.2,7.1-12.6,7.6-19.8C411.6,756.7,406.7,739.3,405.5,722.3z"/>
<path d="M413,794.6c-3.2,6.4-9.2,9.5-16,10.8c-8.2,1.5-16.8,2.4-25.2,1.9c-17.8-0.9-35.6-8.1-43.6-25.2c-9.3-19.9-6.2-42.1-7.1-63.3
	c-1.1-23.2-0.8-47.6-6.2-70.3c-2.8-11.8,15.3-16.7,18.1-5c5.7,24.1,5.5,49.7,6.8,74.3c0.6,10.8-0.1,21.7,0.4,32.5
	c0.4,9.5,1.6,21,8,28.6c9.2,11.1,26.8,10.5,39.7,8.9c2.4-0.3,6.9-1,7.9-1.3c0.2-0.1,0.4-0.1,0.5-0.2c0.3-0.6,0.5-1.2,0.7-2.5
	c1.5-9.7-1.1-20.2-2-29.9c-1-11.5-0.9-23.1-1.6-34.6c-0.7-11.6-1.7-23.2-2.6-34.8c-1.9-23.3-3.7-46.6-3.7-70
	c-0.1-47.9,1.1-95.9-0.8-143.8c-1.8-44.5-11.4-87.3-19.5-130.9c-21.6-2.2-42.7-9.1-64.4-8.6c-1.9,17.7,3.4,35.6,2.2,53.4
	c-0.8,12-19.6,12-18.8,0c1.5-21-4.6-41.5-0.9-62.5c0.8-4.3,3.6-6.3,6.8-6.7c1.5-1.5,3.5-2.5,6-2.7c26.2-2.1,51.1,7.9,77,8.9
	c3.9,0.2,8.3,2.8,9,6.9c5.1,27.8,11.3,55.4,15.6,83.3c4.4,28.2,5.8,56.4,6.4,84.9c1,51.3-1.9,102.9,1.2,154.1
	c1.5,25.2,4.2,50.4,5.5,75.7c0.7,12.3,0.8,24.4,2.2,36.7C415.7,773.2,417.7,785.3,413,794.6z"/>
<path fill="#686868" d="M557.7,378.6c-0.4-0.7-0.8-1.4-1.2-2.1c0.2-1.3,0.2-2.8-0.4-4.5c-3.6-11.1,0.1-23.2-5.6-34
	c-3.9-7.4-10.5-9.7-18.4-10.2c-21.8-1.3-42.6,0.8-63.6,6.6c-4.3,1.2-6.5,4.9-6.9,9c-1.3,14.5-2.4,35.9,12.3,41.5
	c-1.8,11-1.4,22.5-0.7,33.4c0.7,11.1,1.7,22.2,1.2,33.3c-0.5,12-2.5,24-3.3,35.9c-1.7,23.5,1.5,46.8,1.9,70.2c0.4,24-0.6,48-1.6,72
	c-2.1,47.6-2.6,94.8,2.3,142.3c0.8,7.9,1.9,16.7,9.7,20.8c6.8,3.6,17.1,2.4,24.5,3.2c10.8,1.2,22.1-0.2,29.7-8.9
	c6.6-7.6,6.8-17.4,9.7-26.5c3.7-11.5-14.4-16.4-18.1-5c-1.8,5.6-1.7,13.2-5.1,18.2c-4.2,6.2-13.9,3.6-20.1,3
	c-3.2-0.4-6.4-0.5-9.6-0.6c-0.3,0-0.8,0-1.3,0c-0.1-1-0.5-2.1-0.6-3c-0.7-5-0.9-10.1-1.2-15.1c-1.4-20.5-3-40.8-3.1-61.3
	c0-20.7,0.8-41.4,1.7-62.1c0.9-20.3,1.8-40.6,1.9-61c0.1-20.9-1.2-158.9-0.4-176.8c0.5-9.6,1.6-27,13.9-28.2
	c16-1.6,28.4,5.5,36,19.3C547.4,398.6,563.6,389.2,557.7,378.6z"/>
<path d="M533.6,417.3c6.2-26.6,11.7-53.5,14-80.7c-11.2-0.1-22.3-0.2-33.5,0c-8.1,0.1-16.1,0.4-24.2,1c-4.1,0.3-8.9,0.3-12.3,2.9
	c-4.8,3.7-4.8,11.6-4.8,17.5c0.1,9.6,1.4,19.3,1.9,28.9c3,55.2,3.1,110.4,5.1,165.7c1,27.4,3.8,54.6,5.3,82
	c1.5,26.5,0.3,52.8-0.3,79.3c-0.5,22.2-0.6,44.3-1.5,66.5c0,0.5-0.1,5.3,0.1,8.3c1,0,2.8,0.3,3.5,0.3c7.3,0,14.5-1.2,21.7-2.2
	c5.4-0.7,13.6-0.4,17-4.6c6.4-8,5.1-23,5-32.6c-0.1-27.4,1.2-54.7,1.2-82.1c0-12.1,18.8-12.1,18.8,0c0,17-0.6,33.9-1,50.9
	c-0.4,16.4,0.8,33.2-1,49.6c-1.3,12.1-4.5,25.9-15.9,32.4c-8.2,4.6-18.5,4.5-27.5,5.8c-8.8,1.2-18.6,2.9-27.4,0.8
	c-10.1-2.5-13.1-11-13.4-20.5c-0.3-8.7,1.2-17.4,1.2-26.1c0-14.6,0-29.3,0.3-43.9c0.6-29.8,1.8-59.2-0.1-88.9
	c-1.9-29.8-4.8-59.5-5.2-89.3c-0.7-57.4-2.3-114.9-6.3-172.2c-1.2-17.6,1-37.6,19.9-44.4c12-4.3,27.1-3.2,39.7-3.4
	c15.3-0.2,35.7,0.1,51.1,0.1c9.3,0-6.7,75.4-13.5,104.4C548.9,434,530.8,429,533.6,417.3z"/>
<path fill="#575756" d="M670.2,614.9c-8.1-15.7-10.8-33.6-15.2-50.6c-5.2-20.2-14.1-38.8-16-59.8c-1.9-20.3-6.3-40.2-7.4-60.6
	c-0.8-14.8-2.4-25.9,0.9-56.7c1.6-3.2,5.8-42,5.8-42s-2.1-3.5-10.8-1.4c-3.1,0.7-4.3-0.5-7.9-0.4c-4.6,0.2-8.7,2.7-11,6.7
	c-3.6,6.6-3.3,26.8-3.5,29c-1.4,20.5-8.1,41.3-0.7,61.3c3.4,9.2,5.7,18.9,7.6,28.6c0.1,4.7,0.2,9.5,0.4,14.2
	c0.6,16.9,2.3,33.4,5.2,50.1c3,17.7,4.8,35.5,7.4,53.2c2.5,16.8,5.7,33.2,6.6,50.2c0.9,16.7,1.2,33.3,3.1,50
	c1.7,15.2,1.9,73.5,1.3,88.7c-0.2,5.4,0,0,11-6.9c7.7-4.8,8-14.7,8.4-21.6c0.4-5.8,9.5-75.1,9.9-84.1c0.3-6.9-0.1-13.8,0.2-20.8
	c0.2-4.6,0-12.2,3.2-15.9c1-1.2,1.6-2.4,2-3.7C671.6,620.3,671.6,617.6,670.2,614.9z"/>
<path fill="#575756" d="M680.8,645.4c-2.2,16.7-6.9,54.8-6.7,52.6c1.7-13.2-1.3,23.5-1.3,36.7c0,12.1-5.8,37.8-12.1,46.2
	c-5.6,7.5-11.3,6.3-10.2,11.2c1.7,7.1,13.3,20,13.7,20.4c31-8.3,4.2-38.7,19.8-39.7c12.7-0.8,8.4-22.9,8.7-35.8
	c0.4-13.2,0.6-26,2.3-39.1c0.8-6.2,0-12.8,1.9-29.4C688.8,659.6,681.6,638.9,680.8,645.4z"/>
<path fill="#686868" d="M1320.9,834.4c-1.6-24.9-4.6-50-8.6-74.7c-4.3-26.8-9.2-53.3-12.3-80.3c-3.2-27.3-6.3-54.8-12.3-81.6
	c-6.9-30.7-15-61.2-22.2-91.9c-1.3-5.5-5.9-7.3-10.1-6.5c-2.5-10.7-5-21.4-7.4-32.2c-2.5-11.8-20.6-6.8-18.1,5
	c5.8,27.1,14,53.6,16.4,81.3c2.4,28.5,1.4,57,2.2,85.5c0.7,28.3,4.9,56.5,10.5,84.2c2.9,14,6.1,28,9.5,41.9
	c3.2,13.2,5.8,26.9,10.5,39.6c4.6,12.3,13.6,25,12.7,38.5c-0.8,11.6-4.4,23.6,2,34.4c0.2,0.4,0.5,0.7,0.7,1.1
	c-0.6,3.7-1.1,7.5-0.9,11.4c0.5,9.3,12.4,12.8,17.5,4.7C1322.1,877.2,1322.1,854.4,1320.9,834.4z"/>
<path fill="#686868" d="M1389.5,756.1c-9.6-55.1-10.9-111.5-16.6-167.1c-2.8-27.5-5.6-55.6-15-81.9c-1.6-4.5-5.4-6.4-9.2-6.4
	c0-4.2,0.4-8.3,1.7-12.4c3.8-11.5-14.3-16.4-18.1-5c-4.5,13.6-1.1,27.2,0.5,40.9c1.6,14.2-1.4,28-3.7,42c-5.1,30.7-2,61.5,4,91.8
	c5.7,29.2,11.4,57.8,20.4,86.1c9.2,29,11.9,59.9,16.9,89.8c2.6,15.6,4.6,31.1,4.7,47c0.1,13.8,3.3,25.8,14.5,34.8
	c4.9,3.9,14.4,3.6,15.7-4.1C1414.2,858.6,1398.6,808.1,1389.5,756.1z"/>
<path fill="#686868" d="M1486.5,820.4c-2-27.7-4.1-55.3-7.5-82.8c-3.3-27.5-7-55-9.5-82.6c-1.2-13.5-2.2-26.9-5.2-40.2
	c-0.1-0.6-0.3-1.2-0.4-1.8c1.8-2,2.6-4.8,1.6-8.2c-2.5-8.1,1.7-16.6,1.3-24.9c-0.4-8.5-3.3-16.4-4.9-24.7
	c-3.5-18.6-3.6-37.9-6.4-56.7c-0.5-3.5-3.8-5.9-7.2-6.6c0-2,0-3.9,0-5.9c0-12.1-18.7-12.1-18.8,0c-0.1,27.4,0.5,54.8,4.5,82
	c3.8,25.3,13.6,49.3,15.7,75c4.3,54.6,13.9,108.6,17.2,163.3c1.7,29.1,8.5,60.2-0.8,88.6c-3.8,11.5,14.3,16.4,18.1,5
	C1492.7,873.7,1488.4,847,1486.5,820.4z"/>
<path d="M1465.7,948.1c-5.1,11-21.2,1.4-16.2-9.5c15-32.4,23.7-67.6,27.5-103c6.8-63.7-0.5-127.9-9-191.1
	c-4.3-32.4-9.7-64.8-12.3-97.4c-0.7-9.2-1.2-18.6-2.8-27.7c-0.8-4.5-1.7-9.3-4.4-13.1c-1.7-2.3-4.9-4.5-7.8-6.6
	c-4.9-3.5-9.6-7.1-14.1-11.1c-9-8,4.3-21.3,13.3-13.3c8.5,7.6,19.8,12.8,25.7,22.9c3.7,6.2,5.1,13.4,6.1,20.5
	c1.5,10.6,2.2,21.3,3.1,31.9c2.8,33.5,8.4,66.9,12.8,100.2c4.4,33.3,8.3,66.7,9.9,100.3C1500.9,818.5,1494.2,886.4,1465.7,948.1z"/>
<path fill="#686868" d="M1592.4,867.9c-2.4-13.7-3.1-27.7-3.8-41.6c-1.5-29-3.5-58-5.4-87c-1.8-28.8-3.2-57.7-2.4-86.5
	c0.8-26.8,6.4-53.1,9.9-79.6c4.1-30.7,4.1-61.6-6.6-91c-4.1-11.2-22.2-6.4-18.1,5c3.3,9,5.4,18,6.7,27c-3.3-1.4-8.1-1.2-10.6,1.8
	c-13.1,16.6-10.5,38.2-8.7,58.5c-0.4,1.3-0.8,2.6-1.2,3.9c-1,3.6,0.1,6.5,2.1,8.6c0.1,1.3,0.1,2.6,0.1,3.9
	c0.1,7.8,7.9,10.6,13.5,8.3c-2.3,15.2-4.6,30.4-5.5,45.6c-3.5,57.2,4.1,114.8,6.9,171.8c0.8,15.8,1.5,31.5,3.6,47.2
	c2,14.9,6.7,29.5,5.3,44.7c-1.1,12,17.7,11.9,18.8,0C1598.3,894.7,1594.8,881.3,1592.4,867.9z"/>
<path d="M1599.1,934.6c-26.1-16.7-32.3-45.5-34.9-74.4c-3-32.1-5-64.2-5.9-96.4c-0.9-35.2-1.1-70.4-2.7-105.5
	c-1.5-32.9-9.3-65.7-7.8-98.7c1.5-30.9,11.4-61.5,23.5-89.7c2-4.6,8.9-5.7,12.8-3.4c4.7,2.8,5.4,8.1,3.4,12.8
	c-13,30-22.3,63.1-21,96c0.6,15.4,2.8,30.7,4.7,46c1.9,15.5,2.9,31.1,3.5,46.7c1.3,33.5,1.5,67.1,2.4,100.6
	c0.9,30.3,2.9,60.5,5.7,90.7c2,22,5.6,46.2,25.7,59C1618.7,924.9,1609.3,941.1,1599.1,934.6z"/>
<path fill="#686868" d="M1691,855.4c-1.1-13.2,0.2-26.7-0.4-39.9c-0.7-14.1-2-28-1.8-42.2c0.2-13.6,1-27.1,1-40.7
	c0-13.6-1.5-26.7-3.4-40.2c-2-13.7-2.2-27.4-2.5-41.2c-0.7-27.8-0.2-55.3,0.5-83.1c0.8-31.2-1.9-62.2-2.3-93.4
	c-0.2-12.1-18.9-12.1-18.8,0c0.3,27.5,2.8,55,2.5,82.5c-0.3,27.8-1.8,55.5-1,83.4c0.4,13.4,0.3,26.8,1.4,40.1
	c1.2,13.8,4.3,27.3,4.7,41.1c0.9,27.7-2.3,55.2,0.2,82.9c0.4,4.5,0.6,9,0.7,13.5c-4.4,0.4-8.5,3.4-8.5,9
	c-0.1,12.6-1.3,25.2,0.3,37.7c1.7,13.3,6.8,24.9,16,34.8c5.8,6.3,15.6,1.1,16-6.6C1696.3,880.2,1692.1,868.1,1691,855.4z"/>
<path d="M1696.6,919.6c-13.8-8-26-19-33.3-33.3c-6.9-13.5-9.5-28.5-9.7-43.5c-0.2-17.1,2.3-34.2,2.4-51.4c0.1-19.6-1-39.1-1.9-58.6
	c-1.7-38.7-3-77.4-3-116.2c0-32.4,1.9-64.7,0.7-97c-0.8-23.4-0.2-52.5,22.3-66.1c10.3-6.3,19.8,9.9,9.5,16.2
	c-9.3,5.6-11.8,17.1-12.7,27.3c-1.1,12.6-0.1,25.2,0.4,37.7c0.6,15-0.6,30-1,45c-0.4,18.1-0.5,36.2-0.3,54.3
	c0.3,36.6,1.7,73.2,3.4,109.8c0.9,18.3,1.7,36.7,1.3,55c-0.3,15.3-2.6,30.5-2.2,45.7c0.2,11.1,2,22.4,7.1,32.4
	c5.9,11.7,15.3,20.1,26.5,26.6C1716.6,909.4,1707.1,925.6,1696.6,919.6z"/>
<path fill="#686868" d="M1829.2,520.9c-0.9-2.7-2.5-4.5-4.5-5.5c-0.5-8.4-1.6-16.9-3.4-25.2c-6.7-29.8-3-69.9-3-69.9l2.5-40
	c-16.2,10.5-33.5,19.1-51.7,25.6c-18.8,6.7-37.9,12.5-57.1,18.1c-1.5,0.9-3.2,1.4-5,1.4c-7.8,2.3-15.7,4.5-23.4,6.7
	c-28.8,8.2-58,15.1-87.7,19.2c-31.6,4.4-63.4,5.7-95.3,5.4c-31.7-0.3-63.6-1.5-95.2-4c-60.5-4.8-120.6-18.4-179.5-32.6
	c-29.4-7.1-58.1-16.2-84.7-29.6c0,0,30.2,45.3,28.4,94.1l62.5-17.3c34.2-9.5,70.2-10.7,105-3.6c29.4,6,66,11.6,92.6,9.2
	c51.9-4.6,225.4-17.8,281.2-34.9c32.6-10,63.9-14.4,84.2-16.2c-3,20.2,3.1,43.1,6.4,61.9c2.1,11.9,4.7,24.1,4.9,36.2
	c0.3,13-4.1,23.2-15.5,30.1c-5.7,3.5,28.9,50.9,30.7,42.7c2.3-10.3,15.4-27.3,16.1-38.1C1838.4,542.6,1832.8,532,1829.2,520.9z"/>
<path d="M1322.6,850.5c-0.3,30-11.5,57.5-34.6,77c-9.2,7.7-22.5-5.5-13.3-13.3c12.1-10.2,21.3-22.7,25.7-38.1
	c4.1-14.4,4.1-29.5,2.4-44.2c-8-72.4-15.3-145.3-29.5-216.8c-3.5-17.6-7.2-35.2-10.2-52.9c-2.8-16.5-3.2-33.9-8.8-49.7
	c-8.8-24.6-29.7-43-43-65.1c-6.2-10.4,10-19.8,16.2-9.5c16.3,27,41,48.4,48,80.3c1.9,8.8,2.5,17.9,3.8,26.9
	c1.3,8.9,2.8,17.7,4.5,26.5c3.6,19.2,7.8,38.4,11.3,57.6c6.9,37.7,11.6,75.8,16,113.9c2.1,18.6,4.2,37.2,6.4,55.8
	C1319.6,816.1,1322.8,833.3,1322.6,850.5z"/>
<path d="M1410.8,922c-4.4,14-13.7,24.6-25.4,33.2c-4.1,3-10.5,0.7-12.8-3.4c-2.7-4.7-0.7-9.8,3.4-12.8c11-8,17.8-19.3,18.9-32.9
	c1.1-13.7-1.4-27.4-3.3-40.9c-4.7-34.2-10.4-68.2-16.2-102.3c-6.1-35.7-11.6-71.6-13.4-107.8c-0.9-17.7-0.8-35.4-1.7-53.1
	c-0.8-17.5-3.2-34.4-6.9-51.5c-3.2-14.9-4.7-30.8-10.9-44.9c-6.2-14.2-17.5-25.5-24.3-39.4c-5.3-10.8,10.9-20.3,16.2-9.5
	c8.2,16.6,21.2,29.8,27.6,47.4c6.3,17.4,9,36.7,12.3,54.8c6.8,36.5,4.5,73.8,7.2,110.6c2.8,37.7,9.5,74.9,15.9,112.1
	c5.9,34.1,11.5,68.3,15.3,102.7C1414.3,896.9,1414.6,909.9,1410.8,922z"/>
<path fill="#686868" d="M2219,1474c1-28.4-6.4-55.8-10.7-83.6c-0.7-4.7-6.6-7.3-10.8-6.1c-5,1.4-6.8,6.1-6.1,10.8
	c3.8,24.4,10.4,48.5,10.3,73.4c-0.2,25.3-0.8,51-3,76.3c-2.2,25.7-2.7,51.1-1.8,76.9c0.9,25.7,2.8,51.4,2.9,77.1
	c0.1,28.2-8.8,55.6-7,83.8c0.7,11.2,18.2,11.3,17.5,0c-1.7-25.3,5.5-49.9,6.8-75.1c1.3-25.9-1.3-52.1-2.4-78c-1.1-26-1.5-52,0.8-78
	C2217.8,1525.7,2218,1499.9,2219,1474z"/>
<path fill="#686868" d="M2295.6,1422.6c-4.7-21.1-16.3-52.2-43.3-49.1c-4.7,0.5-8.7,3.6-8.7,8.7c0,4.3,4,9.3,8.7,8.7
	c1.1-0.1,2.1-0.1,3.2-0.2c0.4,0,1.5,0.1,1.8,0.2c0.4,0.1,0.9,0.2,1.3,0.3c0.5,0.1,0.9,0.3,1.4,0.4c0.7,0.4,1.4,0.8,2.2,1.2
	c0.3,0.2,0.7,0.4,1,0.6c1.5,1.3,2.8,2.6,4,4.1c0,0,0.1,0.1,0.1,0.1c0.2,0.3,0.5,0.6,0.7,1c0.7,1,1.3,2.1,1.9,3.1c1.1,1.9,2.1,4,3,6
	c0.1,0.3,0.8,2.1,1,2.5c0.5,1.3,0.9,2.6,1.4,3.9c1,2.9,1.8,5.9,2.5,8.9c7.1,28.4,7.8,58.6,7.8,88.6c0.1,59.5-6.3,118.5-10.1,177.8
	c-0.8,12.1,0.2,23.9,0.9,36c0.7,11.2,1.2,22.4,0.5,33.6c-0.3,4.4-0.7,8.7-1.9,12.9c-0.5,1.9-1,3.4-1.4,4.2c-0.4,0.8-0.9,1.4-1.3,2.2
	c1-1.7-1.9,1.4,0,0.1c-3.8,2.8-5.6,7.6-3.1,12c2.2,3.8,8.1,5.9,12,3.1c15.2-11,13.8-35.6,13.4-52.2c-0.4-14.9-2.6-29.9-2-44.9
	c0.9-23.4,3.6-46.7,5.3-70c2.7-35.4,4.8-70.9,5.1-106.5C2303.2,1487.7,2302.6,1454.4,2295.6,1422.6z"/>
<path fill="#686868" d="M2383.7,1699.3c-0.5-34.6-4.2-69-6.1-103.4c-1-17.3-1.7-34.7-1.1-52c0.6-17.1,2.6-34,3.4-51.1
	c0.8-18.9-0.8-37.3-5.1-55.8c-4.2-17.9-9.8-35.4-12.7-53.5c-0.7-4.7-6.6-7.3-10.8-6.1c-5,1.4-6.8,6.1-6.1,10.8
	c4.8,30.8,17.3,59.8,17.5,91.3c0.1,16.4-1.6,32.6-2.8,48.9c-1.2,16.5-1.2,32.9-0.6,49.4c1.2,33.1,4.7,66.2,6.2,99.3
	c0.7,13.6,0.3,27.3,0.9,40.9c0.3,8.9,1.2,17.7,1.6,26.5c0.6,10.9,1,22.2-0.6,33.1c-0.6,4.1-1.6,9-3.2,12.5c-1.6,3.8-3.4,6.1-6.3,7.7
	c-9.8,5.5-1,20.6,8.8,15.1c17.4-9.8,18.9-34,19.1-51.7C2386,1740.5,2384,1719.9,2383.7,1699.3z"/>
<path fill="#686868" d="M2466.6,1773.4c-4-6.5-4.9-14.7-6.1-22.2c-2.7-16.1-3.1-32.7-4.6-48.9c-2.8-29.5-5.5-59-5.8-88.6
	c-0.1-15.2,0.3-30.5,1.7-45.6c1.4-14.7,3.8-29.3,5.6-43.9c1.8-14.6,2.1-29.1,2.2-43.8c0.1-13.6-6.2-28.8,1.2-40.6
	c6-9.6-3.3-18.4-9.3-8.8c-14.6,23.5-8.1,53.8-10.2,80c-1.3,15.8-4,31.5-5.9,47.3c-2,16.2-2.8,32.4-2.8,48.7
	c-0.1,32.7,2.9,65.3,6,97.8c1.7,17.7,2.2,35.6,5.4,53.1c3.2,18,10.7,40.7,32,42.3C2487.2,1800.9,2477.5,1791,2466.6,1773.4z"/>
<path fill="#686868" d="M2560.5,1414c-10-3.8-21.7-4.9-30.4,2.5c-7,5.9-9.6,15.1-10.8,23.9c-1.3,9.7-1.2,19.4-1,29.2
	c0.2,12.8-1.2,25.4-2,38.2c-2.6,40.2-2.6,80.6-7.5,120.6c-2.4,19.7-4,39.1-4.8,58.9c-0.6,14.5-2.3,28.8-3.2,43.2
	c-0.8,12.6-0.6,26,4.7,37.8c11.6,25.5,12.3,18.9,31.8,19.6c11.3,0.4,11.2-17.1,0-17.5c-20.8-0.7-20-24.4-19-40.5
	c0.8-12.7,2.3-25.4,2.9-38.2c0.8-17.7,1.3-35.5,3.7-53.1c4.9-35.9,5.9-72,7.6-108.1c0.8-16.2,2.5-32.4,3.2-48.5
	c0.4-8.1-0.2-16.1-0.1-24.2c0-5,0.1-10.1,0.8-15.1c0.3-2,1.8-8,2.5-9.2c1.2-2.4,1.1-2.4,2.4-3.4c0.4-0.3,1.7-1,2.2-1.2
	c0.3-0.1,2.7-0.4,3.8-0.2C2550.2,1428.8,2570.9,1418,2560.5,1414z"/>
<path fill="#686868" d="M2600.9,1414.5c-14.4,15.6-19.5,36-20.9,56.7c-1.6,24.1-0.6,48.7-0.5,72.9c0.2,48.7-2.5,96.9-9.1,145.2
	c-3.5,25.2-3.6,52.2,5.9,76.2c1.4,3.6,4.3,6.4,8.4,6.4c10.8-0.1,19-6.4,22.1-16.7c3.2-10.8-13.6-15.4-16.9-4.6
	c0,0.1-0.1,0.2-0.1,0.3c-4.8-17.3-4.9-35.7-3-53.6c2.5-22.9,5.9-45.5,7.6-68.5c3.5-47.4,2.3-95,2.5-142.5
	C2597.1,1465.7,2608.6,1406.2,2600.9,1414.5z"/>
<path d="M2317.1,1497.9c-1.2,35.9-3.3,71.8-4,107.7c-0.5,25.9-0.9,51.7-2.1,77.6c-1.1,22.8-3.3,45.4-3.2,68.2
	c0,16.1,0.3,41.8-16.9,50c-15.9,7.6-32.3-8.8-38.6-22c-4.9-10.1,10.2-18.9,15.1-8.8c2.7,5.6,7.2,12.4,13.3,14.7
	c5.8,2.1,7.7-8.2,8.6-13.1c1.6-9.4,1.1-19.3,1.1-28.8c-0.1-10.5,0.8-20.9,1.5-31.4c3.5-47,3.3-94.1,4.6-141.2
	c0.7-27.9,3.1-55.7,3.5-83.6c0.3-23.6-0.5-48.3-8.9-70.7c-7.5-19.9-22.1-31.8-44.1-31.3c-11.3,0.2-11.2-17.3,0-17.5
	c15.1-0.3,29.6,3.8,41.2,13.7c10.6,9,17.2,22.1,21.4,35.2C2317.8,1442.5,2318,1471,2317.1,1497.9z"/>
<path d="M2399.3,1709.8c-0.4,24.6,1.1,50.4-6.4,74.2c-3.1,10-8.1,20.3-17,26.3c-10,6.7-21.5,4.9-31.9,0.3c-4.3-1.9-5.4-8.2-3.1-12
	c2.6-4.4,7.6-5.1,12-3.1c4.4,2,7.9,2.5,11.4,1.4c0.5-0.2,2.9-1.7,3.2-1.9c1.9-1.7,2.6-2.6,3.6-4.3c5.3-8.5,7.6-19,9-29.2
	c1.1-8.1,1.6-16.8,1.6-25.1c0.1-18.6,0.7-37.2,0.5-55.8c-0.2-19.8-3-39.1-4.8-58.8c-1.7-19-2.4-38-3.1-57
	c-1.5-37.1-3.3-74.1-6-111.1c-1.6-22.4-0.5-54.5-21.8-68.5c-9.4-6.2-0.6-21.3,8.8-15.1c29.4,19.3,28.1,57.3,30.8,88.4
	c3.6,41.5,4.6,83.2,6.4,124.9c0.9,20.9,2.8,41.6,5.2,62.3C2399.9,1667,2399.6,1688.4,2399.3,1709.8z"/>
<path d="M2227.1,1425.7c-2.5-9.6-5.3-19.9-11-28.1c-3-4.3-6.8-6.4-10.4-9.9c-2.7-2.6-3-7.3-5.3-10.5c-2.8-3.9-7.6-5.6-12-3.1
	c-3.8,2.2-5.9,8.1-3.1,12c2,2.7,2.3,6.1,3.9,9.1c2,3.6,5.1,5.8,8.4,8.2c6,4.6,8.3,12,10.4,19c5.3,17.4,8.1,35.3,8.1,53.5
	c0,18.6-2.2,37.1-3.5,55.6c-1.3,18.8-1.5,37.7-2.2,56.5c-1.3,38.5-2.7,77-4.5,115.5c-0.8,16.8,0.5,33.4-0.1,50.2
	c-0.3,9-0.9,18.6-4,25.9c0.1-0.1-1.6,2.7-1.8,3.3c-0.3,0.3-0.9,1-1.1,1.2c-0.2,0.1-0.4,0.2-0.6,0.3c0.2-0.1,0.7,0.1-0.1,0.1
	c-0.3,0-0.6,0-0.9-0.1c-0.5-0.1-1-0.2-1.4-0.3c-1.5-0.6-1.2-0.4-2.2-0.8c-10.1-4.9-18.9,10.1-8.8,15.1
	c43.9,21.5,38.4-55.6,37.9-78.3c-0.3-15,1.2-30.1,1.9-45c0.9-20.6,1.6-41.2,2.4-61.8c0.7-20.5,1.4-41,2.1-61.5
	c0.7-20.5,3-40.8,4.1-61.2C2234.2,1468.5,2232.5,1446.8,2227.1,1425.7z"/>
<path d="M2473.6,1796.2c-18.3-2.6-23.4-19.8-26-35.9c-3.7-23.1-3.5-47-4.1-70.3c-0.4-15.1-1.5-30.1-2.5-45.2
	c-1-14.8-0.7-29.6-0.2-44.4c1-30.6,1.4-61.3,1.8-91.9c0.2-15.3-0.8-31.1,2.1-46.1c2.9-15.1,11.8-27.9,16.4-42.4
	c3.4-10.8-13.5-15.4-16.9-4.6c-4.4,13.9-12.9,26.2-16,40.6c-2.9,13.6-2.9,27.6-3,41.4c-0.2,32.2-0.6,64.4-1.7,96.5
	c-0.5,16.2-1.1,32.5-0.2,48.7c0.9,15.8,2.2,31.6,2.6,47.5c0.6,24.9,0.8,50.2,4.7,74.9c3.5,21.7,14,44.6,38.2,48.1
	c4.7,0.7,9.3-1.2,10.8-6.1C2480.9,1802.8,2478.3,1796.8,2473.6,1796.2z"/>
<path d="M2604.7,1755.9c-2.3,4.6-6.1,9.1-11.6,9.2c-6,0.2-9.7-5.1-12-10c-4.9-10.3-6.6-22.7-8.4-33.9c-1.7-10.8-2.8-21.7-3-32.7
	c-0.1-5-0.1-10.6,0.6-15.3c0.3-2,0.7-4,1.4-6c0.1-0.3,0.2-0.5,0.2-0.6c0,0.1,0,0.2,0.2-0.5c0.1-0.3,0.3-0.5,0.5-0.8
	c0.1-0.1-4.5-6-4.3-6.2c8-7.9,1.5-21.4-6.5-13.5c-6.9,6.8-9.1,25-9.5,34.2c-0.5,11.3,0.4,22.7,1.8,33.9c1.3,10.3,3.1,20.4,5.3,30.5
	c3,13.2,8,28.8,21,35.3c15,7.5,32.1-0.6,39.3-14.9C2624.9,1754.7,2609.8,1745.8,2604.7,1755.9z"/>
</svg>
